%TF.GenerationSoftware,KiCad,Pcbnew,8.0.4*%
%TF.CreationDate,2025-02-19T16:48:10+05:30*%
%TF.ProjectId,test1,74657374-312e-46b6-9963-61645f706362,rev?*%
%TF.SameCoordinates,Original*%
%TF.FileFunction,Paste,Top*%
%TF.FilePolarity,Positive*%
%FSLAX46Y46*%
G04 Gerber Fmt 4.6, Leading zero omitted, Abs format (unit mm)*
G04 Created by KiCad (PCBNEW 8.0.4) date 2025-02-19 16:48:10*
%MOMM*%
%LPD*%
G01*
G04 APERTURE LIST*
G04 Aperture macros list*
%AMRoundRect*
0 Rectangle with rounded corners*
0 $1 Rounding radius*
0 $2 $3 $4 $5 $6 $7 $8 $9 X,Y pos of 4 corners*
0 Add a 4 corners polygon primitive as box body*
4,1,4,$2,$3,$4,$5,$6,$7,$8,$9,$2,$3,0*
0 Add four circle primitives for the rounded corners*
1,1,$1+$1,$2,$3*
1,1,$1+$1,$4,$5*
1,1,$1+$1,$6,$7*
1,1,$1+$1,$8,$9*
0 Add four rect primitives between the rounded corners*
20,1,$1+$1,$2,$3,$4,$5,0*
20,1,$1+$1,$4,$5,$6,$7,0*
20,1,$1+$1,$6,$7,$8,$9,0*
20,1,$1+$1,$8,$9,$2,$3,0*%
G04 Aperture macros list end*
%ADD10C,0.000000*%
%ADD11RoundRect,0.079500X-0.079500X-0.100500X0.079500X-0.100500X0.079500X0.100500X-0.079500X0.100500X0*%
%ADD12RoundRect,0.140000X0.140000X0.170000X-0.140000X0.170000X-0.140000X-0.170000X0.140000X-0.170000X0*%
%ADD13RoundRect,0.225000X-0.225000X-0.250000X0.225000X-0.250000X0.225000X0.250000X-0.225000X0.250000X0*%
%ADD14RoundRect,0.250000X-0.315000X-0.315000X0.315000X-0.315000X0.315000X0.315000X-0.315000X0.315000X0*%
%ADD15RoundRect,0.062500X-0.350000X-0.062500X0.350000X-0.062500X0.350000X0.062500X-0.350000X0.062500X0*%
%ADD16RoundRect,0.062500X-0.062500X-0.350000X0.062500X-0.350000X0.062500X0.350000X-0.062500X0.350000X0*%
%ADD17RoundRect,0.140000X-0.170000X0.140000X-0.170000X-0.140000X0.170000X-0.140000X0.170000X0.140000X0*%
%ADD18RoundRect,0.135000X-0.185000X0.135000X-0.185000X-0.135000X0.185000X-0.135000X0.185000X0.135000X0*%
%ADD19RoundRect,0.250000X-0.335000X-0.335000X0.335000X-0.335000X0.335000X0.335000X-0.335000X0.335000X0*%
%ADD20RoundRect,0.140000X-0.140000X-0.170000X0.140000X-0.170000X0.140000X0.170000X-0.140000X0.170000X0*%
%ADD21RoundRect,0.135000X-0.135000X-0.185000X0.135000X-0.185000X0.135000X0.185000X-0.135000X0.185000X0*%
%ADD22RoundRect,0.225000X0.250000X-0.225000X0.250000X0.225000X-0.250000X0.225000X-0.250000X-0.225000X0*%
%ADD23RoundRect,0.249999X-0.512501X-1.075001X0.512501X-1.075001X0.512501X1.075001X-0.512501X1.075001X0*%
%ADD24RoundRect,0.079500X-0.100500X0.079500X-0.100500X-0.079500X0.100500X-0.079500X0.100500X0.079500X0*%
%ADD25RoundRect,0.250000X-0.623411X-0.623411X0.623411X-0.623411X0.623411X0.623411X-0.623411X0.623411X0*%
%ADD26RoundRect,0.075000X-0.662500X-0.075000X0.662500X-0.075000X0.662500X0.075000X-0.662500X0.075000X0*%
%ADD27RoundRect,0.075000X-0.075000X-0.662500X0.075000X-0.662500X0.075000X0.662500X-0.075000X0.662500X0*%
%ADD28RoundRect,0.135000X0.135000X0.185000X-0.135000X0.185000X-0.135000X-0.185000X0.135000X-0.185000X0*%
%ADD29RoundRect,0.087500X-0.225000X-0.087500X0.225000X-0.087500X0.225000X0.087500X-0.225000X0.087500X0*%
%ADD30RoundRect,0.087500X-0.087500X-0.225000X0.087500X-0.225000X0.087500X0.225000X-0.087500X0.225000X0*%
%ADD31R,0.914400X0.431800*%
%ADD32R,3.505200X4.394200*%
%ADD33R,0.457200X1.117600*%
%ADD34RoundRect,0.250001X-0.849999X0.462499X-0.849999X-0.462499X0.849999X-0.462499X0.849999X0.462499X0*%
%ADD35RoundRect,0.250000X-0.250000X-0.475000X0.250000X-0.475000X0.250000X0.475000X-0.250000X0.475000X0*%
%ADD36RoundRect,0.079500X0.079500X0.100500X-0.079500X0.100500X-0.079500X-0.100500X0.079500X-0.100500X0*%
%ADD37R,1.600200X5.689600*%
%ADD38RoundRect,0.250000X0.250000X0.475000X-0.250000X0.475000X-0.250000X-0.475000X0.250000X-0.475000X0*%
%ADD39RoundRect,0.150000X-0.512500X-0.150000X0.512500X-0.150000X0.512500X0.150000X-0.512500X0.150000X0*%
%ADD40R,1.117600X0.457200*%
%ADD41R,1.350000X0.400000*%
%ADD42R,1.900000X1.900000*%
%ADD43R,2.743200X2.387600*%
%ADD44RoundRect,0.140000X0.170000X-0.140000X0.170000X0.140000X-0.170000X0.140000X-0.170000X-0.140000X0*%
%ADD45R,0.375000X0.350000*%
%ADD46R,0.350000X0.375000*%
%ADD47R,1.300000X1.100000*%
%ADD48RoundRect,0.062500X0.062500X-0.162500X0.062500X0.162500X-0.062500X0.162500X-0.062500X-0.162500X0*%
%ADD49RoundRect,0.062500X-0.062500X0.162500X-0.062500X-0.162500X0.062500X-0.162500X0.062500X0.162500X0*%
%ADD50R,0.838200X0.355600*%
G04 APERTURE END LIST*
D10*
%TO.C,U7*%
G36*
X53874160Y67082366D02*
G01*
X52321560Y67082366D01*
X52321560Y68347100D01*
X53874160Y68347100D01*
X53874160Y67082366D01*
G37*
G36*
X53874160Y65617633D02*
G01*
X52321560Y65617633D01*
X52321560Y66882367D01*
X53874160Y66882367D01*
X53874160Y65617633D01*
G37*
G36*
X53874160Y64152900D02*
G01*
X52321560Y64152900D01*
X52321560Y65417634D01*
X53874160Y65417634D01*
X53874160Y64152900D01*
G37*
G36*
X55626760Y67082366D02*
G01*
X54074160Y67082366D01*
X54074160Y68347100D01*
X55626760Y68347100D01*
X55626760Y67082366D01*
G37*
G36*
X55626760Y65617633D02*
G01*
X54074160Y65617633D01*
X54074160Y66882367D01*
X55626760Y66882367D01*
X55626760Y65617633D01*
G37*
G36*
X55626760Y64152900D02*
G01*
X54074160Y64152900D01*
X54074160Y65417634D01*
X55626760Y65417634D01*
X55626760Y64152900D01*
G37*
%TD*%
D11*
%TO.C,C32*%
X58154160Y41525000D03*
X58844160Y41525000D03*
%TD*%
%TO.C,C19*%
X83129160Y2250000D03*
X83819160Y2250000D03*
%TD*%
D12*
%TO.C,C12*%
X73934160Y19750000D03*
X72974160Y19750000D03*
%TD*%
D13*
%TO.C,C46*%
X37199160Y26230000D03*
X38749160Y26230000D03*
%TD*%
D14*
%TO.C,U16*%
X55824160Y49850000D03*
X55824160Y48550000D03*
X57124160Y49850000D03*
X57124160Y48550000D03*
D15*
X54536660Y50450000D03*
X54536660Y49950000D03*
X54536660Y49450000D03*
X54536660Y48950000D03*
X54536660Y48450000D03*
X54536660Y47950000D03*
D16*
X55224160Y47262500D03*
X55724160Y47262500D03*
X56224160Y47262500D03*
X56724160Y47262500D03*
X57224160Y47262500D03*
X57724160Y47262500D03*
D15*
X58411660Y47950000D03*
X58411660Y48450000D03*
X58411660Y48950000D03*
X58411660Y49450000D03*
X58411660Y49950000D03*
X58411660Y50450000D03*
D16*
X57724160Y51137500D03*
X57224160Y51137500D03*
X56724160Y51137500D03*
X56224160Y51137500D03*
X55724160Y51137500D03*
X55224160Y51137500D03*
%TD*%
D17*
%TO.C,C6*%
X18974160Y38730000D03*
X18974160Y37770000D03*
%TD*%
D18*
%TO.C,R5*%
X22474160Y50270000D03*
X22474160Y49250000D03*
%TD*%
D19*
%TO.C,U6*%
X76474160Y11250000D03*
X76474160Y9900000D03*
X77824160Y11250000D03*
X77824160Y9900000D03*
D15*
X75186660Y11825000D03*
X75186660Y11325000D03*
X75186660Y10825000D03*
X75186660Y10325000D03*
X75186660Y9825000D03*
X75186660Y9325000D03*
D16*
X75899160Y8612500D03*
X76399160Y8612500D03*
X76899160Y8612500D03*
X77399160Y8612500D03*
X77899160Y8612500D03*
X78399160Y8612500D03*
D15*
X79111660Y9325000D03*
X79111660Y9825000D03*
X79111660Y10325000D03*
X79111660Y10825000D03*
X79111660Y11325000D03*
X79111660Y11825000D03*
D16*
X78399160Y12537500D03*
X77899160Y12537500D03*
X77399160Y12537500D03*
X76899160Y12537500D03*
X76399160Y12537500D03*
X75899160Y12537500D03*
%TD*%
D20*
%TO.C,C43*%
X50494160Y38750000D03*
X51454160Y38750000D03*
%TD*%
D21*
%TO.C,R4*%
X87964160Y14250000D03*
X88984160Y14250000D03*
%TD*%
D11*
%TO.C,C36*%
X49174160Y53250000D03*
X49864160Y53250000D03*
%TD*%
D22*
%TO.C,C39*%
X23484160Y33475000D03*
X23484160Y35025000D03*
%TD*%
D23*
%TO.C,L6*%
X13136660Y17750000D03*
X17811660Y17750000D03*
%TD*%
D11*
%TO.C,C22*%
X85629160Y14250000D03*
X86319160Y14250000D03*
%TD*%
D20*
%TO.C,C2*%
X72514160Y8250000D03*
X73474160Y8250000D03*
%TD*%
D13*
%TO.C,C42*%
X20199160Y18240000D03*
X21749160Y18240000D03*
%TD*%
D24*
%TO.C,C26*%
X69774160Y10395000D03*
X69774160Y9705000D03*
%TD*%
D21*
%TO.C,R7*%
X8964160Y50760000D03*
X9984160Y50760000D03*
%TD*%
D11*
%TO.C,C23*%
X75629160Y15250000D03*
X76319160Y15250000D03*
%TD*%
D25*
%TO.C,U1*%
X70474160Y49750000D03*
X70474160Y47750000D03*
X70474160Y45750000D03*
X72474160Y49750000D03*
X72474160Y47750000D03*
X72474160Y45750000D03*
X74474160Y49750000D03*
X74474160Y47750000D03*
X74474160Y45750000D03*
D26*
X61811660Y56500000D03*
X61811660Y56000000D03*
X61811660Y55500000D03*
X61811660Y55000000D03*
X61811660Y54500000D03*
X61811660Y54000000D03*
X61811660Y53500000D03*
X61811660Y53000000D03*
X61811660Y52500000D03*
X61811660Y52000000D03*
X61811660Y51500000D03*
X61811660Y51000000D03*
X61811660Y50500000D03*
X61811660Y50000000D03*
X61811660Y49500000D03*
X61811660Y49000000D03*
X61811660Y48500000D03*
X61811660Y48000000D03*
X61811660Y47500000D03*
X61811660Y47000000D03*
X61811660Y46500000D03*
X61811660Y46000000D03*
X61811660Y45500000D03*
X61811660Y45000000D03*
X61811660Y44500000D03*
X61811660Y44000000D03*
X61811660Y43500000D03*
X61811660Y43000000D03*
X61811660Y42500000D03*
X61811660Y42000000D03*
X61811660Y41500000D03*
X61811660Y41000000D03*
X61811660Y40500000D03*
X61811660Y40000000D03*
X61811660Y39500000D03*
X61811660Y39000000D03*
D27*
X63724160Y37087500D03*
X64224160Y37087500D03*
X64724160Y37087500D03*
X65224160Y37087500D03*
X65724160Y37087500D03*
X66224160Y37087500D03*
X66724160Y37087500D03*
X67224160Y37087500D03*
X67724160Y37087500D03*
X68224160Y37087500D03*
X68724160Y37087500D03*
X69224160Y37087500D03*
X69724160Y37087500D03*
X70224160Y37087500D03*
X70724160Y37087500D03*
X71224160Y37087500D03*
X71724160Y37087500D03*
X72224160Y37087500D03*
X72724160Y37087500D03*
X73224160Y37087500D03*
X73724160Y37087500D03*
X74224160Y37087500D03*
X74724160Y37087500D03*
X75224160Y37087500D03*
X75724160Y37087500D03*
X76224160Y37087500D03*
X76724160Y37087500D03*
X77224160Y37087500D03*
X77724160Y37087500D03*
X78224160Y37087500D03*
X78724160Y37087500D03*
X79224160Y37087500D03*
X79724160Y37087500D03*
X80224160Y37087500D03*
X80724160Y37087500D03*
X81224160Y37087500D03*
D26*
X83136660Y39000000D03*
X83136660Y39500000D03*
X83136660Y40000000D03*
X83136660Y40500000D03*
X83136660Y41000000D03*
X83136660Y41500000D03*
X83136660Y42000000D03*
X83136660Y42500000D03*
X83136660Y43000000D03*
X83136660Y43500000D03*
X83136660Y44000000D03*
X83136660Y44500000D03*
X83136660Y45000000D03*
X83136660Y45500000D03*
X83136660Y46000000D03*
X83136660Y46500000D03*
X83136660Y47000000D03*
X83136660Y47500000D03*
X83136660Y48000000D03*
X83136660Y48500000D03*
X83136660Y49000000D03*
X83136660Y49500000D03*
X83136660Y50000000D03*
X83136660Y50500000D03*
X83136660Y51000000D03*
X83136660Y51500000D03*
X83136660Y52000000D03*
X83136660Y52500000D03*
X83136660Y53000000D03*
X83136660Y53500000D03*
X83136660Y54000000D03*
X83136660Y54500000D03*
X83136660Y55000000D03*
X83136660Y55500000D03*
X83136660Y56000000D03*
X83136660Y56500000D03*
D27*
X81224160Y58412500D03*
X80724160Y58412500D03*
X80224160Y58412500D03*
X79724160Y58412500D03*
X79224160Y58412500D03*
X78724160Y58412500D03*
X78224160Y58412500D03*
X77724160Y58412500D03*
X77224160Y58412500D03*
X76724160Y58412500D03*
X76224160Y58412500D03*
X75724160Y58412500D03*
X75224160Y58412500D03*
X74724160Y58412500D03*
X74224160Y58412500D03*
X73724160Y58412500D03*
X73224160Y58412500D03*
X72724160Y58412500D03*
X72224160Y58412500D03*
X71724160Y58412500D03*
X71224160Y58412500D03*
X70724160Y58412500D03*
X70224160Y58412500D03*
X69724160Y58412500D03*
X69224160Y58412500D03*
X68724160Y58412500D03*
X68224160Y58412500D03*
X67724160Y58412500D03*
X67224160Y58412500D03*
X66724160Y58412500D03*
X66224160Y58412500D03*
X65724160Y58412500D03*
X65224160Y58412500D03*
X64724160Y58412500D03*
X64224160Y58412500D03*
X63724160Y58412500D03*
%TD*%
D12*
%TO.C,C8*%
X28454160Y30750000D03*
X27494160Y30750000D03*
%TD*%
D28*
%TO.C,R1*%
X36484160Y32750000D03*
X35464160Y32750000D03*
%TD*%
D29*
%TO.C,U2*%
X28811660Y24912500D03*
X28811660Y24412500D03*
X28811660Y23912500D03*
X28811660Y23412500D03*
D30*
X29474160Y23250000D03*
X29974160Y23250000D03*
X30474160Y23250000D03*
D29*
X31136660Y23412500D03*
X31136660Y23912500D03*
X31136660Y24412500D03*
X31136660Y24912500D03*
D30*
X30474160Y25075000D03*
X29974160Y25075000D03*
X29474160Y25075000D03*
%TD*%
D31*
%TO.C,U7*%
X57873060Y64345000D03*
X57873060Y65615000D03*
X57873060Y66885000D03*
X57873060Y68155000D03*
X50075260Y68155000D03*
X50075260Y66885000D03*
X50075260Y65615000D03*
X50075260Y64345000D03*
D32*
X53974160Y66250000D03*
%TD*%
D18*
%TO.C,R9*%
X56174160Y41960000D03*
X56174160Y40940000D03*
%TD*%
D33*
%TO.C,U11*%
X11624159Y14651700D03*
X10324161Y14651700D03*
X10974160Y12848300D03*
%TD*%
D22*
%TO.C,C4*%
X18464160Y33475000D03*
X18464160Y35025000D03*
%TD*%
D11*
%TO.C,C24*%
X76509160Y18050000D03*
X77199160Y18050000D03*
%TD*%
D34*
%TO.C,L5*%
X71974160Y4912500D03*
X71974160Y2587500D03*
%TD*%
D35*
%TO.C,C5*%
X23074160Y28250000D03*
X24974160Y28250000D03*
%TD*%
D25*
%TO.C,U4*%
X34811660Y55000000D03*
X34811660Y53000000D03*
X34811660Y51000000D03*
X36811660Y55000000D03*
X36811660Y53000000D03*
X36811660Y51000000D03*
X38811660Y55000000D03*
X38811660Y53000000D03*
X38811660Y51000000D03*
D26*
X26149160Y61750000D03*
X26149160Y61250000D03*
X26149160Y60750000D03*
X26149160Y60250000D03*
X26149160Y59750000D03*
X26149160Y59250000D03*
X26149160Y58750000D03*
X26149160Y58250000D03*
X26149160Y57750000D03*
X26149160Y57250000D03*
X26149160Y56750000D03*
X26149160Y56250000D03*
X26149160Y55750000D03*
X26149160Y55250000D03*
X26149160Y54750000D03*
X26149160Y54250000D03*
X26149160Y53750000D03*
X26149160Y53250000D03*
X26149160Y52750000D03*
X26149160Y52250000D03*
X26149160Y51750000D03*
X26149160Y51250000D03*
X26149160Y50750000D03*
X26149160Y50250000D03*
X26149160Y49750000D03*
X26149160Y49250000D03*
X26149160Y48750000D03*
X26149160Y48250000D03*
X26149160Y47750000D03*
X26149160Y47250000D03*
X26149160Y46750000D03*
X26149160Y46250000D03*
X26149160Y45750000D03*
X26149160Y45250000D03*
X26149160Y44750000D03*
X26149160Y44250000D03*
D27*
X28061660Y42337500D03*
X28561660Y42337500D03*
X29061660Y42337500D03*
X29561660Y42337500D03*
X30061660Y42337500D03*
X30561660Y42337500D03*
X31061660Y42337500D03*
X31561660Y42337500D03*
X32061660Y42337500D03*
X32561660Y42337500D03*
X33061660Y42337500D03*
X33561660Y42337500D03*
X34061660Y42337500D03*
X34561660Y42337500D03*
X35061660Y42337500D03*
X35561660Y42337500D03*
X36061660Y42337500D03*
X36561660Y42337500D03*
X37061660Y42337500D03*
X37561660Y42337500D03*
X38061660Y42337500D03*
X38561660Y42337500D03*
X39061660Y42337500D03*
X39561660Y42337500D03*
X40061660Y42337500D03*
X40561660Y42337500D03*
X41061660Y42337500D03*
X41561660Y42337500D03*
X42061660Y42337500D03*
X42561660Y42337500D03*
X43061660Y42337500D03*
X43561660Y42337500D03*
X44061660Y42337500D03*
X44561660Y42337500D03*
X45061660Y42337500D03*
X45561660Y42337500D03*
D26*
X47474160Y44250000D03*
X47474160Y44750000D03*
X47474160Y45250000D03*
X47474160Y45750000D03*
X47474160Y46250000D03*
X47474160Y46750000D03*
X47474160Y47250000D03*
X47474160Y47750000D03*
X47474160Y48250000D03*
X47474160Y48750000D03*
X47474160Y49250000D03*
X47474160Y49750000D03*
X47474160Y50250000D03*
X47474160Y50750000D03*
X47474160Y51250000D03*
X47474160Y51750000D03*
X47474160Y52250000D03*
X47474160Y52750000D03*
X47474160Y53250000D03*
X47474160Y53750000D03*
X47474160Y54250000D03*
X47474160Y54750000D03*
X47474160Y55250000D03*
X47474160Y55750000D03*
X47474160Y56250000D03*
X47474160Y56750000D03*
X47474160Y57250000D03*
X47474160Y57750000D03*
X47474160Y58250000D03*
X47474160Y58750000D03*
X47474160Y59250000D03*
X47474160Y59750000D03*
X47474160Y60250000D03*
X47474160Y60750000D03*
X47474160Y61250000D03*
X47474160Y61750000D03*
D27*
X45561660Y63662500D03*
X45061660Y63662500D03*
X44561660Y63662500D03*
X44061660Y63662500D03*
X43561660Y63662500D03*
X43061660Y63662500D03*
X42561660Y63662500D03*
X42061660Y63662500D03*
X41561660Y63662500D03*
X41061660Y63662500D03*
X40561660Y63662500D03*
X40061660Y63662500D03*
X39561660Y63662500D03*
X39061660Y63662500D03*
X38561660Y63662500D03*
X38061660Y63662500D03*
X37561660Y63662500D03*
X37061660Y63662500D03*
X36561660Y63662500D03*
X36061660Y63662500D03*
X35561660Y63662500D03*
X35061660Y63662500D03*
X34561660Y63662500D03*
X34061660Y63662500D03*
X33561660Y63662500D03*
X33061660Y63662500D03*
X32561660Y63662500D03*
X32061660Y63662500D03*
X31561660Y63662500D03*
X31061660Y63662500D03*
X30561660Y63662500D03*
X30061660Y63662500D03*
X29561660Y63662500D03*
X29061660Y63662500D03*
X28561660Y63662500D03*
X28061660Y63662500D03*
%TD*%
D36*
%TO.C,C13*%
X73319160Y14250000D03*
X72629160Y14250000D03*
%TD*%
D21*
%TO.C,R2*%
X49964160Y50250000D03*
X50984160Y50250000D03*
%TD*%
D37*
%TO.C,L2*%
X89624660Y5750000D03*
X94323660Y5750000D03*
%TD*%
D20*
%TO.C,C30*%
X80994160Y6750000D03*
X81954160Y6750000D03*
%TD*%
D11*
%TO.C,C49*%
X77129160Y5250000D03*
X77819160Y5250000D03*
%TD*%
D38*
%TO.C,C28*%
X24924160Y23750000D03*
X23024160Y23750000D03*
%TD*%
D33*
%TO.C,U13*%
X41624159Y17651700D03*
X40324161Y17651700D03*
X40974160Y15848300D03*
%TD*%
D12*
%TO.C,C11*%
X95954160Y14750000D03*
X94994160Y14750000D03*
%TD*%
D20*
%TO.C,C25*%
X71994160Y10750000D03*
X72954160Y10750000D03*
%TD*%
D11*
%TO.C,C34*%
X57629160Y35250000D03*
X58319160Y35250000D03*
%TD*%
D22*
%TO.C,C40*%
X25994160Y33475000D03*
X25994160Y35025000D03*
%TD*%
D13*
%TO.C,C45*%
X37199160Y28740000D03*
X38749160Y28740000D03*
%TD*%
D39*
%TO.C,U18*%
X13336660Y26200000D03*
X13336660Y25250000D03*
X13336660Y24300000D03*
X15611660Y24300000D03*
X15611660Y25250000D03*
X15611660Y26200000D03*
%TD*%
D11*
%TO.C,C15*%
X73474160Y34340000D03*
X74164160Y34340000D03*
%TD*%
D40*
%TO.C,U15*%
X86505760Y60984999D03*
X86505760Y59685001D03*
X88309160Y60335000D03*
%TD*%
D18*
%TO.C,R3*%
X95474160Y13260000D03*
X95474160Y12240000D03*
%TD*%
D41*
%TO.C,J12*%
X6149160Y58550000D03*
X6149160Y57900000D03*
X6149160Y57250000D03*
X6149160Y56600000D03*
X6149160Y55950000D03*
D42*
X3474160Y61200000D03*
X3474160Y58450000D03*
X3474160Y56050000D03*
X3474160Y53300000D03*
%TD*%
D21*
%TO.C,R10*%
X5464160Y63750000D03*
X6484160Y63750000D03*
%TD*%
D43*
%TO.C,L3*%
X90302560Y29250000D03*
X82645760Y29250000D03*
%TD*%
D13*
%TO.C,C41*%
X20199160Y20750000D03*
X21749160Y20750000D03*
%TD*%
D21*
%TO.C,R11*%
X21439160Y47950000D03*
X22459160Y47950000D03*
%TD*%
D34*
%TO.C,L4*%
X65974160Y11912500D03*
X65974160Y9587500D03*
%TD*%
D20*
%TO.C,C1*%
X69954160Y3750000D03*
X68994160Y3750000D03*
%TD*%
D33*
%TO.C,U14*%
X50624159Y15151700D03*
X49324161Y15151700D03*
X49974160Y13348300D03*
%TD*%
D12*
%TO.C,C10*%
X86954160Y11250000D03*
X85994160Y11250000D03*
%TD*%
%TO.C,C14*%
X73934160Y16250000D03*
X72974160Y16250000D03*
%TD*%
D24*
%TO.C,C16*%
X73974160Y7095000D03*
X73974160Y6405000D03*
%TD*%
D33*
%TO.C,U9*%
X21624159Y15151700D03*
X20324161Y15151700D03*
X20974160Y13348300D03*
%TD*%
D35*
%TO.C,C3*%
X13024160Y21250000D03*
X14924160Y21250000D03*
%TD*%
D17*
%TO.C,C38*%
X17994160Y25730000D03*
X17994160Y24770000D03*
%TD*%
D11*
%TO.C,C50*%
X57784160Y46250000D03*
X58474160Y46250000D03*
%TD*%
%TO.C,C20*%
X81629160Y4250000D03*
X82319160Y4250000D03*
%TD*%
D36*
%TO.C,C17*%
X76819160Y3750000D03*
X76129160Y3750000D03*
%TD*%
D13*
%TO.C,C44*%
X37199160Y31250000D03*
X38749160Y31250000D03*
%TD*%
D20*
%TO.C,C27*%
X50494160Y36250000D03*
X51454160Y36250000D03*
%TD*%
D35*
%TO.C,C37*%
X12524160Y34750000D03*
X14424160Y34750000D03*
%TD*%
D11*
%TO.C,C47*%
X78629160Y4250000D03*
X79319160Y4250000D03*
%TD*%
D44*
%TO.C,C29*%
X29974160Y33790000D03*
X29974160Y34750000D03*
%TD*%
D45*
%TO.C,U3*%
X53711660Y58500000D03*
X53711660Y58000000D03*
X53711660Y57500000D03*
X53711660Y57000000D03*
D46*
X54224160Y56987500D03*
X54724160Y56987500D03*
D45*
X55236660Y57000000D03*
X55236660Y57500000D03*
X55236660Y58000000D03*
X55236660Y58500000D03*
D46*
X54724160Y58512500D03*
X54224160Y58512500D03*
%TD*%
D23*
%TO.C,L1*%
X12636660Y30750000D03*
X17311660Y30750000D03*
%TD*%
D11*
%TO.C,C21*%
X82129160Y12750000D03*
X82819160Y12750000D03*
%TD*%
%TO.C,C31*%
X57629160Y44250000D03*
X58319160Y44250000D03*
%TD*%
D33*
%TO.C,U12*%
X29624159Y17151700D03*
X28324161Y17151700D03*
X28974160Y15348300D03*
%TD*%
D22*
%TO.C,C7*%
X20974160Y33475000D03*
X20974160Y35025000D03*
%TD*%
D36*
%TO.C,C18*%
X75474160Y5750000D03*
X74784160Y5750000D03*
%TD*%
D11*
%TO.C,C51*%
X68879160Y13250000D03*
X69569160Y13250000D03*
%TD*%
D47*
%TO.C,X1*%
X67424160Y5925000D03*
X69524160Y5925000D03*
X69524160Y7575000D03*
X67424160Y7575000D03*
%TD*%
D20*
%TO.C,C35*%
X50494160Y33750000D03*
X51454160Y33750000D03*
%TD*%
D11*
%TO.C,C48*%
X78629160Y2250000D03*
X79319160Y2250000D03*
%TD*%
D18*
%TO.C,R8*%
X57474160Y55410000D03*
X57474160Y54390000D03*
%TD*%
D41*
%TO.C,J2*%
X6149160Y46550000D03*
X6149160Y45900000D03*
X6149160Y45250000D03*
X6149160Y44600000D03*
X6149160Y43950000D03*
D42*
X3474160Y49200000D03*
X3474160Y46450000D03*
X3474160Y44050000D03*
X3474160Y41300000D03*
%TD*%
D11*
%TO.C,C33*%
X57629160Y38750000D03*
X58319160Y38750000D03*
%TD*%
D33*
%TO.C,U17*%
X12324161Y61946600D03*
X13624159Y61946600D03*
X12974160Y63750000D03*
%TD*%
D44*
%TO.C,C9*%
X91974160Y13270000D03*
X91974160Y14230000D03*
%TD*%
D45*
%TO.C,U5*%
X42211660Y36000000D03*
X42211660Y35500000D03*
X42211660Y35000000D03*
X42211660Y34500000D03*
D46*
X42724160Y34487500D03*
X43224160Y34487500D03*
D45*
X43736660Y34500000D03*
X43736660Y35000000D03*
X43736660Y35500000D03*
X43736660Y36000000D03*
D46*
X43224160Y36012500D03*
X42724160Y36012500D03*
%TD*%
D21*
%TO.C,R6*%
X8964160Y52750000D03*
X9984160Y52750000D03*
%TD*%
D39*
%TO.C,U8*%
X12336660Y38700000D03*
X12336660Y37750000D03*
X12336660Y36800000D03*
X14611660Y36800000D03*
X14611660Y37750000D03*
X14611660Y38700000D03*
%TD*%
D48*
%TO.C,FL1*%
X83974160Y10660000D03*
D49*
X83474160Y10660000D03*
X82974160Y10660000D03*
X82974160Y9840000D03*
X83474160Y9840000D03*
X83974160Y9840000D03*
%TD*%
D50*
%TO.C,U10*%
X88881960Y11910400D03*
X88881960Y11250000D03*
X88881960Y10589600D03*
X91066360Y10589600D03*
X91066360Y11250000D03*
X91066360Y11910400D03*
%TD*%
M02*
