%TF.GenerationSoftware,KiCad,Pcbnew,8.0.4*%
%TF.CreationDate,2025-02-19T16:48:10+05:30*%
%TF.ProjectId,test1,74657374-312e-46b6-9963-61645f706362,rev?*%
%TF.SameCoordinates,Original*%
%TF.FileFunction,Copper,L1,Top*%
%TF.FilePolarity,Positive*%
%FSLAX46Y46*%
G04 Gerber Fmt 4.6, Leading zero omitted, Abs format (unit mm)*
G04 Created by KiCad (PCBNEW 8.0.4) date 2025-02-19 16:48:10*
%MOMM*%
%LPD*%
G01*
G04 APERTURE LIST*
G04 Aperture macros list*
%AMRoundRect*
0 Rectangle with rounded corners*
0 $1 Rounding radius*
0 $2 $3 $4 $5 $6 $7 $8 $9 X,Y pos of 4 corners*
0 Add a 4 corners polygon primitive as box body*
4,1,4,$2,$3,$4,$5,$6,$7,$8,$9,$2,$3,0*
0 Add four circle primitives for the rounded corners*
1,1,$1+$1,$2,$3*
1,1,$1+$1,$4,$5*
1,1,$1+$1,$6,$7*
1,1,$1+$1,$8,$9*
0 Add four rect primitives between the rounded corners*
20,1,$1+$1,$2,$3,$4,$5,0*
20,1,$1+$1,$4,$5,$6,$7,0*
20,1,$1+$1,$6,$7,$8,$9,0*
20,1,$1+$1,$8,$9,$2,$3,0*%
G04 Aperture macros list end*
%TA.AperFunction,SMDPad,CuDef*%
%ADD10RoundRect,0.100000X-0.130000X-0.100000X0.130000X-0.100000X0.130000X0.100000X-0.130000X0.100000X0*%
%TD*%
%TA.AperFunction,SMDPad,CuDef*%
%ADD11RoundRect,0.140000X0.140000X0.170000X-0.140000X0.170000X-0.140000X-0.170000X0.140000X-0.170000X0*%
%TD*%
%TA.AperFunction,SMDPad,CuDef*%
%ADD12RoundRect,0.225000X-0.225000X-0.250000X0.225000X-0.250000X0.225000X0.250000X-0.225000X0.250000X0*%
%TD*%
%TA.AperFunction,ComponentPad*%
%ADD13RoundRect,0.250000X-0.350000X-0.350000X0.350000X-0.350000X0.350000X0.350000X-0.350000X0.350000X0*%
%TD*%
%TA.AperFunction,ComponentPad*%
%ADD14C,1.200000*%
%TD*%
%TA.AperFunction,SMDPad,CuDef*%
%ADD15RoundRect,0.062500X-0.350000X-0.062500X0.350000X-0.062500X0.350000X0.062500X-0.350000X0.062500X0*%
%TD*%
%TA.AperFunction,SMDPad,CuDef*%
%ADD16RoundRect,0.062500X-0.062500X-0.350000X0.062500X-0.350000X0.062500X0.350000X-0.062500X0.350000X0*%
%TD*%
%TA.AperFunction,HeatsinkPad*%
%ADD17C,0.500000*%
%TD*%
%TA.AperFunction,HeatsinkPad*%
%ADD18R,2.600000X2.600000*%
%TD*%
%TA.AperFunction,SMDPad,CuDef*%
%ADD19RoundRect,0.140000X-0.170000X0.140000X-0.170000X-0.140000X0.170000X-0.140000X0.170000X0.140000X0*%
%TD*%
%TA.AperFunction,SMDPad,CuDef*%
%ADD20RoundRect,0.135000X-0.185000X0.135000X-0.185000X-0.135000X0.185000X-0.135000X0.185000X0.135000X0*%
%TD*%
%TA.AperFunction,HeatsinkPad*%
%ADD21R,2.700000X2.700000*%
%TD*%
%TA.AperFunction,SMDPad,CuDef*%
%ADD22RoundRect,0.140000X-0.140000X-0.170000X0.140000X-0.170000X0.140000X0.170000X-0.140000X0.170000X0*%
%TD*%
%TA.AperFunction,SMDPad,CuDef*%
%ADD23RoundRect,0.135000X-0.135000X-0.185000X0.135000X-0.185000X0.135000X0.185000X-0.135000X0.185000X0*%
%TD*%
%TA.AperFunction,ComponentPad*%
%ADD24C,2.400000*%
%TD*%
%TA.AperFunction,SMDPad,CuDef*%
%ADD25RoundRect,0.225000X0.250000X-0.225000X0.250000X0.225000X-0.250000X0.225000X-0.250000X-0.225000X0*%
%TD*%
%TA.AperFunction,ComponentPad*%
%ADD26C,2.050000*%
%TD*%
%TA.AperFunction,ComponentPad*%
%ADD27C,2.250000*%
%TD*%
%TA.AperFunction,SMDPad,CuDef*%
%ADD28RoundRect,0.249999X-0.512501X-1.075001X0.512501X-1.075001X0.512501X1.075001X-0.512501X1.075001X0*%
%TD*%
%TA.AperFunction,SMDPad,CuDef*%
%ADD29RoundRect,0.100000X-0.100000X0.130000X-0.100000X-0.130000X0.100000X-0.130000X0.100000X0.130000X0*%
%TD*%
%TA.AperFunction,SMDPad,CuDef*%
%ADD30RoundRect,0.075000X-0.662500X-0.075000X0.662500X-0.075000X0.662500X0.075000X-0.662500X0.075000X0*%
%TD*%
%TA.AperFunction,SMDPad,CuDef*%
%ADD31RoundRect,0.075000X-0.075000X-0.662500X0.075000X-0.662500X0.075000X0.662500X-0.075000X0.662500X0*%
%TD*%
%TA.AperFunction,HeatsinkPad*%
%ADD32R,6.500000X6.500000*%
%TD*%
%TA.AperFunction,SMDPad,CuDef*%
%ADD33RoundRect,0.135000X0.135000X0.185000X-0.135000X0.185000X-0.135000X-0.185000X0.135000X-0.185000X0*%
%TD*%
%TA.AperFunction,SMDPad,CuDef*%
%ADD34RoundRect,0.087500X-0.225000X-0.087500X0.225000X-0.087500X0.225000X0.087500X-0.225000X0.087500X0*%
%TD*%
%TA.AperFunction,SMDPad,CuDef*%
%ADD35RoundRect,0.087500X-0.087500X-0.225000X0.087500X-0.225000X0.087500X0.225000X-0.087500X0.225000X0*%
%TD*%
%TA.AperFunction,SMDPad,CuDef*%
%ADD36R,0.914400X0.431800*%
%TD*%
%TA.AperFunction,SMDPad,CuDef*%
%ADD37R,3.505200X4.394200*%
%TD*%
%TA.AperFunction,SMDPad,CuDef*%
%ADD38R,0.457200X1.117600*%
%TD*%
%TA.AperFunction,SMDPad,CuDef*%
%ADD39RoundRect,0.250001X-0.849999X0.462499X-0.849999X-0.462499X0.849999X-0.462499X0.849999X0.462499X0*%
%TD*%
%TA.AperFunction,SMDPad,CuDef*%
%ADD40RoundRect,0.250000X-0.250000X-0.475000X0.250000X-0.475000X0.250000X0.475000X-0.250000X0.475000X0*%
%TD*%
%TA.AperFunction,SMDPad,CuDef*%
%ADD41RoundRect,0.100000X0.130000X0.100000X-0.130000X0.100000X-0.130000X-0.100000X0.130000X-0.100000X0*%
%TD*%
%TA.AperFunction,SMDPad,CuDef*%
%ADD42R,1.600200X5.689600*%
%TD*%
%TA.AperFunction,ComponentPad*%
%ADD43R,1.700000X1.700000*%
%TD*%
%TA.AperFunction,ComponentPad*%
%ADD44O,1.700000X1.700000*%
%TD*%
%TA.AperFunction,SMDPad,CuDef*%
%ADD45RoundRect,0.250000X0.250000X0.475000X-0.250000X0.475000X-0.250000X-0.475000X0.250000X-0.475000X0*%
%TD*%
%TA.AperFunction,SMDPad,CuDef*%
%ADD46RoundRect,0.150000X-0.512500X-0.150000X0.512500X-0.150000X0.512500X0.150000X-0.512500X0.150000X0*%
%TD*%
%TA.AperFunction,SMDPad,CuDef*%
%ADD47R,1.117600X0.457200*%
%TD*%
%TA.AperFunction,SMDPad,CuDef*%
%ADD48R,1.350000X0.400000*%
%TD*%
%TA.AperFunction,SMDPad,CuDef*%
%ADD49R,1.900000X1.900000*%
%TD*%
%TA.AperFunction,SMDPad,CuDef*%
%ADD50R,2.743200X2.387600*%
%TD*%
%TA.AperFunction,SMDPad,CuDef*%
%ADD51RoundRect,0.140000X0.170000X-0.140000X0.170000X0.140000X-0.170000X0.140000X-0.170000X-0.140000X0*%
%TD*%
%TA.AperFunction,SMDPad,CuDef*%
%ADD52R,0.375000X0.350000*%
%TD*%
%TA.AperFunction,SMDPad,CuDef*%
%ADD53R,0.350000X0.375000*%
%TD*%
%TA.AperFunction,SMDPad,CuDef*%
%ADD54R,1.300000X1.100000*%
%TD*%
%TA.AperFunction,ComponentPad*%
%ADD55RoundRect,0.250000X-0.350000X0.350000X-0.350000X-0.350000X0.350000X-0.350000X0.350000X0.350000X0*%
%TD*%
%TA.AperFunction,SMDPad,CuDef*%
%ADD56RoundRect,0.062500X0.062500X-0.162500X0.062500X0.162500X-0.062500X0.162500X-0.062500X-0.162500X0*%
%TD*%
%TA.AperFunction,SMDPad,CuDef*%
%ADD57RoundRect,0.062500X-0.062500X0.162500X-0.062500X-0.162500X0.062500X-0.162500X0.062500X0.162500X0*%
%TD*%
%TA.AperFunction,SMDPad,CuDef*%
%ADD58R,0.838200X0.355600*%
%TD*%
%TA.AperFunction,ViaPad*%
%ADD59C,1.000000*%
%TD*%
%TA.AperFunction,ViaPad*%
%ADD60C,1.200000*%
%TD*%
%TA.AperFunction,ViaPad*%
%ADD61C,0.600000*%
%TD*%
%TA.AperFunction,ViaPad*%
%ADD62C,0.800000*%
%TD*%
%TA.AperFunction,Conductor*%
%ADD63C,0.200000*%
%TD*%
%TA.AperFunction,Conductor*%
%ADD64C,0.500000*%
%TD*%
%TA.AperFunction,Conductor*%
%ADD65C,0.400000*%
%TD*%
%TA.AperFunction,Conductor*%
%ADD66C,1.000000*%
%TD*%
%TA.AperFunction,Conductor*%
%ADD67C,0.600000*%
%TD*%
%TA.AperFunction,Conductor*%
%ADD68C,0.800000*%
%TD*%
G04 APERTURE END LIST*
D10*
%TO.P,C32,1*%
%TO.N,Net-(U1-P2_5)*%
X58179160Y41525000D03*
%TO.P,C32,2*%
%TO.N,Earth*%
X58819160Y41525000D03*
%TD*%
%TO.P,C19,1*%
%TO.N,Net-(U6-VR_RF)*%
X83154160Y2250000D03*
%TO.P,C19,2*%
%TO.N,Earth*%
X83794160Y2250000D03*
%TD*%
D11*
%TO.P,C12,1*%
%TO.N,Earth*%
X73934160Y19750000D03*
%TO.P,C12,2*%
%TO.N,+3.3V*%
X72974160Y19750000D03*
%TD*%
D12*
%TO.P,C46,1*%
%TO.N,+3.3V*%
X37199160Y26230000D03*
%TO.P,C46,2*%
%TO.N,Earth*%
X38749160Y26230000D03*
%TD*%
D13*
%TO.P,J18,1,Pin_1*%
%TO.N,+3.3V*%
X22024160Y69675000D03*
D14*
%TO.P,J18,2,Pin_2*%
X22024160Y67675000D03*
%TO.P,J18,3,Pin_3*%
X24024160Y69675000D03*
%TO.P,J18,4,Pin_4*%
X24024160Y67675000D03*
%TO.P,J18,5,Pin_5*%
%TO.N,Earth*%
X26024160Y69675000D03*
%TO.P,J18,6,Pin_6*%
X26024160Y67675000D03*
%TO.P,J18,7,Pin_7*%
X28024160Y69675000D03*
%TO.P,J18,8,Pin_8*%
%TO.N,Net-(J18-Pin_8)*%
X28024160Y67675000D03*
%TO.P,J18,9,Pin_9*%
%TO.N,Net-(J18-Pin_9)*%
X30024160Y69675000D03*
%TO.P,J18,10,Pin_10*%
%TO.N,Net-(J18-Pin_10)*%
X30024160Y67675000D03*
%TO.P,J18,11,Pin_11*%
%TO.N,Net-(J18-Pin_11)*%
X32024160Y69675000D03*
%TO.P,J18,12,Pin_12*%
%TO.N,Net-(J18-Pin_12)*%
X32024160Y67675000D03*
%TO.P,J18,13,Pin_13*%
%TO.N,Net-(J18-Pin_13)*%
X34024160Y69675000D03*
%TO.P,J18,14,Pin_14*%
%TO.N,Net-(J18-Pin_14)*%
X34024160Y67675000D03*
%TD*%
D15*
%TO.P,U16,1,SCB_0/GPIO_6*%
%TO.N,+3.3V*%
X54536660Y50450000D03*
%TO.P,U16,2,SCB_5/GPIO_7*%
%TO.N,/INT16*%
X54536660Y49950000D03*
%TO.P,U16,3,VSSD*%
%TO.N,Earth*%
X54536660Y49450000D03*
%TO.P,U16,4,GPIO_8*%
%TO.N,/INT17*%
X54536660Y48950000D03*
%TO.P,U16,5,GPIO_9*%
%TO.N,/INT18*%
X54536660Y48450000D03*
%TO.P,U16,6,GPIO_10*%
%TO.N,/INT19*%
X54536660Y47950000D03*
D16*
%TO.P,U16,7,GPIO_11*%
%TO.N,/INT20*%
X55224160Y47262500D03*
%TO.P,U16,8,SUSPEND*%
%TO.N,unconnected-(U16-SUSPEND-Pad8)*%
X55724160Y47262500D03*
%TO.P,U16,9,WAKEUP*%
%TO.N,unconnected-(U16-WAKEUP-Pad9)*%
X56224160Y47262500D03*
%TO.P,U16,10,USBDP*%
%TO.N,/USB10*%
X56724160Y47262500D03*
%TO.P,U16,11,USBDM*%
%TO.N,/USB11*%
X57224160Y47262500D03*
%TO.P,U16,12,VCCD*%
%TO.N,Net-(U16-VCCD)*%
X57724160Y47262500D03*
D15*
%TO.P,U16,13,VSSD*%
%TO.N,Earth*%
X58411660Y47950000D03*
%TO.P,U16,14,~{XRES}*%
%TO.N,unconnected-(U16-~{XRES}-Pad14)*%
X58411660Y48450000D03*
%TO.P,U16,15,VBUS*%
%TO.N,Net-(U1-P2_5)*%
X58411660Y48950000D03*
%TO.P,U16,16,VSSD*%
%TO.N,Earth*%
X58411660Y49450000D03*
%TO.P,U16,17,VSSA*%
X58411660Y49950000D03*
%TO.P,U16,18,GPIO_0*%
%TO.N,/INT12*%
X58411660Y50450000D03*
D16*
%TO.P,U16,19,GPIO_1*%
%TO.N,/INT13*%
X57724160Y51137500D03*
%TO.P,U16,20,SCB_1/GPIO_2*%
%TO.N,/INT14*%
X57224160Y51137500D03*
%TO.P,U16,21,SCB_2/GPIO_3*%
%TO.N,/SPI0*%
X56724160Y51137500D03*
%TO.P,U16,22,SCB_3/GPIO_4*%
%TO.N,/SPI1*%
X56224160Y51137500D03*
%TO.P,U16,23,SCB_4/GPIO_5*%
%TO.N,/SPI2*%
X55724160Y51137500D03*
%TO.P,U16,24,VDDD*%
%TO.N,+3.3V*%
X55224160Y51137500D03*
D17*
%TO.P,U16,25,GND*%
%TO.N,Earth*%
X55424160Y50250000D03*
X55424160Y49200000D03*
X55424160Y48150000D03*
X56474160Y50250000D03*
X56474160Y49200000D03*
D18*
X56474160Y49200000D03*
D17*
X56474160Y48150000D03*
X57524160Y50250000D03*
X57524160Y49200000D03*
X57524160Y48150000D03*
%TD*%
D19*
%TO.P,C6,1*%
%TO.N,Net-(U8-BST)*%
X18974160Y38730000D03*
%TO.P,C6,2*%
%TO.N,Net-(U8-SW)*%
X18974160Y37770000D03*
%TD*%
D20*
%TO.P,R5,1*%
%TO.N,Net-(U1-USB0_VBUS)*%
X22474160Y50270000D03*
%TO.P,R5,2*%
%TO.N,Earth*%
X22474160Y49250000D03*
%TD*%
D15*
%TO.P,U6,1,VDD_SMPS*%
%TO.N,+3.3V*%
X75186660Y11825000D03*
%TO.P,U6,2,SMPS1*%
%TO.N,Net-(U6-SMPS1)*%
X75186660Y11325000D03*
%TO.P,U6,3,SMPS2*%
%TO.N,Net-(U6-SMPS2)*%
X75186660Y10825000D03*
%TO.P,U6,4,XOUT*%
%TO.N,Net-(U6-XOUT)*%
X75186660Y10325000D03*
%TO.P,U6,5,XIN*%
%TO.N,Net-(U6-XIN)*%
X75186660Y9825000D03*
%TO.P,U6,6,SDN*%
%TO.N,/INT21*%
X75186660Y9325000D03*
D16*
%TO.P,U6,7,VDD_ANA/SYNTH*%
%TO.N,+3.3V*%
X75899160Y8612500D03*
%TO.P,U6,8,VR_SYNTH*%
%TO.N,Net-(U6-VR_SYNTH)*%
X76399160Y8612500D03*
%TO.P,U6,9,VREFVCO*%
%TO.N,Net-(U6-VREFVCO)*%
X76899160Y8612500D03*
%TO.P,U6,10,VDDVCOTX*%
%TO.N,+3.3V*%
X77399160Y8612500D03*
%TO.P,U6,11,TX*%
%TO.N,/TRANSCEIVER-TX*%
X77899160Y8612500D03*
%TO.P,U6,12,VR_RF*%
%TO.N,Net-(U6-VR_RF)*%
X78399160Y8612500D03*
D15*
%TO.P,U6,13,RX-*%
%TO.N,/TXRX-*%
X79111660Y9325000D03*
%TO.P,U6,14,RX+*%
%TO.N,/TXRX+*%
X79111660Y9825000D03*
%TO.P,U6,15,VDD_DIG/RX*%
%TO.N,Net-(U6-VDD_DIG{slash}RX)*%
X79111660Y10325000D03*
%TO.P,U6,16,SDO*%
%TO.N,/SPI0*%
X79111660Y10825000D03*
%TO.P,U6,17,SDI*%
%TO.N,/SPI1*%
X79111660Y11325000D03*
%TO.P,U6,18,SCLK*%
%TO.N,/SPI2*%
X79111660Y11825000D03*
D16*
%TO.P,U6,19,CSn*%
%TO.N,/CS4*%
X78399160Y12537500D03*
%TO.P,U6,20,GPIO_0*%
%TO.N,/INT5*%
X77899160Y12537500D03*
%TO.P,U6,21,GPIO_1*%
%TO.N,/INT3*%
X77399160Y12537500D03*
%TO.P,U6,22,GPIO_2*%
%TO.N,/INT4*%
X76899160Y12537500D03*
%TO.P,U6,23,GPIO_3*%
%TO.N,unconnected-(U6-GPIO_3-Pad23)*%
X76399160Y12537500D03*
%TO.P,U6,24,VR_DIG*%
%TO.N,+3.3V*%
X75899160Y12537500D03*
D17*
%TO.P,U6,25,GND*%
%TO.N,Earth*%
X76049160Y11675000D03*
X76049160Y10575000D03*
X76049160Y9475000D03*
X77149160Y11675000D03*
X77149160Y10575000D03*
D21*
X77149160Y10575000D03*
D17*
X77149160Y9475000D03*
X78249160Y11675000D03*
X78249160Y10575000D03*
X78249160Y9475000D03*
%TD*%
D22*
%TO.P,C43,1*%
%TO.N,Net-(U1-P2_5)*%
X50494160Y38750000D03*
%TO.P,C43,2*%
%TO.N,Earth*%
X51454160Y38750000D03*
%TD*%
D23*
%TO.P,R4,1*%
%TO.N,+3.3V*%
X87964160Y14250000D03*
%TO.P,R4,2*%
%TO.N,Net-(U10-BIAS)*%
X88984160Y14250000D03*
%TD*%
D10*
%TO.P,C36,1*%
%TO.N,Net-(U1-P2_5)*%
X49199160Y53250000D03*
%TO.P,C36,2*%
%TO.N,Earth*%
X49839160Y53250000D03*
%TD*%
D24*
%TO.P,J17,1*%
%TO.N,Vdrive*%
X92474160Y52210000D03*
%TO.P,J17,2*%
%TO.N,Earth*%
X92474160Y57290000D03*
%TD*%
D25*
%TO.P,C39,1*%
%TO.N,+3.3V*%
X23484160Y33475000D03*
%TO.P,C39,2*%
%TO.N,Earth*%
X23484160Y35025000D03*
%TD*%
D26*
%TO.P,J1,1,In*%
%TO.N,/RF-PA-OUT-2*%
X91974160Y19750000D03*
D27*
%TO.P,J1,2,Ext*%
%TO.N,Earth*%
X89434160Y22290000D03*
X89434160Y17210000D03*
X94514160Y22290000D03*
X94514160Y17210000D03*
%TD*%
D24*
%TO.P,J10,1*%
%TO.N,+BATT*%
X8474160Y35330000D03*
%TO.P,J10,2*%
%TO.N,Earth*%
X8474160Y30250000D03*
%TD*%
D28*
%TO.P,L6,1*%
%TO.N,+3.3V*%
X13136660Y17750000D03*
%TO.P,L6,2*%
%TO.N,Net-(U18-SW)*%
X17811660Y17750000D03*
%TD*%
D24*
%TO.P,J3,1*%
%TO.N,Net-(U9-S)*%
X14909160Y9085000D03*
%TO.P,J3,2*%
%TO.N,Vdrive*%
X19989160Y9085000D03*
%TD*%
D10*
%TO.P,C22,1*%
%TO.N,Net-(U6-VDD_DIG{slash}RX)*%
X85654160Y14250000D03*
%TO.P,C22,2*%
%TO.N,Earth*%
X86294160Y14250000D03*
%TD*%
D22*
%TO.P,C2,1*%
%TO.N,Net-(U6-XOUT)*%
X72514160Y8250000D03*
%TO.P,C2,2*%
%TO.N,Earth*%
X73474160Y8250000D03*
%TD*%
D24*
%TO.P,J7,1*%
%TO.N,Net-(U14-S)*%
X50489160Y9085000D03*
%TO.P,J7,2*%
%TO.N,Vdrive*%
X55569160Y9085000D03*
%TD*%
D12*
%TO.P,C42,1*%
%TO.N,+3.3V*%
X20199160Y18240000D03*
%TO.P,C42,2*%
%TO.N,Earth*%
X21749160Y18240000D03*
%TD*%
D29*
%TO.P,C26,1*%
%TO.N,Earth*%
X69774160Y10370000D03*
%TO.P,C26,2*%
%TO.N,Net-(U6-SMPS2)*%
X69774160Y9730000D03*
%TD*%
D23*
%TO.P,R7,1*%
%TO.N,Net-(J2-VCC)*%
X8964160Y50760000D03*
%TO.P,R7,2*%
%TO.N,Net-(U1-USB0_VBUS)*%
X9984160Y50760000D03*
%TD*%
D10*
%TO.P,C23,1*%
%TO.N,+3.3V*%
X75654160Y15250000D03*
%TO.P,C23,2*%
%TO.N,Earth*%
X76294160Y15250000D03*
%TD*%
D30*
%TO.P,U1,1,P4_0*%
%TO.N,/INT0*%
X61811660Y56500000D03*
%TO.P,U1,2,ADC0_1/ADC1_1*%
%TO.N,unconnected-(U1-ADC0_1{slash}ADC1_1-Pad2)*%
X61811660Y56000000D03*
%TO.P,U1,3,P4_1*%
%TO.N,/INT1*%
X61811660Y55500000D03*
%TO.P,U1,4,VSSIO_0*%
%TO.N,Earth*%
X61811660Y55000000D03*
%TO.P,U1,5,VDDIO_0*%
%TO.N,+3.3V*%
X61811660Y54500000D03*
%TO.P,U1,6,ADC0_0/ADC1_0/DAC*%
%TO.N,unconnected-(U1-ADC0_0{slash}ADC1_0{slash}DAC-Pad6)*%
X61811660Y54000000D03*
%TO.P,U1,7,P4_3*%
%TO.N,/INT3*%
X61811660Y53500000D03*
%TO.P,U1,8,P4_2*%
%TO.N,/INT2*%
X61811660Y53000000D03*
%TO.P,U1,9,P4_4*%
%TO.N,/INT4*%
X61811660Y52500000D03*
%TO.P,U1,10,P4_5*%
%TO.N,/INT5*%
X61811660Y52000000D03*
%TO.P,U1,11,P4_6*%
%TO.N,/INT6*%
X61811660Y51500000D03*
%TO.P,U1,12,XTAL1*%
%TO.N,unconnected-(U1-XTAL1-Pad12)*%
X61811660Y51000000D03*
%TO.P,U1,13,XTAL2*%
%TO.N,unconnected-(U1-XTAL2-Pad13)*%
X61811660Y50500000D03*
%TO.P,U1,14,P4_7*%
%TO.N,unconnected-(U1-P4_7-Pad14)*%
X61811660Y50000000D03*
%TO.P,U1,15,P4_8*%
%TO.N,unconnected-(U1-P4_8-Pad15)*%
X61811660Y49500000D03*
%TO.P,U1,16,USB0_VDDA3V3_DRIVER*%
%TO.N,+3.3V*%
X61811660Y49000000D03*
%TO.P,U1,17,USB0_VDDA3V3*%
X61811660Y48500000D03*
%TO.P,U1,18,USB0_DP*%
%TO.N,Net-(J12-D+)*%
X61811660Y48000000D03*
%TO.P,U1,19,USB0_VSSA_TERM*%
%TO.N,Earth*%
X61811660Y47500000D03*
%TO.P,U1,20,USB0_DM*%
%TO.N,Net-(J12-D-)*%
X61811660Y47000000D03*
%TO.P,U1,21,USB0_VBUS*%
%TO.N,Net-(U1-USB0_VBUS)*%
X61811660Y46500000D03*
%TO.P,U1,22,22*%
%TO.N,Earth*%
X61811660Y46000000D03*
%TO.P,U1,23,USB0_VSSA_REF*%
X61811660Y45500000D03*
%TO.P,U1,24,USB0_RREF*%
%TO.N,unconnected-(U1-USB0_RREF-Pad24)*%
X61811660Y45000000D03*
%TO.P,U1,25,VDDREG_0*%
%TO.N,+3.3V*%
X61811660Y44500000D03*
%TO.P,U1,26,TDI*%
%TO.N,Net-(J13-Pin_7)*%
X61811660Y44000000D03*
%TO.P,U1,27,TCK/SWDCLK*%
%TO.N,Net-(J13-Pin_3)*%
X61811660Y43500000D03*
%TO.P,U1,28,DBGEN*%
%TO.N,Net-(J13-Pin_2)*%
X61811660Y43000000D03*
%TO.P,U1,29,TRST*%
%TO.N,Net-(J13-Pin_4)*%
X61811660Y42500000D03*
%TO.P,U1,30,TMS/SWDIO*%
%TO.N,Net-(J13-Pin_5)*%
X61811660Y42000000D03*
%TO.P,U1,31,TDO/SWO*%
%TO.N,Net-(J13-Pin_6)*%
X61811660Y41500000D03*
%TO.P,U1,32,P0_0*%
%TO.N,/CS0*%
X61811660Y41000000D03*
%TO.P,U1,33,P4_9*%
%TO.N,unconnected-(U1-P4_9-Pad33)*%
X61811660Y40500000D03*
%TO.P,U1,34,P0_1*%
%TO.N,/CS1*%
X61811660Y40000000D03*
%TO.P,U1,35,P4_10*%
%TO.N,unconnected-(U1-P4_10-Pad35)*%
X61811660Y39500000D03*
%TO.P,U1,36,VDDIO_1*%
%TO.N,+3.3V*%
X61811660Y39000000D03*
D31*
%TO.P,U1,37,P5_0*%
%TO.N,/INT10*%
X63724160Y37087500D03*
%TO.P,U1,38,P1_0*%
%TO.N,/CS2*%
X64224160Y37087500D03*
%TO.P,U1,39,P5_1*%
%TO.N,/INT11*%
X64724160Y37087500D03*
%TO.P,U1,40,VSSIO_1*%
%TO.N,Earth*%
X65224160Y37087500D03*
%TO.P,U1,41,VDDIO_2*%
%TO.N,+3.3V*%
X65724160Y37087500D03*
%TO.P,U1,42,P1_1*%
%TO.N,/CS3*%
X66224160Y37087500D03*
%TO.P,U1,43,P1_2*%
%TO.N,/CS4*%
X66724160Y37087500D03*
%TO.P,U1,44,P1_3*%
%TO.N,/CS6*%
X67224160Y37087500D03*
%TO.P,U1,45,CLK0*%
%TO.N,unconnected-(U1-CLK0-Pad45)*%
X67724160Y37087500D03*
%TO.P,U1,46,P5_2*%
%TO.N,/INT12*%
X68224160Y37087500D03*
%TO.P,U1,47,P1_4*%
%TO.N,Net-(U1-P1_4)*%
X68724160Y37087500D03*
%TO.P,U1,48,P1_5*%
%TO.N,Net-(U1-P1_5)*%
X69224160Y37087500D03*
%TO.P,U1,49,P1_6*%
%TO.N,Net-(U1-P1_6)*%
X69724160Y37087500D03*
%TO.P,U1,50,P1_7*%
%TO.N,Net-(U1-P1_7)*%
X70224160Y37087500D03*
%TO.P,U1,51,P1_8*%
%TO.N,Net-(U1-P1_8)*%
X70724160Y37087500D03*
%TO.P,U1,52,P1_9*%
%TO.N,Net-(U1-P1_9)*%
X71224160Y37087500D03*
%TO.P,U1,53,P1_10*%
%TO.N,unconnected-(U1-P1_10-Pad53)*%
X71724160Y37087500D03*
%TO.P,U1,54,P5_3*%
%TO.N,/INT13*%
X72224160Y37087500D03*
%TO.P,U1,55,P1_11*%
%TO.N,unconnected-(U1-P1_11-Pad55)*%
X72724160Y37087500D03*
%TO.P,U1,56,P1_12*%
%TO.N,unconnected-(U1-P1_12-Pad56)*%
X73224160Y37087500D03*
%TO.P,U1,57,P5_4*%
%TO.N,/INT14*%
X73724160Y37087500D03*
%TO.P,U1,58,P5_5*%
%TO.N,+3.3V*%
X74224160Y37087500D03*
%TO.P,U1,59,VDDREG_1*%
X74724160Y37087500D03*
%TO.P,U1,60,P1_13*%
%TO.N,/UART01*%
X75224160Y37087500D03*
%TO.P,U1,61,P1_14*%
%TO.N,/UART00*%
X75724160Y37087500D03*
%TO.P,U1,62,P1_15*%
%TO.N,unconnected-(U1-P1_15-Pad62)*%
X76224160Y37087500D03*
%TO.P,U1,63,P5_6*%
%TO.N,/INT16*%
X76724160Y37087500D03*
%TO.P,U1,64,P1_16*%
%TO.N,unconnected-(U1-P1_16-Pad64)*%
X77224160Y37087500D03*
%TO.P,U1,65,P5_7*%
%TO.N,/INT17*%
X77724160Y37087500D03*
%TO.P,U1,66,P1_17*%
%TO.N,unconnected-(U1-P1_17-Pad66)*%
X78224160Y37087500D03*
%TO.P,U1,67,P1_18*%
%TO.N,unconnected-(U1-P1_18-Pad67)*%
X78724160Y37087500D03*
%TO.P,U1,68,P1_19*%
%TO.N,unconnected-(U1-P1_19-Pad68)*%
X79224160Y37087500D03*
%TO.P,U1,69,P9_5*%
%TO.N,/PYROCTRL4*%
X79724160Y37087500D03*
%TO.P,U1,70,P1_20*%
%TO.N,unconnected-(U1-P1_20-Pad70)*%
X80224160Y37087500D03*
%TO.P,U1,71,VDDIO_3*%
%TO.N,+3.3V*%
X80724160Y37087500D03*
%TO.P,U1,72,P9_6*%
%TO.N,/PYROCTRL3*%
X81224160Y37087500D03*
D30*
%TO.P,U1,73,P6_0*%
%TO.N,/INT7*%
X83136660Y39000000D03*
%TO.P,U1,74,P6_1*%
%TO.N,/INT8*%
X83136660Y39500000D03*
%TO.P,U1,75,P2_0*%
%TO.N,unconnected-(U1-P2_0-Pad75)*%
X83136660Y40000000D03*
%TO.P,U1,76,VSSIO_2*%
%TO.N,Earth*%
X83136660Y40500000D03*
%TO.P,U1,77,VDDIO_4*%
%TO.N,+3.3V*%
X83136660Y41000000D03*
%TO.P,U1,78,P6_2*%
%TO.N,/INT9*%
X83136660Y41500000D03*
%TO.P,U1,79,P6_3*%
%TO.N,/INT18*%
X83136660Y42000000D03*
%TO.P,U1,80,P6_4*%
%TO.N,/INT19*%
X83136660Y42500000D03*
%TO.P,U1,81,P2_1*%
%TO.N,unconnected-(U1-P2_1-Pad81)*%
X83136660Y43000000D03*
%TO.P,U1,82,P6_5*%
%TO.N,/INT20*%
X83136660Y43500000D03*
%TO.P,U1,83,P6_6*%
%TO.N,/INT21*%
X83136660Y44000000D03*
%TO.P,U1,84,P2_2*%
%TO.N,Net-(J18-Pin_14)*%
X83136660Y44500000D03*
%TO.P,U1,85,P6_7*%
%TO.N,unconnected-(U1-P6_7-Pad85)*%
X83136660Y45000000D03*
%TO.P,U1,86,P6_8*%
%TO.N,unconnected-(U1-P6_8-Pad86)*%
X83136660Y45500000D03*
%TO.P,U1,87,P2_3*%
%TO.N,Net-(J18-Pin_13)*%
X83136660Y46000000D03*
%TO.P,U1,88,P2_4*%
%TO.N,Net-(J18-Pin_12)*%
X83136660Y46500000D03*
%TO.P,U1,89,USB1_DP*%
%TO.N,/USB10*%
X83136660Y47000000D03*
%TO.P,U1,90,USB1_DM*%
%TO.N,/USB11*%
X83136660Y47500000D03*
%TO.P,U1,91,P2_5*%
%TO.N,Net-(U1-P2_5)*%
X83136660Y48000000D03*
%TO.P,U1,92,I2C0_SCL*%
%TO.N,/I2C0*%
X83136660Y48500000D03*
%TO.P,U1,93,I2C0_SDA*%
%TO.N,/I2C1*%
X83136660Y49000000D03*
%TO.P,U1,94,VDDREG_2*%
%TO.N,+3.3V*%
X83136660Y49500000D03*
%TO.P,U1,95,P2_6*%
%TO.N,Net-(J18-Pin_11)*%
X83136660Y50000000D03*
%TO.P,U1,96,P2_7*%
%TO.N,Net-(J18-Pin_10)*%
X83136660Y50500000D03*
%TO.P,U1,97,P6_9*%
%TO.N,Net-(J13-Pin_1)*%
X83136660Y51000000D03*
%TO.P,U1,98,P2_8*%
%TO.N,Net-(J18-Pin_9)*%
X83136660Y51500000D03*
%TO.P,U1,99,CLK2*%
%TO.N,unconnected-(U1-CLK2-Pad99)*%
X83136660Y52000000D03*
%TO.P,U1,100,P6_10*%
%TO.N,unconnected-(U1-P6_10-Pad100)*%
X83136660Y52500000D03*
%TO.P,U1,101,P6_11*%
%TO.N,unconnected-(U1-P6_11-Pad101)*%
X83136660Y53000000D03*
%TO.P,U1,102,P2_9*%
%TO.N,Net-(J18-Pin_8)*%
X83136660Y53500000D03*
%TO.P,U1,103,P6_12*%
%TO.N,unconnected-(U1-P6_12-Pad103)*%
X83136660Y54000000D03*
%TO.P,U1,104,P2_10*%
%TO.N,Net-(U1-P2_10)*%
X83136660Y54500000D03*
%TO.P,U1,105,P2_11*%
%TO.N,unconnected-(U1-P2_11-Pad105)*%
X83136660Y55000000D03*
%TO.P,U1,106,P2_12*%
%TO.N,unconnected-(U1-P2_12-Pad106)*%
X83136660Y55500000D03*
%TO.P,U1,107,VDDIO_5*%
%TO.N,+3.3V*%
X83136660Y56000000D03*
%TO.P,U1,108,P2_13*%
%TO.N,unconnected-(U1-P2_13-Pad108)*%
X83136660Y56500000D03*
D31*
%TO.P,U1,109,VSSIO_3*%
%TO.N,Earth*%
X81224160Y58412500D03*
%TO.P,U1,110,P7_0*%
%TO.N,/PYROCTRL0*%
X80724160Y58412500D03*
%TO.P,U1,111,VDDIO_6*%
%TO.N,+3.3V*%
X80224160Y58412500D03*
%TO.P,U1,112,P3_0*%
%TO.N,unconnected-(U1-P3_0-Pad112)*%
X79724160Y58412500D03*
%TO.P,U1,113,P7_1*%
%TO.N,/PYROCTRL1*%
X79224160Y58412500D03*
%TO.P,U1,114,P3_1*%
%TO.N,unconnected-(U1-P3_1-Pad114)*%
X78724160Y58412500D03*
%TO.P,U1,115,P7_2*%
%TO.N,/PYROCTRL2*%
X78224160Y58412500D03*
%TO.P,U1,116,P3_2*%
%TO.N,unconnected-(U1-P3_2-Pad116)*%
X77724160Y58412500D03*
%TO.P,U1,117,P7_3*%
%TO.N,/PYROCTRL5*%
X77224160Y58412500D03*
%TO.P,U1,118,P3_3*%
%TO.N,/SPIFI4*%
X76724160Y58412500D03*
%TO.P,U1,119,P3_4*%
%TO.N,/SPIFI3*%
X76224160Y58412500D03*
%TO.P,U1,120,PF_4*%
%TO.N,unconnected-(U1-PF_4-Pad120)*%
X75724160Y58412500D03*
%TO.P,U1,121,P3_5*%
%TO.N,/SPIFI2*%
X75224160Y58412500D03*
%TO.P,U1,122,P3_6*%
%TO.N,/SPIFI1*%
X74724160Y58412500D03*
%TO.P,U1,123,P3_7*%
%TO.N,/SPIFI0*%
X74224160Y58412500D03*
%TO.P,U1,124,P3_8*%
%TO.N,/CS5*%
X73724160Y58412500D03*
%TO.P,U1,125,RTCX1*%
%TO.N,unconnected-(U1-RTCX1-Pad125)*%
X73224160Y58412500D03*
%TO.P,U1,126,RTCX2*%
%TO.N,unconnected-(U1-RTCX2-Pad126)*%
X72724160Y58412500D03*
%TO.P,U1,127,VBAT*%
%TO.N,+3.3V*%
X72224160Y58412500D03*
%TO.P,U1,128,RESET*%
%TO.N,unconnected-(U1-RESET-Pad128)*%
X71724160Y58412500D03*
%TO.P,U1,129,RTC_ALARM*%
%TO.N,unconnected-(U1-RTC_ALARM-Pad129)*%
X71224160Y58412500D03*
%TO.P,U1,130,WAKEUP0*%
%TO.N,unconnected-(U1-WAKEUP0-Pad130)*%
X70724160Y58412500D03*
%TO.P,U1,131,VDDREG_3*%
%TO.N,+3.3V*%
X70224160Y58412500D03*
%TO.P,U1,132,P7_4*%
%TO.N,unconnected-(U1-P7_4-Pad132)*%
X69724160Y58412500D03*
%TO.P,U1,133,P7_5*%
%TO.N,unconnected-(U1-P7_5-Pad133)*%
X69224160Y58412500D03*
%TO.P,U1,134,P7_6*%
%TO.N,unconnected-(U1-P7_6-Pad134)*%
X68724160Y58412500D03*
%TO.P,U1,135,VSS_A*%
%TO.N,Earth*%
X68224160Y58412500D03*
%TO.P,U1,136,ADC0_7/ADC1_7*%
%TO.N,unconnected-(U1-ADC0_7{slash}ADC1_7-Pad136)*%
X67724160Y58412500D03*
%TO.P,U1,137,VDDA*%
%TO.N,+3.3V*%
X67224160Y58412500D03*
%TO.P,U1,138,ADC0_4/ADC1_4*%
%TO.N,unconnected-(U1-ADC0_4{slash}ADC1_4-Pad138)*%
X66724160Y58412500D03*
%TO.P,U1,139,ADC0_3/ADC1_0*%
%TO.N,unconnected-(U1-ADC0_3{slash}ADC1_0-Pad139)*%
X66224160Y58412500D03*
%TO.P,U1,140,P7_7*%
%TO.N,unconnected-(U1-P7_7-Pad140)*%
X65724160Y58412500D03*
%TO.P,U1,141,VDDIO_7*%
%TO.N,+3.3V*%
X65224160Y58412500D03*
%TO.P,U1,142,ADC0_6/ADC1_6*%
%TO.N,unconnected-(U1-ADC0_6{slash}ADC1_6-Pad142)*%
X64724160Y58412500D03*
%TO.P,U1,143,ADC0_2/ADC1_2*%
%TO.N,unconnected-(U1-ADC0_2{slash}ADC1_2-Pad143)*%
X64224160Y58412500D03*
%TO.P,U1,144,ADC0_5/ADC1_5*%
%TO.N,unconnected-(U1-ADC0_5{slash}ADC1_5-Pad144)*%
X63724160Y58412500D03*
D17*
%TO.P,U1,145,GND*%
%TO.N,Earth*%
X69474160Y50750000D03*
X69474160Y48750000D03*
X69474160Y46750000D03*
X69474160Y44750000D03*
X71474160Y50750000D03*
X71474160Y48750000D03*
X71474160Y46750000D03*
X71474160Y44750000D03*
D32*
X72474160Y47750000D03*
D17*
X73474160Y50750000D03*
X73474160Y48750000D03*
X73474160Y46750000D03*
X73474160Y44750000D03*
X75474160Y50750000D03*
X75474160Y48750000D03*
X75474160Y46750000D03*
X75474160Y44750000D03*
%TD*%
D11*
%TO.P,C8,1*%
%TO.N,Earth*%
X28454160Y30750000D03*
%TO.P,C8,2*%
%TO.N,+3.3V*%
X27494160Y30750000D03*
%TD*%
D33*
%TO.P,R1,1*%
%TO.N,+3.3V*%
X36484160Y32750000D03*
%TO.P,R1,2*%
%TO.N,/I2C0*%
X35464160Y32750000D03*
%TD*%
D34*
%TO.P,U2,1,SDO/SA0*%
%TO.N,unconnected-(U2-SDO{slash}SA0-Pad1)*%
X28811660Y24912500D03*
%TO.P,U2,2,SDX*%
%TO.N,unconnected-(U2-SDX-Pad2)*%
X28811660Y24412500D03*
%TO.P,U2,3,SCX*%
%TO.N,unconnected-(U2-SCX-Pad3)*%
X28811660Y23912500D03*
%TO.P,U2,4,INT1*%
%TO.N,/INT10*%
X28811660Y23412500D03*
D35*
%TO.P,U2,5,VDDIO*%
%TO.N,+3.3V*%
X29474160Y23250000D03*
%TO.P,U2,6,GND*%
%TO.N,Earth*%
X29974160Y23250000D03*
%TO.P,U2,7,GND*%
X30474160Y23250000D03*
D34*
%TO.P,U2,8,VDD*%
%TO.N,+3.3V*%
X31136660Y23412500D03*
%TO.P,U2,9,INT2*%
%TO.N,/INT11*%
X31136660Y23912500D03*
%TO.P,U2,10,NC*%
%TO.N,unconnected-(U2-NC-Pad10)*%
X31136660Y24412500D03*
%TO.P,U2,11,NC*%
%TO.N,unconnected-(U2-NC-Pad11)*%
X31136660Y24912500D03*
D35*
%TO.P,U2,12,CS*%
%TO.N,/CS0*%
X30474160Y25075000D03*
%TO.P,U2,13,SCL*%
%TO.N,/I2C0*%
X29974160Y25075000D03*
%TO.P,U2,14,SDA*%
%TO.N,/I2C1*%
X29474160Y25075000D03*
%TD*%
D36*
%TO.P,U7,1,CS#*%
%TO.N,/CS5*%
X57873060Y64345000D03*
%TO.P,U7,2,SO/SIO1*%
%TO.N,/SPIFI1*%
X57873060Y65615000D03*
%TO.P,U7,3,WP#/SIO2*%
%TO.N,/SPIFI2*%
X57873060Y66885000D03*
%TO.P,U7,4,GND*%
%TO.N,Earth*%
X57873060Y68155000D03*
%TO.P,U7,5,SI/SIO0*%
%TO.N,/SPIFI0*%
X50075260Y68155000D03*
%TO.P,U7,6,SCLK*%
%TO.N,/SPIFI4*%
X50075260Y66885000D03*
%TO.P,U7,7,HOLD#/SIO3*%
%TO.N,/SPIFI3*%
X50075260Y65615000D03*
%TO.P,U7,8,VCC*%
%TO.N,+3.3V*%
X50075260Y64345000D03*
D37*
%TO.P,U7,9,GND*%
%TO.N,Earth*%
X53974160Y66250000D03*
%TD*%
D20*
%TO.P,R9,1*%
%TO.N,Net-(U1-USB0_VBUS)*%
X56174160Y41960000D03*
%TO.P,R9,2*%
%TO.N,Earth*%
X56174160Y40940000D03*
%TD*%
D38*
%TO.P,U11,1,G*%
%TO.N,/PYROCTRL1*%
X11624159Y14651700D03*
%TO.P,U11,2,D*%
%TO.N,Earth*%
X10324161Y14651700D03*
%TO.P,U11,3,S*%
%TO.N,Net-(U11-S)*%
X10974160Y12848300D03*
%TD*%
D25*
%TO.P,C4,1*%
%TO.N,+3.3V*%
X18464160Y33475000D03*
%TO.P,C4,2*%
%TO.N,Earth*%
X18464160Y35025000D03*
%TD*%
D10*
%TO.P,C24,1*%
%TO.N,+3.3V*%
X76534160Y18050000D03*
%TO.P,C24,2*%
%TO.N,Earth*%
X77174160Y18050000D03*
%TD*%
D39*
%TO.P,L5,1*%
%TO.N,Net-(C51-Pad2)*%
X71974160Y4912500D03*
%TO.P,L5,2*%
%TO.N,/TRANSCEIVER-TX*%
X71974160Y2587500D03*
%TD*%
D24*
%TO.P,J6,1*%
%TO.N,Net-(U13-S)*%
X38629160Y9085000D03*
%TO.P,J6,2*%
%TO.N,Vdrive*%
X43709160Y9085000D03*
%TD*%
D40*
%TO.P,C5,1*%
%TO.N,+3.3V*%
X23074160Y28250000D03*
%TO.P,C5,2*%
%TO.N,Earth*%
X24974160Y28250000D03*
%TD*%
D30*
%TO.P,U4,1,P4_0*%
%TO.N,/INT0*%
X26149160Y61750000D03*
%TO.P,U4,2,ADC0_1/ADC1_1*%
%TO.N,unconnected-(U4-ADC0_1{slash}ADC1_1-Pad2)*%
X26149160Y61250000D03*
%TO.P,U4,3,P4_1*%
%TO.N,/INT1*%
X26149160Y60750000D03*
%TO.P,U4,4,VSSIO_0*%
%TO.N,Earth*%
X26149160Y60250000D03*
%TO.P,U4,5,VDDIO_0*%
%TO.N,+3.3V*%
X26149160Y59750000D03*
%TO.P,U4,6,ADC0_0/ADC1_0/DAC*%
%TO.N,unconnected-(U4-ADC0_0{slash}ADC1_0{slash}DAC-Pad6)*%
X26149160Y59250000D03*
%TO.P,U4,7,P4_3*%
%TO.N,/INT3*%
X26149160Y58750000D03*
%TO.P,U4,8,P4_2*%
%TO.N,/INT2*%
X26149160Y58250000D03*
%TO.P,U4,9,P4_4*%
%TO.N,/INT4*%
X26149160Y57750000D03*
%TO.P,U4,10,P4_5*%
%TO.N,/INT5*%
X26149160Y57250000D03*
%TO.P,U4,11,P4_6*%
%TO.N,/INT6*%
X26149160Y56750000D03*
%TO.P,U4,12,XTAL1*%
%TO.N,unconnected-(U4-XTAL1-Pad12)*%
X26149160Y56250000D03*
%TO.P,U4,13,XTAL2*%
%TO.N,unconnected-(U4-XTAL2-Pad13)*%
X26149160Y55750000D03*
%TO.P,U4,14,P4_7*%
%TO.N,unconnected-(U4-P4_7-Pad14)*%
X26149160Y55250000D03*
%TO.P,U4,15,P4_8*%
%TO.N,unconnected-(U4-P4_8-Pad15)*%
X26149160Y54750000D03*
%TO.P,U4,16,USB0_VDDA3V3_DRIVER*%
%TO.N,+3.3V*%
X26149160Y54250000D03*
%TO.P,U4,17,USB0_VDDA3V3*%
X26149160Y53750000D03*
%TO.P,U4,18,USB0_DP*%
%TO.N,/USB0-D+*%
X26149160Y53250000D03*
%TO.P,U4,19,USB0_VSSA_TERM*%
%TO.N,Earth*%
X26149160Y52750000D03*
%TO.P,U4,20,USB0_DM*%
%TO.N,/USB0-D-*%
X26149160Y52250000D03*
%TO.P,U4,21,USB0_VBUS*%
%TO.N,Net-(U1-USB0_VBUS)*%
X26149160Y51750000D03*
%TO.P,U4,22,22*%
%TO.N,Earth*%
X26149160Y51250000D03*
%TO.P,U4,23,USB0_VSSA_REF*%
X26149160Y50750000D03*
%TO.P,U4,24,USB0_RREF*%
%TO.N,unconnected-(U4-USB0_RREF-Pad24)*%
X26149160Y50250000D03*
%TO.P,U4,25,VDDREG_0*%
%TO.N,+3.3V*%
X26149160Y49750000D03*
%TO.P,U4,26,TDI*%
%TO.N,Net-(J13-Pin_8)*%
X26149160Y49250000D03*
%TO.P,U4,27,TCK/SWDCLK*%
%TO.N,Net-(J13-Pin_12)*%
X26149160Y48750000D03*
%TO.P,U4,28,DBGEN*%
%TO.N,Net-(J13-Pin_13)*%
X26149160Y48250000D03*
%TO.P,U4,29,TRST*%
%TO.N,Net-(J13-Pin_11)*%
X26149160Y47750000D03*
%TO.P,U4,30,TMS/SWDIO*%
%TO.N,Net-(J13-Pin_10)*%
X26149160Y47250000D03*
%TO.P,U4,31,TDO/SWO*%
%TO.N,Net-(J13-Pin_9)*%
X26149160Y46750000D03*
%TO.P,U4,32,P0_0*%
%TO.N,/CS0*%
X26149160Y46250000D03*
%TO.P,U4,33,P4_9*%
%TO.N,unconnected-(U4-P4_9-Pad33)*%
X26149160Y45750000D03*
%TO.P,U4,34,P0_1*%
%TO.N,/CS1*%
X26149160Y45250000D03*
%TO.P,U4,35,P4_10*%
%TO.N,unconnected-(U4-P4_10-Pad35)*%
X26149160Y44750000D03*
%TO.P,U4,36,VDDIO_1*%
%TO.N,+3.3V*%
X26149160Y44250000D03*
D31*
%TO.P,U4,37,P5_0*%
%TO.N,/INT10*%
X28061660Y42337500D03*
%TO.P,U4,38,P1_0*%
%TO.N,/CS2*%
X28561660Y42337500D03*
%TO.P,U4,39,P5_1*%
%TO.N,/INT11*%
X29061660Y42337500D03*
%TO.P,U4,40,VSSIO_1*%
%TO.N,Earth*%
X29561660Y42337500D03*
%TO.P,U4,41,VDDIO_2*%
%TO.N,+3.3V*%
X30061660Y42337500D03*
%TO.P,U4,42,P1_1*%
%TO.N,/CS3*%
X30561660Y42337500D03*
%TO.P,U4,43,P1_2*%
%TO.N,/CS4*%
X31061660Y42337500D03*
%TO.P,U4,44,P1_3*%
%TO.N,/CS6*%
X31561660Y42337500D03*
%TO.P,U4,45,CLK0*%
%TO.N,unconnected-(U4-CLK0-Pad45)*%
X32061660Y42337500D03*
%TO.P,U4,46,P5_2*%
%TO.N,/INT12*%
X32561660Y42337500D03*
%TO.P,U4,47,P1_4*%
%TO.N,unconnected-(U4-P1_4-Pad47)*%
X33061660Y42337500D03*
%TO.P,U4,48,P1_5*%
%TO.N,Net-(U1-P1_4)*%
X33561660Y42337500D03*
%TO.P,U4,49,P1_6*%
%TO.N,Net-(U1-P1_5)*%
X34061660Y42337500D03*
%TO.P,U4,50,P1_7*%
%TO.N,Net-(U1-P1_6)*%
X34561660Y42337500D03*
%TO.P,U4,51,P1_8*%
%TO.N,Net-(U1-P1_7)*%
X35061660Y42337500D03*
%TO.P,U4,52,P1_9*%
%TO.N,Net-(U1-P1_8)*%
X35561660Y42337500D03*
%TO.P,U4,53,P1_10*%
%TO.N,Net-(U1-P1_9)*%
X36061660Y42337500D03*
%TO.P,U4,54,P5_3*%
%TO.N,/INT13*%
X36561660Y42337500D03*
%TO.P,U4,55,P1_11*%
%TO.N,unconnected-(U4-P1_11-Pad55)*%
X37061660Y42337500D03*
%TO.P,U4,56,P1_12*%
%TO.N,unconnected-(U4-P1_12-Pad56)*%
X37561660Y42337500D03*
%TO.P,U4,57,P5_4*%
%TO.N,/INT14*%
X38061660Y42337500D03*
%TO.P,U4,58,P5_5*%
%TO.N,+3.3V*%
X38561660Y42337500D03*
%TO.P,U4,59,VDDREG_1*%
X39061660Y42337500D03*
%TO.P,U4,60,P1_13*%
%TO.N,/UART01*%
X39561660Y42337500D03*
%TO.P,U4,61,P1_14*%
%TO.N,/UART00*%
X40061660Y42337500D03*
%TO.P,U4,62,P1_15*%
%TO.N,unconnected-(U4-P1_15-Pad62)*%
X40561660Y42337500D03*
%TO.P,U4,63,P5_6*%
%TO.N,/INT16*%
X41061660Y42337500D03*
%TO.P,U4,64,P1_16*%
%TO.N,unconnected-(U4-P1_16-Pad64)*%
X41561660Y42337500D03*
%TO.P,U4,65,P5_7*%
%TO.N,/INT17*%
X42061660Y42337500D03*
%TO.P,U4,66,P1_17*%
%TO.N,unconnected-(U4-P1_17-Pad66)*%
X42561660Y42337500D03*
%TO.P,U4,67,P1_18*%
%TO.N,unconnected-(U4-P1_18-Pad67)*%
X43061660Y42337500D03*
%TO.P,U4,68,P1_19*%
%TO.N,unconnected-(U4-P1_19-Pad68)*%
X43561660Y42337500D03*
%TO.P,U4,69,P9_5*%
%TO.N,/PYROCTRL4*%
X44061660Y42337500D03*
%TO.P,U4,70,P1_20*%
%TO.N,unconnected-(U4-P1_20-Pad70)*%
X44561660Y42337500D03*
%TO.P,U4,71,VDDIO_3*%
%TO.N,+3.3V*%
X45061660Y42337500D03*
%TO.P,U4,72,P9_6*%
%TO.N,/PYROCTRL3*%
X45561660Y42337500D03*
D30*
%TO.P,U4,73,P6_0*%
%TO.N,/INT7*%
X47474160Y44250000D03*
%TO.P,U4,74,P6_1*%
%TO.N,/INT8*%
X47474160Y44750000D03*
%TO.P,U4,75,P2_0*%
%TO.N,unconnected-(U4-P2_0-Pad75)*%
X47474160Y45250000D03*
%TO.P,U4,76,VSSIO_2*%
%TO.N,Earth*%
X47474160Y45750000D03*
%TO.P,U4,77,VDDIO_4*%
%TO.N,+3.3V*%
X47474160Y46250000D03*
%TO.P,U4,78,P6_2*%
%TO.N,/INT9*%
X47474160Y46750000D03*
%TO.P,U4,79,P6_3*%
%TO.N,/INT18*%
X47474160Y47250000D03*
%TO.P,U4,80,P6_4*%
%TO.N,/INT19*%
X47474160Y47750000D03*
%TO.P,U4,81,P2_1*%
%TO.N,unconnected-(U4-P2_1-Pad81)*%
X47474160Y48250000D03*
%TO.P,U4,82,P6_5*%
%TO.N,/INT20*%
X47474160Y48750000D03*
%TO.P,U4,83,P6_6*%
%TO.N,/INT21*%
X47474160Y49250000D03*
%TO.P,U4,84,P2_2*%
%TO.N,Net-(J18-Pin_14)*%
X47474160Y49750000D03*
%TO.P,U4,85,P6_7*%
%TO.N,unconnected-(U4-P6_7-Pad85)*%
X47474160Y50250000D03*
%TO.P,U4,86,P6_8*%
%TO.N,unconnected-(U4-P6_8-Pad86)*%
X47474160Y50750000D03*
%TO.P,U4,87,P2_3*%
%TO.N,Net-(J18-Pin_13)*%
X47474160Y51250000D03*
%TO.P,U4,88,P2_4*%
%TO.N,Net-(J18-Pin_12)*%
X47474160Y51750000D03*
%TO.P,U4,89,USB1_DP*%
%TO.N,/USB10*%
X47474160Y52250000D03*
%TO.P,U4,90,USB1_DM*%
%TO.N,/USB11*%
X47474160Y52750000D03*
%TO.P,U4,91,P2_5*%
%TO.N,Net-(U1-P2_5)*%
X47474160Y53250000D03*
%TO.P,U4,92,I2C0_SCL*%
%TO.N,/I2C0*%
X47474160Y53750000D03*
%TO.P,U4,93,I2C0_SDA*%
%TO.N,/I2C1*%
X47474160Y54250000D03*
%TO.P,U4,94,VDDREG_2*%
%TO.N,+3.3V*%
X47474160Y54750000D03*
%TO.P,U4,95,P2_6*%
%TO.N,Net-(J18-Pin_11)*%
X47474160Y55250000D03*
%TO.P,U4,96,P2_7*%
%TO.N,Net-(J18-Pin_10)*%
X47474160Y55750000D03*
%TO.P,U4,97,P6_9*%
%TO.N,Net-(J13-Pin_14)*%
X47474160Y56250000D03*
%TO.P,U4,98,P2_8*%
%TO.N,Net-(J18-Pin_9)*%
X47474160Y56750000D03*
%TO.P,U4,99,CLK2*%
%TO.N,unconnected-(U4-CLK2-Pad99)*%
X47474160Y57250000D03*
%TO.P,U4,100,P6_10*%
%TO.N,unconnected-(U4-P6_10-Pad100)*%
X47474160Y57750000D03*
%TO.P,U4,101,P6_11*%
%TO.N,unconnected-(U4-P6_11-Pad101)*%
X47474160Y58250000D03*
%TO.P,U4,102,P2_9*%
%TO.N,Net-(J18-Pin_8)*%
X47474160Y58750000D03*
%TO.P,U4,103,P6_12*%
%TO.N,unconnected-(U4-P6_12-Pad103)*%
X47474160Y59250000D03*
%TO.P,U4,104,P2_10*%
%TO.N,unconnected-(U4-P2_10-Pad104)*%
X47474160Y59750000D03*
%TO.P,U4,105,P2_11*%
%TO.N,Net-(U1-P2_10)*%
X47474160Y60250000D03*
%TO.P,U4,106,P2_12*%
%TO.N,unconnected-(U4-P2_12-Pad106)*%
X47474160Y60750000D03*
%TO.P,U4,107,VDDIO_5*%
%TO.N,+3.3V*%
X47474160Y61250000D03*
%TO.P,U4,108,P2_13*%
%TO.N,unconnected-(U4-P2_13-Pad108)*%
X47474160Y61750000D03*
D31*
%TO.P,U4,109,VSSIO_3*%
%TO.N,Earth*%
X45561660Y63662500D03*
%TO.P,U4,110,P7_0*%
%TO.N,/PYROCTRL0*%
X45061660Y63662500D03*
%TO.P,U4,111,VDDIO_6*%
%TO.N,+3.3V*%
X44561660Y63662500D03*
%TO.P,U4,112,P3_0*%
%TO.N,unconnected-(U4-P3_0-Pad112)*%
X44061660Y63662500D03*
%TO.P,U4,113,P7_1*%
%TO.N,/PYROCTRL1*%
X43561660Y63662500D03*
%TO.P,U4,114,P3_1*%
%TO.N,unconnected-(U4-P3_1-Pad114)*%
X43061660Y63662500D03*
%TO.P,U4,115,P7_2*%
%TO.N,/PYROCTRL2*%
X42561660Y63662500D03*
%TO.P,U4,116,P3_2*%
%TO.N,unconnected-(U4-P3_2-Pad116)*%
X42061660Y63662500D03*
%TO.P,U4,117,P7_3*%
%TO.N,/PYROCTRL5*%
X41561660Y63662500D03*
%TO.P,U4,118,P3_3*%
%TO.N,/SPIFI4*%
X41061660Y63662500D03*
%TO.P,U4,119,P3_4*%
%TO.N,/SPIFI3*%
X40561660Y63662500D03*
%TO.P,U4,120,PF_4*%
%TO.N,unconnected-(U4-PF_4-Pad120)*%
X40061660Y63662500D03*
%TO.P,U4,121,P3_5*%
%TO.N,/SPIFI2*%
X39561660Y63662500D03*
%TO.P,U4,122,P3_6*%
%TO.N,/SPIFI1*%
X39061660Y63662500D03*
%TO.P,U4,123,P3_7*%
%TO.N,/SPIFI0*%
X38561660Y63662500D03*
%TO.P,U4,124,P3_8*%
%TO.N,/CS5*%
X38061660Y63662500D03*
%TO.P,U4,125,RTCX1*%
%TO.N,unconnected-(U4-RTCX1-Pad125)*%
X37561660Y63662500D03*
%TO.P,U4,126,RTCX2*%
%TO.N,unconnected-(U4-RTCX2-Pad126)*%
X37061660Y63662500D03*
%TO.P,U4,127,VBAT*%
%TO.N,+3.3V*%
X36561660Y63662500D03*
%TO.P,U4,128,RESET*%
%TO.N,unconnected-(U4-RESET-Pad128)*%
X36061660Y63662500D03*
%TO.P,U4,129,RTC_ALARM*%
%TO.N,unconnected-(U4-RTC_ALARM-Pad129)*%
X35561660Y63662500D03*
%TO.P,U4,130,WAKEUP0*%
%TO.N,unconnected-(U4-WAKEUP0-Pad130)*%
X35061660Y63662500D03*
%TO.P,U4,131,VDDREG_3*%
%TO.N,+3.3V*%
X34561660Y63662500D03*
%TO.P,U4,132,P7_4*%
%TO.N,unconnected-(U4-P7_4-Pad132)*%
X34061660Y63662500D03*
%TO.P,U4,133,P7_5*%
%TO.N,unconnected-(U4-P7_5-Pad133)*%
X33561660Y63662500D03*
%TO.P,U4,134,P7_6*%
%TO.N,unconnected-(U4-P7_6-Pad134)*%
X33061660Y63662500D03*
%TO.P,U4,135,VSS-A*%
%TO.N,Earth*%
X32561660Y63662500D03*
%TO.P,U4,136,ADC0_7/ADC1_7*%
%TO.N,unconnected-(U4-ADC0_7{slash}ADC1_7-Pad136)*%
X32061660Y63662500D03*
%TO.P,U4,137,VDDA*%
%TO.N,+3.3V*%
X31561660Y63662500D03*
%TO.P,U4,138,ADC0_4/ADC1_4*%
%TO.N,unconnected-(U4-ADC0_4{slash}ADC1_4-Pad138)*%
X31061660Y63662500D03*
%TO.P,U4,139,ADC0_3/ADC1_0*%
%TO.N,unconnected-(U4-ADC0_3{slash}ADC1_0-Pad139)*%
X30561660Y63662500D03*
%TO.P,U4,140,P7_7*%
%TO.N,unconnected-(U4-P7_7-Pad140)*%
X30061660Y63662500D03*
%TO.P,U4,141,VDDIO_7*%
%TO.N,+3.3V*%
X29561660Y63662500D03*
%TO.P,U4,142,ADC0_6/ADC1_6*%
%TO.N,unconnected-(U4-ADC0_6{slash}ADC1_6-Pad142)*%
X29061660Y63662500D03*
%TO.P,U4,143,ADC0_2/ADC1_2*%
%TO.N,unconnected-(U4-ADC0_2{slash}ADC1_2-Pad143)*%
X28561660Y63662500D03*
%TO.P,U4,144,ADC0_5/ADC1_5*%
%TO.N,unconnected-(U4-ADC0_5{slash}ADC1_5-Pad144)*%
X28061660Y63662500D03*
D17*
%TO.P,U4,145,GND*%
%TO.N,Earth*%
X33811660Y56000000D03*
X33811660Y54000000D03*
X33811660Y52000000D03*
X33811660Y50000000D03*
X35811660Y56000000D03*
X35811660Y54000000D03*
X35811660Y52000000D03*
X35811660Y50000000D03*
D32*
X36811660Y53000000D03*
D17*
X37811660Y56000000D03*
X37811660Y54000000D03*
X37811660Y52000000D03*
X37811660Y50000000D03*
X39811660Y56000000D03*
X39811660Y54000000D03*
X39811660Y52000000D03*
X39811660Y50000000D03*
%TD*%
D24*
%TO.P,J11,1*%
%TO.N,+BATT*%
X8474160Y23470000D03*
%TO.P,J11,2*%
%TO.N,Earth*%
X8474160Y18390000D03*
%TD*%
%TO.P,J4,1*%
%TO.N,Net-(U11-S)*%
X2934160Y9250000D03*
%TO.P,J4,2*%
%TO.N,Vdrive*%
X8014160Y9250000D03*
%TD*%
D41*
%TO.P,C13,1*%
%TO.N,Earth*%
X73294160Y14250000D03*
%TO.P,C13,2*%
%TO.N,+3.3V*%
X72654160Y14250000D03*
%TD*%
D23*
%TO.P,R2,1*%
%TO.N,+3.3V*%
X49964160Y50250000D03*
%TO.P,R2,2*%
%TO.N,/I2C1*%
X50984160Y50250000D03*
%TD*%
D42*
%TO.P,L2,1,1*%
%TO.N,+3.3V*%
X89624660Y5750000D03*
%TO.P,L2,2,2*%
%TO.N,/RF-PA-OUT-1*%
X94323660Y5750000D03*
%TD*%
D43*
%TO.P,J9,1,Pin_1*%
%TO.N,Earth*%
X9956345Y66803655D03*
D44*
%TO.P,J9,2,Pin_2*%
%TO.N,Net-(J9-Pin_2)*%
X12496345Y66803655D03*
%TO.P,J9,3,Pin_3*%
%TO.N,/UART00*%
X15036345Y66803655D03*
%TO.P,J9,4,Pin_4*%
%TO.N,/UART01*%
X17576345Y66803655D03*
%TD*%
D22*
%TO.P,C30,1*%
%TO.N,/TRANSCEIVER-TX*%
X80994160Y6750000D03*
%TO.P,C30,2*%
%TO.N,/TRANSCEIVER-TX-0*%
X81954160Y6750000D03*
%TD*%
D10*
%TO.P,C49,1*%
%TO.N,Net-(U6-VREFVCO)*%
X77154160Y5250000D03*
%TO.P,C49,2*%
%TO.N,Earth*%
X77794160Y5250000D03*
%TD*%
D45*
%TO.P,C28,1*%
%TO.N,Earth*%
X24924160Y23750000D03*
%TO.P,C28,2*%
%TO.N,+3.3V*%
X23024160Y23750000D03*
%TD*%
D24*
%TO.P,J8,1*%
%TO.N,Net-(U15-S)*%
X92474160Y63710000D03*
%TO.P,J8,2*%
%TO.N,Vdrive*%
X92474160Y68790000D03*
%TD*%
D38*
%TO.P,U13,1,G*%
%TO.N,/PYROCTRL3*%
X41624159Y17651700D03*
%TO.P,U13,2,D*%
%TO.N,Earth*%
X40324161Y17651700D03*
%TO.P,U13,3,S*%
%TO.N,Net-(U13-S)*%
X40974160Y15848300D03*
%TD*%
D11*
%TO.P,C11,1*%
%TO.N,Net-(U10-BIAS)*%
X95954160Y14750000D03*
%TO.P,C11,2*%
%TO.N,Net-(C11-Pad2)*%
X94994160Y14750000D03*
%TD*%
D22*
%TO.P,C25,1*%
%TO.N,Earth*%
X71994160Y10750000D03*
%TO.P,C25,2*%
%TO.N,Net-(U6-SMPS2)*%
X72954160Y10750000D03*
%TD*%
D10*
%TO.P,C34,1*%
%TO.N,Net-(U1-P2_5)*%
X57654160Y35250000D03*
%TO.P,C34,2*%
%TO.N,Earth*%
X58294160Y35250000D03*
%TD*%
D25*
%TO.P,C40,1*%
%TO.N,+3.3V*%
X25994160Y33475000D03*
%TO.P,C40,2*%
%TO.N,Earth*%
X25994160Y35025000D03*
%TD*%
D12*
%TO.P,C45,1*%
%TO.N,+3.3V*%
X37199160Y28740000D03*
%TO.P,C45,2*%
%TO.N,Earth*%
X38749160Y28740000D03*
%TD*%
D46*
%TO.P,U18,1,FB*%
%TO.N,+3.3V*%
X13336660Y26200000D03*
%TO.P,U18,2,EN*%
%TO.N,+BATT*%
X13336660Y25250000D03*
%TO.P,U18,3,IN*%
X13336660Y24300000D03*
%TO.P,U18,4,GND*%
%TO.N,Earth*%
X15611660Y24300000D03*
%TO.P,U18,5,SW*%
%TO.N,Net-(U18-SW)*%
X15611660Y25250000D03*
%TO.P,U18,6,BST*%
%TO.N,Net-(U18-BST)*%
X15611660Y26200000D03*
%TD*%
D10*
%TO.P,C15,1*%
%TO.N,+3.3V*%
X73499160Y34340000D03*
%TO.P,C15,2*%
%TO.N,Earth*%
X74139160Y34340000D03*
%TD*%
D47*
%TO.P,U15,1,G*%
%TO.N,/PYROCTRL5*%
X86505760Y60984999D03*
%TO.P,U15,2,D*%
%TO.N,Earth*%
X86505760Y59685001D03*
%TO.P,U15,3,S*%
%TO.N,Net-(U15-S)*%
X88309160Y60335000D03*
%TD*%
D20*
%TO.P,R3,1*%
%TO.N,Net-(C11-Pad2)*%
X95474160Y13260000D03*
%TO.P,R3,2*%
%TO.N,Earth*%
X95474160Y12240000D03*
%TD*%
D48*
%TO.P,J12,1,VCC*%
%TO.N,Net-(J12-VCC)*%
X6149160Y58550000D03*
%TO.P,J12,2,D-*%
%TO.N,Net-(J12-D-)*%
X6149160Y57900000D03*
%TO.P,J12,3,D+*%
%TO.N,Net-(J12-D+)*%
X6149160Y57250000D03*
%TO.P,J12,4,ID*%
%TO.N,Earth*%
X6149160Y56600000D03*
%TO.P,J12,5,GND*%
X6149160Y55950000D03*
D49*
%TO.P,J12,S1,SHIELD*%
X3474160Y61200000D03*
%TO.P,J12,S2,SHIELD__1*%
X3474160Y58450000D03*
%TO.P,J12,S3,SHIELD__2*%
X3474160Y56050000D03*
%TO.P,J12,S4,SHIELD__3*%
X3474160Y53300000D03*
%TD*%
D23*
%TO.P,R10,1*%
%TO.N,Net-(J12-VCC)*%
X5464160Y63750000D03*
%TO.P,R10,2*%
%TO.N,Net-(U1-USB0_VBUS)*%
X6484160Y63750000D03*
%TD*%
D50*
%TO.P,L3,1,1*%
%TO.N,Net-(U10-BIAS)*%
X90302560Y29250000D03*
%TO.P,L3,2,2*%
%TO.N,Net-(U10-RF-IN)*%
X82645760Y29250000D03*
%TD*%
D12*
%TO.P,C41,1*%
%TO.N,+3.3V*%
X20199160Y20750000D03*
%TO.P,C41,2*%
%TO.N,Earth*%
X21749160Y20750000D03*
%TD*%
D23*
%TO.P,R11,1*%
%TO.N,Net-(U1-USB0_VBUS)*%
X21439160Y47950000D03*
%TO.P,R11,2*%
%TO.N,Earth*%
X22459160Y47950000D03*
%TD*%
D39*
%TO.P,L4,1*%
%TO.N,Net-(U6-SMPS1)*%
X65974160Y11912500D03*
%TO.P,L4,2*%
%TO.N,Net-(U6-SMPS2)*%
X65974160Y9587500D03*
%TD*%
D22*
%TO.P,C1,2*%
%TO.N,Earth*%
X69954160Y3750000D03*
%TO.P,C1,1*%
%TO.N,Net-(U6-XIN)*%
X68994160Y3750000D03*
%TD*%
D38*
%TO.P,U14,1,G*%
%TO.N,/PYROCTRL4*%
X50624159Y15151700D03*
%TO.P,U14,2,D*%
%TO.N,Earth*%
X49324161Y15151700D03*
%TO.P,U14,3,S*%
%TO.N,Net-(U14-S)*%
X49974160Y13348300D03*
%TD*%
D11*
%TO.P,C10,1*%
%TO.N,Net-(U10-RF-IN)*%
X86954160Y11250000D03*
%TO.P,C10,2*%
%TO.N,/RF-PA-IN*%
X85994160Y11250000D03*
%TD*%
%TO.P,C14,1*%
%TO.N,Earth*%
X73934160Y16250000D03*
%TO.P,C14,2*%
%TO.N,+3.3V*%
X72974160Y16250000D03*
%TD*%
D29*
%TO.P,C16,1*%
%TO.N,+3.3V*%
X73974160Y7070000D03*
%TO.P,C16,2*%
%TO.N,Earth*%
X73974160Y6430000D03*
%TD*%
D38*
%TO.P,U9,1,G*%
%TO.N,/PYROCTRL0*%
X21624159Y15151700D03*
%TO.P,U9,2,D*%
%TO.N,Earth*%
X20324161Y15151700D03*
%TO.P,U9,3,S*%
%TO.N,Net-(U9-S)*%
X20974160Y13348300D03*
%TD*%
D40*
%TO.P,C3,1*%
%TO.N,+BATT*%
X13024160Y21250000D03*
%TO.P,C3,2*%
%TO.N,Earth*%
X14924160Y21250000D03*
%TD*%
D19*
%TO.P,C38,1*%
%TO.N,Net-(U18-BST)*%
X17994160Y25730000D03*
%TO.P,C38,2*%
%TO.N,Net-(U18-SW)*%
X17994160Y24770000D03*
%TD*%
D10*
%TO.P,C50,1*%
%TO.N,Net-(U16-VCCD)*%
X57809160Y46250000D03*
%TO.P,C50,2*%
%TO.N,Earth*%
X58449160Y46250000D03*
%TD*%
%TO.P,C20,1*%
%TO.N,Net-(U6-VR_RF)*%
X81654160Y4250000D03*
%TO.P,C20,2*%
%TO.N,Earth*%
X82294160Y4250000D03*
%TD*%
D13*
%TO.P,J14,1,Pin_1*%
%TO.N,Earth*%
X64474160Y65250000D03*
D14*
%TO.P,J14,2,Pin_2*%
%TO.N,/I2C0*%
X64474160Y63250000D03*
%TO.P,J14,3,Pin_3*%
%TO.N,/I2C1*%
X66474160Y65250000D03*
%TO.P,J14,4,Pin_4*%
%TO.N,Earth*%
X66474160Y63250000D03*
%TO.P,J14,5,Pin_5*%
%TO.N,/SPIFI2*%
X68474160Y65250000D03*
%TO.P,J14,6,Pin_6*%
%TO.N,/SPIFI1*%
X68474160Y63250000D03*
%TO.P,J14,7,Pin_7*%
%TO.N,/CS5*%
X70474160Y65250000D03*
%TO.P,J14,8,Pin_8*%
%TO.N,/SPIFI4*%
X70474160Y63250000D03*
%TO.P,J14,9,Pin_9*%
%TO.N,/SPIFI0*%
X72474160Y65250000D03*
%TO.P,J14,10,Pin_10*%
%TO.N,/SPIFI3*%
X72474160Y63250000D03*
%TO.P,J14,11,Pin_11*%
%TO.N,/SPI0*%
X74474160Y65250000D03*
%TO.P,J14,12,Pin_12*%
%TO.N,/SPI1*%
X74474160Y63250000D03*
%TO.P,J14,13,Pin_13*%
%TO.N,/SPI2*%
X76474160Y65250000D03*
%TO.P,J14,14,Pin_14*%
%TO.N,+3.3V*%
X76474160Y63250000D03*
%TD*%
D41*
%TO.P,C17,1*%
%TO.N,Net-(U6-VR_SYNTH)*%
X76794160Y3750000D03*
%TO.P,C17,2*%
%TO.N,Earth*%
X76154160Y3750000D03*
%TD*%
D12*
%TO.P,C44,1*%
%TO.N,+3.3V*%
X37199160Y31250000D03*
%TO.P,C44,2*%
%TO.N,Earth*%
X38749160Y31250000D03*
%TD*%
D22*
%TO.P,C27,1*%
%TO.N,Net-(U1-P2_5)*%
X50494160Y36250000D03*
%TO.P,C27,2*%
%TO.N,Earth*%
X51454160Y36250000D03*
%TD*%
D40*
%TO.P,C37,1*%
%TO.N,+BATT*%
X12524160Y34750000D03*
%TO.P,C37,2*%
%TO.N,Earth*%
X14424160Y34750000D03*
%TD*%
D10*
%TO.P,C47,1*%
%TO.N,+3.3V*%
X78654160Y4250000D03*
%TO.P,C47,2*%
%TO.N,Earth*%
X79294160Y4250000D03*
%TD*%
D51*
%TO.P,C29,1*%
%TO.N,+3.3V*%
X29974160Y33790000D03*
%TO.P,C29,2*%
%TO.N,Earth*%
X29974160Y34750000D03*
%TD*%
D24*
%TO.P,J5,1*%
%TO.N,Net-(U12-S)*%
X26769160Y9085000D03*
%TO.P,J5,2*%
%TO.N,Vdrive*%
X31849160Y9085000D03*
%TD*%
D52*
%TO.P,U3,1,SDO/ADDR*%
%TO.N,/SPI0*%
X53711660Y58500000D03*
%TO.P,U3,2,SDI/SDA*%
%TO.N,/SPI1*%
X53711660Y58000000D03*
%TO.P,U3,3,IO_VDD*%
%TO.N,+3.3V*%
X53711660Y57500000D03*
%TO.P,U3,4,TRIG*%
%TO.N,/INT0*%
X53711660Y57000000D03*
D53*
%TO.P,U3,5,INT1*%
%TO.N,/INT2*%
X54224160Y56987500D03*
%TO.P,U3,6,INT2*%
%TO.N,/INT1*%
X54724160Y56987500D03*
D52*
%TO.P,U3,7,VDD*%
%TO.N,+3.3V*%
X55236660Y57000000D03*
%TO.P,U3,8,GND*%
%TO.N,Earth*%
X55236660Y57500000D03*
%TO.P,U3,9,GND*%
X55236660Y58000000D03*
%TO.P,U3,10,~{CS}*%
%TO.N,/CS3*%
X55236660Y58500000D03*
D53*
%TO.P,U3,11,NC*%
%TO.N,Earth*%
X54724160Y58512500D03*
%TO.P,U3,12,SCLK/SCL*%
%TO.N,/SPI2*%
X54224160Y58512500D03*
%TD*%
D28*
%TO.P,L1,1*%
%TO.N,+3.3V*%
X12636660Y30750000D03*
%TO.P,L1,2*%
%TO.N,Net-(U8-SW)*%
X17311660Y30750000D03*
%TD*%
D10*
%TO.P,C21,1*%
%TO.N,Net-(U6-VDD_DIG{slash}RX)*%
X82154160Y12750000D03*
%TO.P,C21,2*%
%TO.N,Earth*%
X82794160Y12750000D03*
%TD*%
%TO.P,C31,1*%
%TO.N,Net-(U16-VCCD)*%
X57654160Y44250000D03*
%TO.P,C31,2*%
%TO.N,Earth*%
X58294160Y44250000D03*
%TD*%
D38*
%TO.P,U12,1,G*%
%TO.N,/PYROCTRL2*%
X29624159Y17151700D03*
%TO.P,U12,2,D*%
%TO.N,Earth*%
X28324161Y17151700D03*
%TO.P,U12,3,S*%
%TO.N,Net-(U12-S)*%
X28974160Y15348300D03*
%TD*%
D25*
%TO.P,C7,1*%
%TO.N,+3.3V*%
X20974160Y33475000D03*
%TO.P,C7,2*%
%TO.N,Earth*%
X20974160Y35025000D03*
%TD*%
D41*
%TO.P,C18,1*%
%TO.N,Net-(U6-VR_SYNTH)*%
X75449160Y5750000D03*
%TO.P,C18,2*%
%TO.N,Earth*%
X74809160Y5750000D03*
%TD*%
D13*
%TO.P,J15,1,Pin_1*%
%TO.N,/CS6*%
X44974160Y27750000D03*
D14*
%TO.P,J15,2,Pin_2*%
%TO.N,/CS5*%
X44974160Y25750000D03*
%TO.P,J15,3,Pin_3*%
%TO.N,/CS4*%
X46974160Y27750000D03*
%TO.P,J15,4,Pin_4*%
%TO.N,/CS3*%
X46974160Y25750000D03*
%TO.P,J15,5,Pin_5*%
%TO.N,/CS2*%
X48974160Y27750000D03*
%TO.P,J15,6,Pin_6*%
%TO.N,/CS1*%
X48974160Y25750000D03*
%TO.P,J15,7,Pin_7*%
%TO.N,/CS0*%
X50974160Y27750000D03*
%TO.P,J15,8,Pin_8*%
%TO.N,/USB11*%
X50974160Y25750000D03*
%TO.P,J15,9,Pin_9*%
%TO.N,/USB10*%
X52974160Y27750000D03*
%TO.P,J15,10,Pin_10*%
%TO.N,/PYROCTRL4*%
X52974160Y25750000D03*
%TO.P,J15,11,Pin_11*%
%TO.N,/PYROCTRL3*%
X54974160Y27750000D03*
%TO.P,J15,12,Pin_12*%
%TO.N,/PYROCTRL2*%
X54974160Y25750000D03*
%TO.P,J15,13,Pin_13*%
%TO.N,/PYROCTRL1*%
X56974160Y27750000D03*
%TO.P,J15,14,Pin_14*%
%TO.N,/PYROCTRL0*%
X56974160Y25750000D03*
%TD*%
D10*
%TO.P,C51,1*%
%TO.N,Net-(U6-SMPS2)*%
X68904160Y13250000D03*
%TO.P,C51,2*%
%TO.N,Net-(C51-Pad2)*%
X69544160Y13250000D03*
%TD*%
D54*
%TO.P,X1,1,EN*%
%TO.N,Net-(U6-XIN)*%
X67424160Y5925000D03*
%TO.P,X1,2,GND*%
%TO.N,Earth*%
X69524160Y5925000D03*
%TO.P,X1,3,OUT*%
%TO.N,Net-(U6-XOUT)*%
X69524160Y7575000D03*
%TO.P,X1,4,Vdd*%
%TO.N,+3.3V*%
X67424160Y7575000D03*
%TD*%
D22*
%TO.P,C35,1*%
%TO.N,Net-(U1-P2_5)*%
X50494160Y33750000D03*
%TO.P,C35,2*%
%TO.N,Earth*%
X51454160Y33750000D03*
%TD*%
D24*
%TO.P,J16,1*%
%TO.N,Vdrive*%
X92474160Y40350000D03*
%TO.P,J16,2*%
%TO.N,Earth*%
X92474160Y45430000D03*
%TD*%
D10*
%TO.P,C48,1*%
%TO.N,+3.3V*%
X78654160Y2250000D03*
%TO.P,C48,2*%
%TO.N,Earth*%
X79294160Y2250000D03*
%TD*%
D20*
%TO.P,R8,1*%
%TO.N,+3.3V*%
X57474160Y55410000D03*
%TO.P,R8,2*%
%TO.N,/INT14*%
X57474160Y54390000D03*
%TD*%
D48*
%TO.P,J2,1,VCC*%
%TO.N,Net-(J2-VCC)*%
X6149160Y46550000D03*
%TO.P,J2,2,D-*%
%TO.N,/USB0-D-*%
X6149160Y45900000D03*
%TO.P,J2,3,D+*%
%TO.N,/USB0-D+*%
X6149160Y45250000D03*
%TO.P,J2,4,ID*%
%TO.N,Earth*%
X6149160Y44600000D03*
%TO.P,J2,5,GND*%
X6149160Y43950000D03*
D49*
%TO.P,J2,S1,SHIELD*%
X3474160Y49200000D03*
%TO.P,J2,S2,SHIELD__1*%
X3474160Y46450000D03*
%TO.P,J2,S3,SHIELD__2*%
X3474160Y44050000D03*
%TO.P,J2,S4,SHIELD__3*%
X3474160Y41300000D03*
%TD*%
D10*
%TO.P,C33,1*%
%TO.N,Net-(U1-P2_5)*%
X57654160Y38750000D03*
%TO.P,C33,2*%
%TO.N,Earth*%
X58294160Y38750000D03*
%TD*%
D38*
%TO.P,U17,1,G*%
%TO.N,/CS6*%
X12324161Y61946600D03*
%TO.P,U17,2,D*%
%TO.N,Net-(J9-Pin_2)*%
X13624159Y61946600D03*
%TO.P,U17,3,S*%
%TO.N,+3.3V*%
X12974160Y63750000D03*
%TD*%
D51*
%TO.P,C9,1*%
%TO.N,/RF-PA-OUT-1*%
X91974160Y13270000D03*
%TO.P,C9,2*%
%TO.N,/RF-PA-OUT-2*%
X91974160Y14230000D03*
%TD*%
D52*
%TO.P,U5,1,SCL/SPC*%
%TO.N,/I2C1*%
X42211660Y36000000D03*
%TO.P,U5,2,CS_XL*%
%TO.N,/CS1*%
X42211660Y35500000D03*
%TO.P,U5,3,CS_MAG*%
%TO.N,/CS2*%
X42211660Y35000000D03*
%TO.P,U5,4,SDA/SDI/SDO*%
%TO.N,/I2C0*%
X42211660Y34500000D03*
D53*
%TO.P,U5,5,C1*%
%TO.N,/INT9*%
X42724160Y34487500D03*
%TO.P,U5,6,GND*%
%TO.N,Earth*%
X43224160Y34487500D03*
D52*
%TO.P,U5,7,INT_MAG*%
%TO.N,/INT7*%
X43736660Y34500000D03*
%TO.P,U5,8,GND*%
%TO.N,Earth*%
X43736660Y35000000D03*
%TO.P,U5,9,VDD*%
%TO.N,+3.3V*%
X43736660Y35500000D03*
%TO.P,U5,10,VDDIO*%
X43736660Y36000000D03*
D53*
%TO.P,U5,11,DRDY_MAG*%
%TO.N,/INT6*%
X43224160Y36012500D03*
%TO.P,U5,12,INT_XL*%
%TO.N,/INT8*%
X42724160Y36012500D03*
%TD*%
D23*
%TO.P,R6,1*%
%TO.N,Net-(U1-USB0_VBUS)*%
X8964160Y52750000D03*
%TO.P,R6,2*%
%TO.N,Earth*%
X9984160Y52750000D03*
%TD*%
D46*
%TO.P,U8,1,FB*%
%TO.N,+3.3V*%
X12336660Y38700000D03*
%TO.P,U8,2,EN*%
%TO.N,+BATT*%
X12336660Y37750000D03*
%TO.P,U8,3,IN*%
X12336660Y36800000D03*
%TO.P,U8,4,GND*%
%TO.N,Earth*%
X14611660Y36800000D03*
%TO.P,U8,5,SW*%
%TO.N,Net-(U8-SW)*%
X14611660Y37750000D03*
%TO.P,U8,6,BST*%
%TO.N,Net-(U8-BST)*%
X14611660Y38700000D03*
%TD*%
D55*
%TO.P,J13,1,Pin_1*%
%TO.N,Net-(J13-Pin_1)*%
X15474160Y57250000D03*
D14*
%TO.P,J13,2,Pin_2*%
%TO.N,Net-(J13-Pin_2)*%
X13474160Y57250000D03*
%TO.P,J13,3,Pin_3*%
%TO.N,Net-(J13-Pin_3)*%
X15474160Y55250000D03*
%TO.P,J13,4,Pin_4*%
%TO.N,Net-(J13-Pin_4)*%
X13474160Y55250000D03*
%TO.P,J13,5,Pin_5*%
%TO.N,Net-(J13-Pin_5)*%
X15474160Y53250000D03*
%TO.P,J13,6,Pin_6*%
%TO.N,Net-(J13-Pin_6)*%
X13474160Y53250000D03*
%TO.P,J13,7,Pin_7*%
%TO.N,Net-(J13-Pin_7)*%
X15474160Y51250000D03*
%TO.P,J13,8,Pin_8*%
%TO.N,Net-(J13-Pin_8)*%
X13474160Y51250000D03*
%TO.P,J13,9,Pin_9*%
%TO.N,Net-(J13-Pin_9)*%
X15474160Y49250000D03*
%TO.P,J13,10,Pin_10*%
%TO.N,Net-(J13-Pin_10)*%
X13474160Y49250000D03*
%TO.P,J13,11,Pin_11*%
%TO.N,Net-(J13-Pin_11)*%
X15474160Y47250000D03*
%TO.P,J13,12,Pin_12*%
%TO.N,Net-(J13-Pin_12)*%
X13474160Y47250000D03*
%TO.P,J13,13,Pin_13*%
%TO.N,Net-(J13-Pin_13)*%
X15474160Y45250000D03*
%TO.P,J13,14,Pin_14*%
%TO.N,Net-(J13-Pin_14)*%
X13474160Y45250000D03*
%TD*%
D56*
%TO.P,FL1,1,UBP*%
%TO.N,/RF-PA-IN*%
X83974160Y10660000D03*
D57*
%TO.P,FL1,2,RX/TX*%
%TO.N,/TRANSCEIVER-TX-0*%
X83474160Y10660000D03*
%TO.P,FL1,3,RF_N*%
%TO.N,/TXRX-*%
X82974160Y10660000D03*
%TO.P,FL1,4,RF_P*%
%TO.N,/TXRX+*%
X82974160Y9840000D03*
%TO.P,FL1,5,GND*%
%TO.N,Earth*%
X83474160Y9840000D03*
%TO.P,FL1,6,GND*%
X83974160Y9840000D03*
%TD*%
D58*
%TO.P,U10,1,GND*%
%TO.N,Earth*%
X88881960Y11910400D03*
%TO.P,U10,2,GND*%
X88881960Y11250000D03*
%TO.P,U10,3,RF-IN*%
%TO.N,Net-(U10-RF-IN)*%
X88881960Y10589600D03*
%TO.P,U10,4,BIAS*%
%TO.N,Net-(U10-BIAS)*%
X91066360Y10589600D03*
%TO.P,U10,5,GND*%
%TO.N,Earth*%
X91066360Y11250000D03*
%TO.P,U10,6,RF-OUT*%
%TO.N,/RF-PA-OUT-1*%
X91066360Y11910400D03*
%TD*%
D59*
%TO.N,+3.3V*%
X66003471Y43550000D03*
D60*
X42372106Y43872397D03*
X29399161Y62164106D03*
D61*
X10374160Y63650000D03*
D60*
X12499160Y28250000D03*
D59*
X45776345Y62053655D03*
D62*
X64924160Y56025000D03*
D60*
X37174160Y24650000D03*
D59*
X80899160Y42950000D03*
D60*
X56574160Y13450000D03*
D59*
X66624160Y39300239D03*
D61*
X50124160Y49738745D03*
X84926345Y40778655D03*
D62*
X78774160Y62650000D03*
X29049160Y57350000D03*
D61*
X48774160Y64650000D03*
X45474400Y34775000D03*
X29974160Y43750000D03*
X78574160Y5050000D03*
D59*
X10974160Y35750000D03*
D62*
X80774160Y38850000D03*
D60*
X89474160Y1778655D03*
D62*
X53854160Y50776207D03*
X80774160Y56050000D03*
D60*
X65374160Y8050000D03*
D61*
X72774160Y15250000D03*
X87974160Y15250000D03*
%TO.N,Net-(U10-BIAS)*%
X87651345Y13250000D03*
D62*
X92301345Y9828655D03*
D61*
X96474160Y13750000D03*
X87474160Y9750000D03*
%TO.N,Net-(U6-VR_RF)*%
X80474160Y7750000D03*
X81974160Y3250000D03*
%TO.N,/UART00*%
X75649160Y31775000D03*
X67060925Y26625000D03*
X15924160Y62850000D03*
X21824160Y37250000D03*
X40299160Y39475000D03*
X26874160Y37650000D03*
X33499160Y20650000D03*
%TO.N,/UART01*%
X21799160Y38075000D03*
X17924160Y64325000D03*
X34224160Y36100000D03*
X34949160Y38975000D03*
X75074160Y32350000D03*
X39374160Y39450000D03*
X32699160Y31850000D03*
X26349160Y38450000D03*
D62*
%TO.N,Net-(U18-SW)*%
X17974160Y23750000D03*
X17976345Y19703655D03*
D61*
%TO.N,/I2C0*%
X50926320Y53849310D03*
X90724160Y55225000D03*
X67799160Y67225000D03*
X39495011Y35750000D03*
%TO.N,/I2C1*%
X91574160Y48725000D03*
X50124160Y48303891D03*
X49974160Y54750000D03*
%TO.N,/INT14*%
X48624160Y35775000D03*
X49099160Y41769002D03*
X44596216Y38650000D03*
X53192590Y51978655D03*
X73624160Y35417137D03*
X57374160Y54250000D03*
X52729160Y48511052D03*
X57674160Y52672270D03*
X50428475Y46877845D03*
%TO.N,/CS0*%
X32124160Y30425000D03*
X61949160Y28150000D03*
X33474160Y27750000D03*
X57324160Y23361764D03*
X64023425Y40050000D03*
%TO.N,/INT10*%
X63198978Y35375000D03*
X62957415Y28169528D03*
X26974160Y27850000D03*
X30374160Y36450000D03*
X69374160Y24175000D03*
%TO.N,/INT11*%
X75249160Y30975000D03*
X32126345Y23253655D03*
X33103073Y17750000D03*
X35151345Y20303655D03*
X29974160Y38050000D03*
%TO.N,/INT1*%
X23974160Y60250000D03*
X62999160Y57775000D03*
X54351345Y55100000D03*
%TO.N,/INT2*%
X57424160Y57800000D03*
X28274160Y59150000D03*
X53645458Y55743131D03*
%TO.N,/SPI1*%
X56066891Y53319201D03*
X54975615Y42822750D03*
X53426345Y53486123D03*
X73474160Y67750000D03*
%TO.N,/INT0*%
X59874160Y56850000D03*
X52870483Y56267892D03*
X30949160Y60175000D03*
X23199160Y62300000D03*
%TO.N,/CS1*%
X61149548Y33850000D03*
X46216338Y32470899D03*
X40024160Y35150000D03*
X32474160Y34812501D03*
%TO.N,/INT6*%
X61347682Y26462736D03*
X22774160Y54650000D03*
X33874160Y34125000D03*
X43949160Y36900000D03*
X48921425Y24651265D03*
X39299160Y33225000D03*
X60649160Y51375000D03*
X78499160Y34625000D03*
X38155167Y37945130D03*
%TO.N,/INT9*%
X72774160Y30975000D03*
X56524160Y16125000D03*
X38974160Y38125000D03*
X67699160Y25925000D03*
X39874160Y44375000D03*
X43524160Y45050000D03*
X76249160Y35675000D03*
X85856382Y40360453D03*
X37374160Y33900000D03*
X46099160Y46900000D03*
X43399160Y27775000D03*
X48899160Y22275000D03*
%TO.N,/CS2*%
X60686660Y30800000D03*
X28799160Y40250000D03*
X63806013Y34853931D03*
X40804169Y34969348D03*
%TO.N,/INT7*%
X45349160Y36725000D03*
X68065483Y39394879D03*
X46997690Y42975000D03*
X50497687Y30425000D03*
X81744303Y39092537D03*
X46874160Y35175000D03*
X41581260Y40556248D03*
X62465436Y27475000D03*
%TO.N,/INT8*%
X60624160Y28525000D03*
X81399160Y40750000D03*
X42449160Y36800000D03*
X45374160Y45375000D03*
X71399160Y34075000D03*
X45149160Y31100000D03*
X78174160Y40750000D03*
X37399160Y44825000D03*
%TO.N,/SPIFI2*%
X74474160Y61750000D03*
X42652125Y68927965D03*
X42652125Y67338858D03*
%TO.N,/SPIFI4*%
X42064160Y65010000D03*
X43871216Y66250000D03*
X69924160Y66550000D03*
X74474160Y66750000D03*
%TO.N,/CS5*%
X77349160Y61550000D03*
X48224160Y33250000D03*
X37474160Y66000000D03*
X57999160Y64200000D03*
X60624160Y65600000D03*
X51724160Y41000000D03*
X73849160Y57250000D03*
X48974160Y56500000D03*
X47637395Y63738235D03*
%TO.N,/PYROCTRL0*%
X61724160Y58850000D03*
X74949160Y24950000D03*
X45901345Y64853655D03*
X44974160Y66250000D03*
X59163599Y35757311D03*
X81999160Y60350000D03*
%TO.N,Earth*%
X21526345Y58203655D03*
X49886185Y52921795D03*
X54499160Y57725000D03*
X93201345Y10728655D03*
D59*
X38849160Y31225000D03*
X15249160Y21550000D03*
D61*
X27749160Y60350000D03*
X28824160Y22100000D03*
D59*
X31224160Y57525000D03*
D62*
X83799160Y9600000D03*
D61*
X42974160Y35275000D03*
X79399160Y4175000D03*
X77951345Y32753655D03*
X83999160Y2225000D03*
D59*
X19899160Y14950000D03*
D61*
X14676345Y46178655D03*
X32549160Y65075000D03*
D59*
X28849160Y30425000D03*
D61*
X68699160Y56000000D03*
D59*
X30999160Y19775000D03*
D61*
X90226345Y13253655D03*
X53374160Y60075000D03*
D59*
X49099160Y14750000D03*
D61*
X72420843Y35665743D03*
X71649160Y42800000D03*
X85624160Y13350000D03*
X74424160Y6125000D03*
D62*
X55024160Y67800000D03*
D59*
X5099160Y65475000D03*
D61*
X89669460Y11910400D03*
D59*
X3349160Y40775000D03*
D61*
X86249160Y60075000D03*
X89551345Y13178655D03*
X51624160Y36875000D03*
D59*
X39436660Y17092900D03*
X64349160Y69200000D03*
X28349160Y34625000D03*
D62*
X57899160Y68175000D03*
D61*
X69749160Y10550000D03*
D59*
X10099160Y14650000D03*
D61*
X48924160Y45802174D03*
X34851345Y47978655D03*
X26750999Y42627473D03*
X82424160Y4225000D03*
X17876345Y46178655D03*
X89751345Y12528655D03*
X88881960Y11910400D03*
D59*
X28199160Y17400000D03*
D61*
X84524160Y39700000D03*
D59*
X7499160Y43875000D03*
D61*
X90301345Y11253655D03*
D59*
X23449160Y20075000D03*
X7174160Y56225000D03*
D61*
X48826345Y47903655D03*
D59*
X64219938Y73050000D03*
D61*
X88881960Y11339600D03*
X88976345Y12532185D03*
X69151345Y35778655D03*
D60*
X67424160Y48500000D03*
D61*
X73449160Y8200000D03*
X12901345Y65328655D03*
D59*
X14449160Y34325000D03*
D62*
X95624160Y11525000D03*
D61*
X92476345Y11128655D03*
X73501345Y43353655D03*
X88326345Y12553655D03*
X27124160Y51025000D03*
X52376345Y34203655D03*
D62*
X69674160Y5750000D03*
D61*
X88299160Y11854924D03*
X79424160Y2275000D03*
X63224160Y55100000D03*
D59*
X73974160Y17675000D03*
D62*
X76724160Y15425000D03*
D61*
X65224160Y35625000D03*
X30276345Y46528655D03*
X89608024Y11284900D03*
X72024160Y10750000D03*
X48801345Y49903655D03*
X46649160Y63400000D03*
D59*
X5652080Y66202920D03*
D61*
X70199160Y3775000D03*
D62*
X25126345Y23778655D03*
D59*
X16374160Y40425000D03*
D61*
X82499160Y58400000D03*
%TO.N,/PYROCTRL1*%
X49424159Y60700000D03*
X79249160Y57050000D03*
X43574160Y64850000D03*
X58374160Y55850000D03*
X55899160Y32300000D03*
%TO.N,/PYROCTRL2*%
X80074160Y61150000D03*
X58874160Y24900000D03*
X67349160Y30825000D03*
X70224160Y60650000D03*
X42774160Y65650000D03*
X56249160Y57800000D03*
%TO.N,/PYROCTRL3*%
X59494512Y25405139D03*
X43474160Y39250001D03*
X73774160Y31150000D03*
%TO.N,/PYROCTRL4*%
X59968499Y23050694D03*
X74649160Y30000000D03*
X42524160Y38502945D03*
%TO.N,/PYROCTRL5*%
X70174160Y68850000D03*
X40774842Y62441359D03*
%TO.N,/INT18*%
X49974160Y44575000D03*
X56889411Y39348962D03*
X52949160Y45850000D03*
X45599160Y38450000D03*
X86542941Y40771113D03*
%TO.N,/INT12*%
X59224160Y50500000D03*
X54774160Y42048528D03*
X67504018Y38825000D03*
X32924160Y40450000D03*
X49734875Y42827356D03*
X60124160Y52175000D03*
X56974160Y43500000D03*
X75024160Y42975000D03*
X58540953Y45010191D03*
X63299160Y52775000D03*
X78676345Y39303655D03*
%TO.N,/INT20*%
X65224162Y42150000D03*
X54924160Y37250000D03*
X54574160Y46450000D03*
X81899160Y43325000D03*
X49556267Y40569363D03*
X52874160Y41750000D03*
X42674160Y50475000D03*
X59374160Y34957517D03*
X51584160Y43800000D03*
%TO.N,/INT13*%
X45995536Y37196380D03*
X37200633Y39475000D03*
X49314160Y34566473D03*
X59374160Y34007087D03*
X42308425Y32650000D03*
X69247252Y34075001D03*
X56774160Y44916778D03*
X49274160Y39700000D03*
X61949160Y35325000D03*
X55399160Y35750000D03*
X58405434Y51706486D03*
%TO.N,/USB11*%
X54074160Y36800000D03*
X52574160Y47424999D03*
X51948749Y24037582D03*
X76849160Y31539213D03*
X55599160Y18100000D03*
X86999160Y47425000D03*
X55121726Y44950000D03*
%TO.N,/SPIFI3*%
X50974160Y65250000D03*
X75974160Y61750000D03*
%TO.N,/INT19*%
X45499160Y48075000D03*
X54088467Y45814307D03*
X45748542Y44627245D03*
X49247889Y44223452D03*
X56922507Y41457493D03*
X54874160Y43725000D03*
X69490659Y40575000D03*
%TO.N,/USB10*%
X52999160Y30925000D03*
X87624895Y38474265D03*
X52356708Y44007781D03*
X59909178Y30611519D03*
X53087395Y35788236D03*
X52899160Y32325000D03*
X68449160Y28575000D03*
%TO.N,/INT17*%
X36074160Y36075000D03*
X41824160Y23850000D03*
X52599160Y46600000D03*
X49146990Y45017067D03*
X76899160Y32775000D03*
X42149160Y41125000D03*
%TO.N,/INT16*%
X41799160Y24876652D03*
X49949500Y47523189D03*
X36799160Y36525000D03*
X52549160Y50875000D03*
X76324160Y33675000D03*
X41074160Y41175000D03*
X37224160Y41075000D03*
%TO.N,/CS6*%
X68447253Y34072621D03*
X15374160Y61850000D03*
X43799160Y25100000D03*
X50401189Y24102030D03*
X31724160Y36250000D03*
%TO.N,Net-(U6-XIN)*%
X74352127Y8208948D03*
X68574160Y4650000D03*
%TO.N,Net-(U6-XOUT)*%
X73688933Y9475046D03*
X69574160Y7850000D03*
%TO.N,/INT4*%
X59549160Y49650000D03*
X24098616Y57364518D03*
X61949160Y33875000D03*
X60424160Y37625000D03*
X77974160Y14750000D03*
X61949160Y28998527D03*
X60099160Y53800000D03*
X70298425Y26075735D03*
%TO.N,/INT5*%
X38624160Y22475000D03*
X78574160Y17450000D03*
X24174160Y56250000D03*
X70722689Y27850000D03*
X36349160Y20225000D03*
X64188375Y30169528D03*
X63024160Y51975000D03*
%TO.N,/INT3*%
X63224158Y53900000D03*
X79124160Y35525000D03*
X70355944Y27070925D03*
X23474160Y55750000D03*
X78574160Y15450000D03*
%TO.N,Net-(U1-P2_5)*%
X58451345Y42378655D03*
X54649160Y39750000D03*
X56599160Y36834103D03*
X45874160Y53200000D03*
X55268544Y33607087D03*
X60149160Y43706931D03*
X88824160Y47325000D03*
X59174160Y48900000D03*
%TO.N,Net-(J12-D-)*%
X40473425Y68900735D03*
X65299160Y46475000D03*
X62224160Y60000000D03*
%TO.N,Net-(J12-D+)*%
X14974160Y65175000D03*
X7974160Y58250000D03*
X64926856Y47183090D03*
X35399160Y65675000D03*
X64474160Y62000000D03*
%TO.N,Net-(U1-USB0_VBUS)*%
X56470061Y42357151D03*
X52149160Y35475000D03*
X60675894Y46412612D03*
X50829617Y21575000D03*
X56299160Y39950000D03*
X8974160Y51750000D03*
X19299895Y51924265D03*
X8974160Y55750000D03*
X20824160Y50200000D03*
%TO.N,/USB0-D+*%
X7974160Y45250000D03*
X18461660Y50237500D03*
%TO.N,Net-(J18-Pin_9)*%
X36549160Y68225000D03*
X42549160Y62325000D03*
X45588905Y58535786D03*
X86174160Y51925000D03*
%TO.N,/CS4*%
X67247519Y34448475D03*
X33126567Y33840203D03*
X41509412Y32610252D03*
X68375631Y31612745D03*
%TO.N,Net-(J18-Pin_12)*%
X44924160Y51275000D03*
X22274160Y58900000D03*
X34624160Y59850000D03*
X87024160Y46125000D03*
%TO.N,Net-(J18-Pin_10)*%
X86624160Y50350000D03*
X45199160Y56450003D03*
X31574160Y66300000D03*
%TO.N,Net-(J18-Pin_8)*%
X84974160Y61450000D03*
X45874160Y59450000D03*
%TO.N,Net-(J18-Pin_14)*%
X39073425Y48400735D03*
X44924160Y50075000D03*
X86099160Y44650000D03*
X42549160Y53800000D03*
X29624160Y66325000D03*
%TO.N,Net-(J18-Pin_11)*%
X45199160Y55650000D03*
X88199160Y50050000D03*
X32299160Y72375000D03*
%TO.N,Net-(J18-Pin_13)*%
X86249160Y45850000D03*
X43874160Y51275000D03*
%TO.N,/INT21*%
X72649160Y22750000D03*
X41074157Y37850000D03*
X35499160Y26600000D03*
X44261660Y49312500D03*
X32149160Y40250000D03*
X75149160Y8750000D03*
X76299160Y27525000D03*
%TO.N,/TRANSCEIVER-TX-0*%
X84474160Y11750000D03*
X82974160Y6750000D03*
%TO.N,/TRANSCEIVER-TX*%
X79324160Y6500000D03*
X77226345Y2250000D03*
%TO.N,/TXRX+*%
X81474160Y10250000D03*
X82474160Y8750000D03*
%TO.N,Net-(J13-Pin_4)*%
X63624162Y41750000D03*
X61474160Y17025000D03*
%TO.N,Net-(J13-Pin_2)*%
X68074160Y46675000D03*
X65024160Y34007087D03*
X77899160Y44925000D03*
%TO.N,Net-(J13-Pin_7)*%
X64603471Y43503655D03*
X21774160Y57350000D03*
X79199160Y53475000D03*
%TO.N,Net-(J13-Pin_10)*%
X22349160Y43225000D03*
X25149160Y42700000D03*
X27549160Y47700000D03*
%TO.N,Net-(J13-Pin_12)*%
X18624160Y47975000D03*
%TO.N,Net-(J13-Pin_9)*%
X27549160Y45053655D03*
%TO.N,Net-(J13-Pin_8)*%
X20149160Y48850000D03*
%TO.N,Net-(J13-Pin_6)*%
X34351345Y23378655D03*
X63162111Y40050000D03*
X32126345Y17528655D03*
%TO.N,Net-(J13-Pin_3)*%
X62936212Y43418127D03*
X79599160Y49950000D03*
X67715042Y49560845D03*
X83967980Y63293821D03*
%TO.N,Net-(J13-Pin_5)*%
X60322979Y41724995D03*
%TO.N,Net-(J13-Pin_11)*%
X24835873Y47407887D03*
X22349160Y45525000D03*
%TO.N,Net-(J13-Pin_14)*%
X29801345Y27678655D03*
X60574160Y40525000D03*
X56924160Y20475000D03*
X52274160Y51700000D03*
%TO.N,Net-(U1-P1_8)*%
X70149160Y34003655D03*
X34574160Y41100000D03*
%TO.N,Net-(U1-P2_10)*%
X61774160Y62850000D03*
X54174160Y62450000D03*
X85774160Y54650000D03*
X68174160Y61850000D03*
%TO.N,Net-(U1-P1_7)*%
X75525633Y40575000D03*
X35868108Y44142758D03*
%TO.N,Net-(U1-P1_9)*%
X36656952Y43574834D03*
X73412924Y38772508D03*
%TO.N,Net-(U1-P1_4)*%
X30899160Y47250000D03*
X71349160Y39539214D03*
X32749160Y43700000D03*
X31549160Y53750000D03*
X78574160Y52875000D03*
X77999160Y43800000D03*
%TO.N,Net-(U1-P1_6)*%
X34210602Y44150000D03*
X70849157Y42800000D03*
X67299160Y46150000D03*
X70342787Y35850433D03*
%TO.N,Net-(U1-P1_5)*%
X77049160Y43725000D03*
X32499160Y47375000D03*
X33410599Y44150000D03*
X72121901Y39746270D03*
X32424160Y54100000D03*
X78210491Y52073470D03*
%TO.N,/SPIFI1*%
X47474160Y64750000D03*
X73974160Y61125499D03*
X72774160Y61250000D03*
X39974160Y66750000D03*
%TO.N,/SPI2*%
X58474160Y60750000D03*
X52489926Y52470355D03*
X53574160Y43480385D03*
X55376345Y52878655D03*
%TO.N,/SPI0*%
X60140953Y45150000D03*
X55932738Y56122794D03*
X59373424Y40525735D03*
X52289846Y57950000D03*
%TO.N,Net-(C51-Pad2)*%
X70724160Y13250000D03*
X71724160Y6750000D03*
%TO.N,/CS3*%
X46135190Y30962500D03*
X46274160Y40575000D03*
X54974160Y59750000D03*
X66612948Y33961316D03*
X64922689Y30625000D03*
X49874160Y59500000D03*
X47204553Y37644607D03*
X51979206Y53086123D03*
X30474160Y40750000D03*
%TD*%
D63*
%TO.N,+3.3V*%
X81224160Y49500000D02*
X81174160Y49450000D01*
X57274160Y56750000D02*
X57274160Y55450000D01*
D64*
X77024160Y40350000D02*
X74949160Y38275000D01*
D63*
X74724160Y37087500D02*
X74224160Y37087500D01*
D65*
X72654160Y13211422D02*
X73244136Y12621446D01*
X44674160Y45775000D02*
X44824160Y45925000D01*
D66*
X25523730Y21075000D02*
X28799160Y21075000D01*
D63*
X67224160Y58412500D02*
X67224160Y56100000D01*
X45974160Y61980090D02*
X46589205Y61365045D01*
D65*
X73244136Y12621446D02*
X74015582Y11850000D01*
D64*
X66003471Y43550000D02*
X67299160Y42254311D01*
D66*
X14549160Y28250000D02*
X23074160Y28250000D01*
D63*
X34561660Y64432410D02*
X34829250Y64700000D01*
X44561660Y62892590D02*
X44561660Y63662500D01*
X63024160Y48650000D02*
X63024160Y48850000D01*
D67*
X13336660Y26200000D02*
X13336660Y28162500D01*
D66*
X48170030Y19710500D02*
X50313660Y19710500D01*
D63*
X73974160Y7070000D02*
X73794160Y7070000D01*
X31449160Y43700000D02*
X30654250Y43700000D01*
X31561660Y62892590D02*
X31829250Y62625000D01*
D65*
X39287830Y43475000D02*
X39474160Y43475000D01*
D67*
X23074160Y33065000D02*
X23484160Y33475000D01*
D65*
X45449160Y34775000D02*
X44649160Y35575000D01*
D64*
X13336660Y26200000D02*
X13711660Y26575000D01*
D65*
X54437961Y52636200D02*
X54002166Y53071995D01*
X75186660Y11850000D02*
X74015582Y11850000D01*
D63*
X76534160Y16329999D02*
X76534160Y18050000D01*
D65*
X36384210Y44850000D02*
X37534210Y43700000D01*
X37199160Y24475000D02*
X37199160Y24625000D01*
D68*
X20199160Y20925000D02*
X23024160Y23750000D01*
D64*
X87964160Y15240000D02*
X87974160Y15250000D01*
D63*
X80724160Y37087500D02*
X80724160Y38100000D01*
D67*
X72974160Y19750000D02*
X72564160Y19340000D01*
D63*
X38561660Y42607410D02*
X38561660Y42337500D01*
X36561660Y63662500D02*
X36561660Y62892590D01*
X65889416Y7575000D02*
X65889416Y5659744D01*
X72764160Y15240000D02*
X72774160Y15250000D01*
X75899160Y13675000D02*
X76224160Y14000000D01*
X31136660Y23412500D02*
X31136660Y23049568D01*
X31561660Y64432410D02*
X31561660Y63662500D01*
X28199160Y48469910D02*
X27474160Y49194910D01*
X10374160Y63650000D02*
X10474160Y63750000D01*
D64*
X13711660Y26575000D02*
X13711660Y27212500D01*
D63*
X74724160Y38200000D02*
X74799160Y38275000D01*
X72224160Y56100000D02*
X72174160Y56050000D01*
X27474160Y49194910D02*
X26919070Y49750000D01*
D64*
X67754822Y40144879D02*
X68860121Y40144879D01*
D63*
X61811660Y54500000D02*
X64224160Y54500000D01*
X77399160Y8612500D02*
X77399160Y6443456D01*
D64*
X10374160Y63650000D02*
X12874160Y63650000D01*
X67299160Y41450000D02*
X67299160Y42254311D01*
D65*
X72647690Y14250000D02*
X72326345Y13928655D01*
D64*
X66049160Y47175000D02*
X64574160Y48650000D01*
D63*
X78654160Y2250000D02*
X78654160Y2850000D01*
X43736660Y35500000D02*
X43736660Y36000000D01*
D65*
X45474400Y34775000D02*
X45449160Y34775000D01*
D63*
X73499160Y34498456D02*
X73840704Y34840000D01*
X67224160Y56100000D02*
X67174160Y56050000D01*
X83136660Y56000000D02*
X80824160Y56000000D01*
D65*
X53990317Y50776207D02*
X55064110Y51850000D01*
D63*
X31294070Y64700000D02*
X31561660Y64432410D01*
X36294070Y64700000D02*
X36561660Y64432410D01*
D67*
X13336660Y28162500D02*
X13424160Y28250000D01*
D66*
X23074160Y23524570D02*
X24548730Y22050000D01*
D63*
X78654160Y5188456D02*
X78654160Y5130000D01*
X31561660Y63662500D02*
X31561660Y62892590D01*
X42372106Y44065130D02*
X42358243Y44078993D01*
X67424160Y7575000D02*
X65889416Y7575000D01*
D66*
X12499160Y28250000D02*
X13424160Y28250000D01*
D63*
X45704250Y62250000D02*
X45974160Y62250000D01*
X78654160Y4970000D02*
X78654160Y4250000D01*
X44824160Y45925000D02*
X45149160Y46250000D01*
X57114160Y56910000D02*
X57274160Y56750000D01*
D64*
X73974160Y38275000D02*
X74574160Y38275000D01*
D63*
X53854160Y50776207D02*
X54210453Y50776207D01*
X63124160Y44900000D02*
X62724160Y44500000D01*
X45061660Y43107410D02*
X45061660Y42337500D01*
X29561660Y62392590D02*
X29561660Y63662500D01*
D65*
X42372106Y43872397D02*
X43336507Y43872397D01*
D63*
X74724160Y37087500D02*
X74474160Y37337500D01*
X45974160Y62250000D02*
X45974160Y62150000D01*
D64*
X12874160Y63650000D02*
X12974160Y63750000D01*
D65*
X20199160Y18240000D02*
X20199160Y20925000D01*
D63*
X27446615Y53222455D02*
X27446615Y54647455D01*
D65*
X72654160Y14250000D02*
X72647690Y14250000D01*
D63*
X62724160Y44500000D02*
X61811660Y44500000D01*
X27674160Y22937500D02*
X27674160Y21075000D01*
X49964160Y49898745D02*
X49964160Y50250000D01*
X29199592Y22937500D02*
X27674160Y22937500D01*
D66*
X13424160Y28250000D02*
X13899160Y28250000D01*
D64*
X72940766Y41625000D02*
X75749160Y41625000D01*
D65*
X72326345Y13928655D02*
X72354160Y13928655D01*
D64*
X64924160Y56025000D02*
X64949160Y56050000D01*
D65*
X44499160Y54525000D02*
X44499160Y53318750D01*
D66*
X41574160Y22650000D02*
X45230530Y22650000D01*
D64*
X67174160Y56050000D02*
X68674160Y54550000D01*
D63*
X64924160Y56025000D02*
X65224160Y56325000D01*
X57114160Y57000000D02*
X57114160Y56910000D01*
D67*
X72564160Y19340000D02*
X72564160Y14250000D01*
D63*
X27446615Y53222455D02*
X26946615Y53722455D01*
X62874160Y49000000D02*
X61811660Y49000000D01*
X27474160Y49194910D02*
X28224160Y49944910D01*
X44455000Y35575000D02*
X44030000Y36000000D01*
X65474160Y14250000D02*
X72654160Y14250000D01*
D65*
X53854160Y50776207D02*
X53990317Y50776207D01*
D64*
X12636660Y30750000D02*
X12636660Y27750000D01*
D63*
X73899160Y11825000D02*
X72764160Y12960000D01*
D66*
X13899160Y28250000D02*
X14549160Y28250000D01*
D64*
X64224160Y54500000D02*
X64524160Y54200000D01*
X80774160Y38450000D02*
X80774160Y38850000D01*
D63*
X73840704Y34840000D02*
X74224160Y34840000D01*
X84705000Y41000000D02*
X83136660Y41000000D01*
X78654160Y5130000D02*
X78574160Y5050000D01*
X26946615Y53722455D02*
X26919070Y53750000D01*
D66*
X89474160Y5599500D02*
X89624660Y5750000D01*
D63*
X65889416Y5659744D02*
X69974160Y1575000D01*
X45149160Y46250000D02*
X45774160Y46250000D01*
D65*
X44649160Y35575000D02*
X43736660Y35575000D01*
D66*
X24548730Y22050000D02*
X25523730Y21075000D01*
D64*
X12899160Y30487500D02*
X12636660Y30750000D01*
D65*
X43336507Y43872397D02*
X44674160Y45210050D01*
D63*
X47474160Y54750000D02*
X45936660Y54750000D01*
D64*
X13899160Y28250000D02*
X13899160Y27850000D01*
D63*
X75899160Y12537500D02*
X75899160Y13675000D01*
D64*
X14549160Y27412500D02*
X14549160Y28250000D01*
D65*
X54002166Y53071995D02*
X54126345Y53196173D01*
D63*
X78574160Y5050000D02*
X78654160Y4970000D01*
X74224160Y38025000D02*
X73974160Y38275000D01*
X63974160Y12750000D02*
X65474160Y14250000D01*
D64*
X81174160Y55650000D02*
X80774160Y56050000D01*
D65*
X37199160Y26230000D02*
X37199160Y31250000D01*
D63*
X78654160Y2850000D02*
X78654160Y4250000D01*
D65*
X65574160Y38375000D02*
X64899160Y39050000D01*
D64*
X64924160Y55200000D02*
X64224160Y54500000D01*
X49079160Y64345000D02*
X48774160Y64650000D01*
D66*
X89474160Y1778655D02*
X89474160Y5599500D01*
D63*
X70224160Y58412500D02*
X70224160Y56100000D01*
X39974160Y43375000D02*
X39474160Y43375000D01*
X44794070Y43375000D02*
X39974160Y43375000D01*
X75654160Y15250000D02*
X75654160Y15449999D01*
X62874160Y48500000D02*
X63024160Y48650000D01*
D65*
X44499160Y60675000D02*
X44499160Y54525000D01*
D63*
X39474160Y43375000D02*
X39149160Y43700000D01*
X63974160Y9490256D02*
X63974160Y12750000D01*
D65*
X37199160Y24675000D02*
X37199160Y26230000D01*
D63*
X36561660Y62892590D02*
X38004250Y61450000D01*
D65*
X75186660Y11937500D02*
X75186660Y11850000D01*
X55184160Y56197500D02*
X55236660Y56250000D01*
D64*
X67299160Y41450000D02*
X64899160Y39050000D01*
D63*
X39474160Y43375000D02*
X39329250Y43375000D01*
X43119070Y61450000D02*
X44294070Y62625000D01*
X65374160Y8090256D02*
X63974160Y9490256D01*
X65414416Y8050000D02*
X65374160Y8050000D01*
D65*
X18464160Y33475000D02*
X25994160Y33475000D01*
D67*
X23074160Y28250000D02*
X23074160Y33065000D01*
D63*
X29561660Y64432410D02*
X29829250Y64700000D01*
D64*
X74574160Y38275000D02*
X74799160Y38275000D01*
D63*
X74724160Y37087500D02*
X74724160Y38200000D01*
D67*
X13424160Y28250000D02*
X13424160Y27500000D01*
D63*
X29324160Y56525000D02*
X29324160Y59750000D01*
X73474160Y6750000D02*
X73474160Y5631544D01*
D64*
X74799160Y38275000D02*
X80549160Y38275000D01*
D63*
X29324160Y59750000D02*
X26149160Y59750000D01*
D64*
X13899160Y26762500D02*
X13899160Y27025000D01*
X13899160Y27025000D02*
X13899160Y28250000D01*
D65*
X55224160Y51850000D02*
X54437961Y52636200D01*
X78774160Y62650000D02*
X77074160Y62650000D01*
D63*
X26149160Y44250000D02*
X28199160Y44250000D01*
D64*
X67315483Y39705540D02*
X67754822Y40144879D01*
D63*
X39329250Y43375000D02*
X38561660Y42607410D01*
D65*
X72326345Y13928655D02*
X72176345Y13778655D01*
D64*
X13336660Y26200000D02*
X13899160Y26762500D01*
D63*
X28199160Y44250000D02*
X28199160Y48469910D01*
D64*
X64524160Y49150000D02*
X64224160Y48850000D01*
D63*
X83136660Y49500000D02*
X81224160Y49500000D01*
X84926345Y40778655D02*
X84705000Y41000000D01*
X45974160Y62150000D02*
X45924160Y62100000D01*
X70224160Y56100000D02*
X70174160Y56050000D01*
D65*
X72654160Y13211422D02*
X72654160Y13450000D01*
D64*
X80499160Y43350000D02*
X80499160Y48775000D01*
D63*
X80224160Y56600000D02*
X80774160Y56050000D01*
D65*
X27494160Y30750000D02*
X27494160Y31310000D01*
D67*
X66624160Y39300239D02*
X66624399Y39300239D01*
D63*
X74224160Y37087500D02*
X74474160Y37337500D01*
X45936660Y54750000D02*
X45836660Y54650000D01*
D64*
X71157560Y40700000D02*
X72015766Y40700000D01*
X74949160Y38275000D02*
X73974160Y38275000D01*
D63*
X73794160Y7070000D02*
X73474160Y6750000D01*
X39061660Y43107410D02*
X39061660Y42337500D01*
X63024160Y48650000D02*
X64024160Y48650000D01*
D65*
X65574160Y38250000D02*
X65574160Y38375000D01*
D63*
X30329250Y43375000D02*
X30061660Y43107410D01*
X29561660Y63662500D02*
X29561660Y64432410D01*
X34294070Y62625000D02*
X34561660Y62892590D01*
D64*
X13336660Y26200000D02*
X12899160Y26637500D01*
D65*
X54126345Y53832235D02*
X55184160Y54890050D01*
D64*
X42372106Y43872397D02*
X42024709Y43525000D01*
D63*
X76224160Y14000000D02*
X75654160Y14570000D01*
D66*
X23074160Y28250000D02*
X23074160Y23524570D01*
D68*
X10999160Y38700000D02*
X10974160Y38675000D01*
D65*
X37199160Y24625000D02*
X37174160Y24650000D01*
D68*
X12336660Y38700000D02*
X10999160Y38700000D01*
D66*
X29867789Y21075000D02*
X30158475Y21365685D01*
D63*
X26676705Y53722455D02*
X26149160Y54250000D01*
X28224160Y52444910D02*
X27446615Y53222455D01*
X54039846Y54250000D02*
X54039846Y53918734D01*
X44649160Y35575000D02*
X44455000Y35575000D01*
D65*
X72974160Y19750000D02*
X72974160Y15450000D01*
D63*
X29974160Y21887068D02*
X29974160Y21550000D01*
X73499160Y34340000D02*
X73499160Y34498456D01*
X45836660Y54650000D02*
X44624160Y54650000D01*
X63024160Y48850000D02*
X62874160Y49000000D01*
D65*
X39149160Y43613670D02*
X39287830Y43475000D01*
D63*
X45474400Y34775000D02*
X45349160Y34900240D01*
X29474160Y23250000D02*
X29474160Y23212068D01*
D65*
X72654160Y13450000D02*
X75674160Y13450000D01*
D64*
X37949160Y43525000D02*
X37774160Y43700000D01*
D63*
X34561660Y63662500D02*
X34561660Y64432410D01*
D64*
X66774160Y39450000D02*
X66899160Y39575000D01*
D63*
X72764160Y15260000D02*
X72764160Y16040000D01*
D64*
X64524160Y54200000D02*
X64524160Y49150000D01*
D63*
X74474160Y37337500D02*
X74474160Y38175000D01*
D65*
X27494160Y31310000D02*
X29974160Y33790000D01*
D63*
X53711660Y57500000D02*
X53254062Y57500000D01*
D65*
X72654160Y14250000D02*
X72654160Y13628655D01*
D63*
X72764160Y16040000D02*
X72974160Y16250000D01*
D66*
X23024160Y23574570D02*
X24548730Y22050000D01*
D64*
X65874160Y44900000D02*
X66049160Y45075000D01*
X81174160Y49450000D02*
X81174160Y55650000D01*
D65*
X41974160Y50035050D02*
X45766685Y46242525D01*
D63*
X74224160Y37087500D02*
X74224160Y38025000D01*
D66*
X12474160Y28250000D02*
X12499160Y28250000D01*
X23074160Y23524570D02*
X25523730Y21075000D01*
D64*
X72015766Y40700000D02*
X72940766Y41625000D01*
D63*
X64024160Y48650000D02*
X64224160Y48850000D01*
D64*
X65574160Y38250000D02*
X66774160Y39450000D01*
D63*
X57114160Y57000000D02*
X57164160Y56950000D01*
X72764160Y12960000D02*
X72764160Y15240000D01*
D64*
X66899160Y39575000D02*
X67315483Y39575000D01*
D65*
X75674160Y13450000D02*
X75674160Y12425000D01*
D64*
X64424160Y48650000D02*
X64224160Y48850000D01*
D65*
X45924160Y62100000D02*
X44499160Y60675000D01*
D63*
X30654250Y43700000D02*
X30329250Y43375000D01*
D67*
X13424160Y27500000D02*
X13711660Y27212500D01*
D65*
X75674160Y12425000D02*
X75186660Y11937500D01*
D63*
X30061660Y43107410D02*
X30061660Y42337500D01*
D64*
X64924160Y56025000D02*
X64924160Y55200000D01*
X64474160Y44900000D02*
X65874160Y44900000D01*
D65*
X75674160Y13450000D02*
X75899160Y13675000D01*
D63*
X44624160Y54650000D02*
X44499160Y54525000D01*
D65*
X75899160Y13675000D02*
X75874160Y13650000D01*
D67*
X20199160Y20750000D02*
X16899159Y20750000D01*
D63*
X36484160Y31965000D02*
X37199160Y31250000D01*
X87964160Y14250000D02*
X87974160Y15250000D01*
X65224160Y56325000D02*
X65224160Y58412500D01*
X26919070Y49750000D02*
X26149160Y49750000D01*
D66*
X12899160Y28250000D02*
X23074160Y28250000D01*
D65*
X77074160Y62650000D02*
X76474160Y63250000D01*
X45141685Y46242525D02*
X44824160Y45925000D01*
D64*
X12636660Y26900000D02*
X13336660Y26200000D01*
X50075260Y64345000D02*
X49079160Y64345000D01*
D65*
X72974160Y15450000D02*
X72774160Y15250000D01*
D66*
X50313660Y19710500D02*
X56574160Y13450000D01*
D67*
X13711660Y27212500D02*
X13899160Y27025000D01*
D64*
X13899160Y27850000D02*
X14442910Y27306250D01*
D63*
X54210453Y50776207D02*
X54536660Y50450000D01*
X63924160Y39000000D02*
X61811660Y39000000D01*
X55974160Y57000000D02*
X57114160Y57000000D01*
D65*
X41974160Y50793750D02*
X41974160Y50035050D01*
D63*
X55236660Y56250000D02*
X55236660Y57000000D01*
X30251705Y43452545D02*
X30251705Y43472455D01*
X75654160Y15449999D02*
X76534160Y16329999D01*
D65*
X23484160Y33475000D02*
X23484160Y28660000D01*
X30024160Y43700000D02*
X29974160Y43750000D01*
D63*
X42372106Y43872397D02*
X42372106Y44065130D01*
D67*
X13899159Y17750000D02*
X13136660Y17750000D01*
D63*
X29474160Y62305090D02*
X29561660Y62392590D01*
D65*
X25994160Y32250000D02*
X27494160Y30750000D01*
D63*
X73474160Y5631544D02*
X76255704Y2850000D01*
X63974160Y39050000D02*
X63924160Y39000000D01*
D66*
X34574160Y22050000D02*
X37174160Y24650000D01*
D64*
X87964160Y14250000D02*
X87964160Y15240000D01*
D63*
X41961660Y50762500D02*
X41961660Y50062500D01*
D66*
X37174160Y24650000D02*
X39574160Y24650000D01*
D63*
X77979160Y1575000D02*
X78654160Y2250000D01*
X74224160Y34840000D02*
X74224160Y37087500D01*
X75186660Y11825000D02*
X73899160Y11825000D01*
D66*
X23024160Y23750000D02*
X23024160Y23574570D01*
X12499160Y28250000D02*
X12899160Y28250000D01*
X25523730Y21075000D02*
X29867789Y21075000D01*
D63*
X28224160Y49944910D02*
X28224160Y52444910D01*
D65*
X31449160Y43700000D02*
X32599160Y44850000D01*
D63*
X50124160Y49738745D02*
X49964160Y49898745D01*
D64*
X80549160Y38275000D02*
X80574160Y38250000D01*
D65*
X32599160Y44850000D02*
X36384210Y44850000D01*
X44674160Y45210050D02*
X44674160Y45775000D01*
D64*
X65824160Y43550000D02*
X64474160Y44900000D01*
D67*
X13424160Y28250000D02*
X13424160Y29962500D01*
D63*
X31136660Y23049568D02*
X29974160Y21887068D01*
X80724160Y38100000D02*
X80574160Y38250000D01*
D64*
X13336660Y26200000D02*
X14442910Y27306250D01*
D63*
X44030000Y36000000D02*
X43736660Y36000000D01*
X45974160Y62050000D02*
X45974160Y61980090D01*
D66*
X28799160Y21075000D02*
X29867789Y21075000D01*
D63*
X55236660Y57000000D02*
X55974160Y57000000D01*
D65*
X31449160Y43700000D02*
X30024160Y43700000D01*
D66*
X30158475Y21365685D02*
X30842789Y22050000D01*
D63*
X39329250Y43375000D02*
X39061660Y43107410D01*
D65*
X37174160Y24650000D02*
X37199160Y24675000D01*
D64*
X42024709Y43525000D02*
X37949160Y43525000D01*
D63*
X27446615Y54647455D02*
X29324160Y56525000D01*
D65*
X39149160Y43700000D02*
X39149160Y43613670D01*
D63*
X64899160Y39050000D02*
X63974160Y39050000D01*
D64*
X68860121Y40144879D02*
X69731280Y39273720D01*
D65*
X55184160Y54890050D02*
X55184160Y56197500D01*
D63*
X52051345Y56297283D02*
X52051345Y56238501D01*
X63024160Y48850000D02*
X64224160Y48850000D01*
X45774160Y46250000D02*
X47474160Y46250000D01*
D66*
X45230530Y22650000D02*
X48170030Y19710500D01*
D63*
X65889416Y7575000D02*
X65414416Y8050000D01*
D64*
X12899160Y26637500D02*
X12899160Y28250000D01*
D63*
X30251705Y43472455D02*
X29974160Y43750000D01*
X80224160Y58412500D02*
X80224160Y56600000D01*
D65*
X25994160Y33475000D02*
X25994160Y32250000D01*
D64*
X75749160Y41625000D02*
X77024160Y40350000D01*
D63*
X44294070Y62625000D02*
X44561660Y62892590D01*
X55875631Y57000000D02*
X55974160Y57000000D01*
D64*
X80899160Y42950000D02*
X80499160Y43350000D01*
X66049160Y45075000D02*
X66049160Y47175000D01*
D63*
X45349160Y34900240D02*
X45349160Y35075000D01*
D65*
X72176345Y13689237D02*
X72654160Y13211422D01*
D64*
X72174160Y56050000D02*
X80774160Y56050000D01*
D63*
X74356660Y7070000D02*
X75899160Y8612500D01*
X26919070Y53750000D02*
X26149160Y53750000D01*
X64474160Y44900000D02*
X63124160Y44900000D01*
X34561660Y62892590D02*
X34561660Y63662500D01*
X41961660Y50062500D02*
X45774160Y46250000D01*
D67*
X16899159Y20750000D02*
X13899159Y17750000D01*
D63*
X26946615Y53722455D02*
X26676705Y53722455D01*
D65*
X72354160Y13928655D02*
X72654160Y13628655D01*
D63*
X77399160Y6443456D02*
X78654160Y5188456D01*
X44294070Y62625000D02*
X45329250Y62625000D01*
X27674160Y21075000D02*
X28799160Y21075000D01*
D65*
X55064110Y51850000D02*
X55224160Y51850000D01*
D63*
X36561660Y64432410D02*
X36561660Y63662500D01*
D64*
X64949160Y56050000D02*
X67174160Y56050000D01*
D63*
X65724160Y38100000D02*
X65574160Y38250000D01*
X80824160Y56000000D02*
X80774160Y56050000D01*
D65*
X72654160Y13628655D02*
X72654160Y13450000D01*
D64*
X80574160Y38250000D02*
X80774160Y38450000D01*
D63*
X74474160Y38175000D02*
X74574160Y38275000D01*
D64*
X64574160Y48650000D02*
X64424160Y48650000D01*
D63*
X72224160Y58412500D02*
X72224160Y56100000D01*
D65*
X44499160Y53318750D02*
X41974160Y50793750D01*
D63*
X30329250Y43375000D02*
X30251705Y43452545D01*
X29474160Y23212068D02*
X29199592Y22937500D01*
X69974160Y1575000D02*
X77979160Y1575000D01*
X55236660Y56250000D02*
X55236660Y56361029D01*
D66*
X30842789Y22050000D02*
X34574160Y22050000D01*
D64*
X12636660Y27750000D02*
X12636660Y26900000D01*
D63*
X45329250Y62625000D02*
X45704250Y62250000D01*
D64*
X68674160Y54550000D02*
X70174160Y56050000D01*
D67*
X66624399Y39300239D02*
X66774160Y39450000D01*
D63*
X34829250Y64700000D02*
X36294070Y64700000D01*
X55224160Y51187500D02*
X55224160Y51850000D01*
X61811660Y48500000D02*
X62874160Y48500000D01*
X45924160Y62100000D02*
X45974160Y62050000D01*
X36484160Y32750000D02*
X36484160Y31965000D01*
X55236660Y56361029D02*
X55875631Y57000000D01*
D65*
X54126345Y53196173D02*
X54126345Y53832235D01*
D63*
X38004250Y61450000D02*
X43119070Y61450000D01*
D68*
X10974160Y38675000D02*
X10974160Y35750000D01*
D63*
X75654160Y14570000D02*
X75654160Y15250000D01*
D64*
X69731280Y39273720D02*
X71157560Y40700000D01*
D63*
X52051345Y56238501D02*
X54039846Y54250000D01*
X29474160Y62250000D02*
X29474160Y62305090D01*
D65*
X72176345Y13778655D02*
X72176345Y13689237D01*
D63*
X46589205Y61365045D02*
X46704250Y61250000D01*
D64*
X66003471Y43550000D02*
X65824160Y43550000D01*
D63*
X29419070Y62250000D02*
X29474160Y62250000D01*
D65*
X75874160Y13650000D02*
X75874160Y12537500D01*
D63*
X29974160Y43750000D02*
X29954250Y43750000D01*
X65724160Y37087500D02*
X65724160Y38100000D01*
D65*
X45766685Y46242525D02*
X45141685Y46242525D01*
D64*
X80499160Y48775000D02*
X81174160Y49450000D01*
D63*
X72774160Y15250000D02*
X72764160Y15260000D01*
X31829250Y62625000D02*
X34294070Y62625000D01*
X45061660Y43107410D02*
X44794070Y43375000D01*
X65374160Y8050000D02*
X65374160Y8090256D01*
D64*
X12899160Y28250000D02*
X12899160Y30487500D01*
D65*
X37774160Y43700000D02*
X39149160Y43700000D01*
D64*
X67315483Y39575000D02*
X67315483Y39705540D01*
X70174160Y56050000D02*
X72174160Y56050000D01*
D63*
X72974160Y16250000D02*
X72974160Y19750000D01*
D67*
X13424160Y29962500D02*
X12636660Y30750000D01*
D63*
X46704250Y61250000D02*
X47474160Y61250000D01*
X76255704Y2850000D02*
X78654160Y2850000D01*
D65*
X37534210Y43700000D02*
X37774160Y43700000D01*
D66*
X39574160Y24650000D02*
X41574160Y22650000D01*
D63*
X74356660Y7070000D02*
X73974160Y7070000D01*
X54039846Y53918734D02*
X54126345Y53832235D01*
X29974160Y21550000D02*
X30158475Y21365685D01*
X29829250Y64700000D02*
X31294070Y64700000D01*
D64*
X14442910Y27306250D02*
X14549160Y27412500D01*
D68*
X20199160Y20750000D02*
X20199160Y20925000D01*
D63*
X53254062Y57500000D02*
X52051345Y56297283D01*
D67*
%TO.N,Net-(U10-RF-IN)*%
X87024160Y24871600D02*
X82645760Y29250000D01*
X86851345Y11352815D02*
X86851345Y13725885D01*
D64*
X87614560Y10589600D02*
X88881960Y10589600D01*
D67*
X86851345Y13725885D02*
X87024160Y13898700D01*
X86954160Y11250000D02*
X86851345Y11352815D01*
X87024160Y13898700D02*
X87024160Y24871600D01*
D64*
X86954160Y11250000D02*
X87614560Y10589600D01*
D63*
%TO.N,Net-(C11-Pad2)*%
X94994160Y13740000D02*
X95474160Y13260000D01*
X94994160Y14750000D02*
X94994160Y13740000D01*
D64*
%TO.N,Net-(U10-BIAS)*%
X88984160Y14118944D02*
X88984160Y14250000D01*
X91066360Y10589600D02*
X91590400Y10589600D01*
X96089160Y23463400D02*
X96089160Y14885000D01*
X87651345Y13250000D02*
X87881345Y13480000D01*
X92301345Y9828655D02*
X92351345Y9828655D01*
X95954160Y14270000D02*
X96474160Y13750000D01*
X87881345Y13480000D02*
X88345216Y13480000D01*
X92301345Y9878655D02*
X92301345Y9828655D01*
X90302560Y29250000D02*
X96089160Y23463400D01*
D63*
X95954160Y14750000D02*
X96039160Y14835000D01*
D64*
X91066360Y10589600D02*
X90226760Y9750000D01*
X91590400Y10589600D02*
X92301345Y9878655D01*
X90226760Y9750000D02*
X87474160Y9750000D01*
X92351345Y9828655D02*
X92351345Y9828655D01*
D63*
X96039160Y14835000D02*
X96039160Y23645000D01*
D64*
X88345216Y13480000D02*
X88984160Y14118944D01*
X96089160Y14885000D02*
X95954160Y14750000D01*
X95954160Y14750000D02*
X95954160Y14270000D01*
D63*
%TO.N,Net-(U6-VR_SYNTH)*%
X76794160Y4405000D02*
X76794160Y3750000D01*
X76399160Y6700000D02*
X75449160Y5750000D01*
X76399160Y8612500D02*
X76399160Y6700000D01*
X75449160Y5750000D02*
X76794160Y4405000D01*
%TO.N,Net-(U6-VR_RF)*%
X82154160Y3250000D02*
X83154160Y2250000D01*
X81654160Y3750000D02*
X81974160Y3430000D01*
X79261660Y7750000D02*
X80474160Y7750000D01*
X81654160Y4250000D02*
X81654160Y3750000D01*
X81974160Y3430000D02*
X81974160Y3250000D01*
X78399160Y8612500D02*
X79261660Y7750000D01*
X81974160Y3250000D02*
X82154160Y3250000D01*
%TO.N,Net-(U6-VDD_DIG{slash}RX)*%
X82154160Y12750000D02*
X82154160Y12949999D01*
X79111660Y10325000D02*
X79729160Y10325000D01*
X82154160Y12949999D02*
X83454161Y14250000D01*
X79729160Y10325000D02*
X82154160Y12750000D01*
X83454161Y14250000D02*
X85654160Y14250000D01*
%TO.N,Net-(U6-SMPS2)*%
X65039846Y13250000D02*
X68904160Y13250000D01*
X64574160Y12784314D02*
X65039846Y13250000D01*
X64574160Y10987500D02*
X64574160Y12784314D01*
X73029160Y10825000D02*
X72954160Y10750000D01*
X68974160Y9587500D02*
X71791660Y9587500D01*
X65974160Y9587500D02*
X64574160Y10987500D01*
X71791660Y9587500D02*
X72954160Y10750000D01*
X65974160Y9587500D02*
X68974160Y9587500D01*
X75186660Y10825000D02*
X73029160Y10825000D01*
%TO.N,Net-(U16-VCCD)*%
X57724160Y46300000D02*
X57124160Y45700000D01*
X57724160Y47312500D02*
X57724160Y46300000D01*
X57124160Y45700000D02*
X57124160Y45415307D01*
X57124160Y45415307D02*
X57374160Y45165307D01*
X57374160Y45165307D02*
X57374160Y44530000D01*
X57374160Y44530000D02*
X57654160Y44250000D01*
%TO.N,/UART00*%
X75724160Y37087500D02*
X75724160Y36251904D01*
X15999160Y66505000D02*
X15999160Y62850000D01*
X26474160Y37425000D02*
X26624160Y37575000D01*
X15924160Y62850000D02*
X15924160Y62925000D01*
X75374160Y34742230D02*
X75674160Y34442230D01*
X21824160Y37250000D02*
X26299160Y37250000D01*
X75374160Y35901904D02*
X75374160Y34742230D01*
X26874160Y37650000D02*
X26924160Y37575000D01*
X75674160Y34442230D02*
X75674160Y31800000D01*
X40061660Y39712500D02*
X40299160Y39475000D01*
X75674160Y31800000D02*
X75649160Y31775000D01*
X15754160Y66750000D02*
X15999160Y66505000D01*
X26299160Y37250000D02*
X26474160Y37425000D01*
X75724160Y36251904D02*
X75374160Y35901904D01*
X15999160Y62850000D02*
X15999160Y62850000D01*
X15999160Y62850000D02*
X15924160Y62850000D01*
X26624160Y37575000D02*
X26874160Y37650000D01*
X40061660Y42337500D02*
X40061660Y39712500D01*
%TO.N,/UART01*%
X25974160Y38075000D02*
X21799160Y38075000D01*
X74899160Y35992590D02*
X75224160Y36317590D01*
X75074160Y34476544D02*
X74899160Y34651544D01*
X39374160Y39450000D02*
X39324160Y39450000D01*
X39561660Y39687500D02*
X39374160Y39500000D01*
X75224160Y36317590D02*
X75224160Y37087500D01*
X39324160Y39450000D02*
X39424160Y39550000D01*
X39374160Y39500000D02*
X39374160Y39450000D01*
X74899160Y34651544D02*
X74899160Y35992590D01*
X26349160Y38450000D02*
X25974160Y38075000D01*
X75074160Y32350000D02*
X75074160Y34476544D01*
X39561660Y42337500D02*
X39561660Y39687500D01*
D64*
%TO.N,Net-(J9-Pin_2)*%
X13624159Y61946600D02*
X13624159Y62741200D01*
X14064160Y63181201D02*
X14064160Y65900000D01*
X13624159Y62741200D02*
X14064160Y63181201D01*
X14064160Y65900000D02*
X13214160Y66750000D01*
D67*
%TO.N,Net-(U8-SW)*%
X17311660Y36107500D02*
X18974160Y37770000D01*
X17311660Y30750000D02*
X17311660Y36107500D01*
X18974160Y37770000D02*
X14631660Y37770000D01*
X14631660Y37770000D02*
X14611660Y37750000D01*
D63*
%TO.N,Net-(U6-SMPS1)*%
X73833475Y11325000D02*
X73245975Y11912500D01*
X73245975Y11912500D02*
X65974160Y11912500D01*
X75186660Y11325000D02*
X73833475Y11325000D01*
D67*
%TO.N,Net-(U18-SW)*%
X17974160Y19705840D02*
X17976345Y19703655D01*
X17994160Y24770000D02*
X17994160Y23770000D01*
X17974160Y17912500D02*
X17811660Y17750000D01*
X17255184Y25250000D02*
X17735184Y24770000D01*
X15611660Y25250000D02*
X17255184Y25250000D01*
X17976345Y19703655D02*
X17974160Y19701470D01*
X17735184Y24770000D02*
X17994160Y24770000D01*
X17994160Y23770000D02*
X17974160Y23750000D01*
X17974160Y19701470D02*
X17974160Y17912500D01*
X17974160Y19750000D02*
X17974160Y19705840D01*
D63*
%TO.N,/I2C0*%
X89924160Y51400000D02*
X92524160Y48800000D01*
X92524160Y48476471D02*
X92172689Y48125000D01*
X38974160Y34500000D02*
X35724160Y34500000D01*
X35724160Y34500000D02*
X34474160Y33250000D01*
X40108475Y34225000D02*
X39249160Y34225000D01*
X34499160Y33225000D02*
X34499160Y29962932D01*
X89924160Y54425000D02*
X89924160Y51400000D01*
X40849160Y34165686D02*
X40614846Y34400000D01*
X34474160Y33250000D02*
X34499160Y33225000D01*
X38974160Y35229149D02*
X38974160Y34500000D01*
X34964160Y33250000D02*
X35464160Y32750000D01*
X92524160Y48800000D02*
X92524160Y48476471D01*
X41386660Y33675000D02*
X40849160Y33675000D01*
X34474160Y33250000D02*
X34964160Y33250000D01*
X40849160Y33675000D02*
X40849160Y34165686D01*
X39495011Y35750000D02*
X38974160Y35229149D01*
X89899160Y48500000D02*
X83136660Y48500000D01*
X90724160Y55225000D02*
X89924160Y54425000D01*
X92172689Y48125000D02*
X90274160Y48125000D01*
X34499160Y29962932D02*
X29974160Y25437932D01*
X50827010Y53750000D02*
X47474160Y53750000D01*
X29974160Y25437932D02*
X29974160Y25075000D01*
X40283474Y34400000D02*
X40108475Y34225000D01*
X50926320Y53849310D02*
X50827010Y53750000D01*
X39249160Y34225000D02*
X38974160Y34500000D01*
X40614846Y34400000D02*
X40283474Y34400000D01*
X90274160Y48125000D02*
X89899160Y48500000D01*
X42211660Y34500000D02*
X41386660Y33675000D01*
%TO.N,/I2C1*%
X49307738Y41169363D02*
X49493523Y41169363D01*
X38574160Y36350000D02*
X41861660Y36350000D01*
X29474160Y25075000D02*
X29474160Y25750000D01*
X45747007Y37796380D02*
X46520540Y37796380D01*
X35558474Y34900000D02*
X38274160Y34900000D01*
X41499160Y36712500D02*
X41499160Y36770342D01*
X91574160Y48725000D02*
X91299160Y49000000D01*
X42231763Y37502945D02*
X45453572Y37502945D01*
X34074160Y33084314D02*
X34074160Y33415686D01*
X46604553Y37880393D02*
X46604553Y38466178D01*
X50984160Y44048529D02*
X51499160Y44563529D01*
X34099160Y32850000D02*
X34099160Y33059314D01*
X49493523Y41169363D02*
X51199160Y42875000D01*
X49974160Y54750000D02*
X49474160Y54250000D01*
X91299160Y49000000D02*
X83136660Y49000000D01*
X50984160Y47750000D02*
X50984160Y50250000D01*
X51499160Y47235000D02*
X50984160Y47750000D01*
X34074160Y33415686D02*
X35558474Y34900000D01*
X51199160Y42875000D02*
X51199160Y43336471D01*
X38374160Y36150000D02*
X38574160Y36350000D01*
X46520540Y37796380D02*
X46604553Y37880393D01*
X50124160Y48303891D02*
X50430269Y48303891D01*
X33474160Y29750000D02*
X33474160Y32225000D01*
X41967910Y36243750D02*
X41499160Y36712500D01*
X41861660Y36350000D02*
X41967910Y36243750D01*
X51499160Y44563529D02*
X51499160Y47235000D01*
X50430269Y48303891D02*
X50984160Y47750000D01*
X41967910Y36243750D02*
X42211660Y36000000D01*
X50984160Y43551471D02*
X50984160Y44048529D01*
X29474160Y25750000D02*
X33474160Y29750000D01*
X41499160Y36770342D02*
X42231763Y37502945D01*
X33474160Y32225000D02*
X34099160Y32850000D01*
X45453572Y37502945D02*
X45747007Y37796380D01*
X38374160Y35000000D02*
X38374160Y36150000D01*
X34099160Y33059314D02*
X34074160Y33084314D01*
X38274160Y34900000D02*
X38374160Y35000000D01*
X49474160Y54250000D02*
X47474160Y54250000D01*
X51199160Y43336471D02*
X50984160Y43551471D01*
X46604553Y38466178D02*
X49307738Y41169363D01*
%TO.N,/INT14*%
X50799160Y43040686D02*
X49527476Y41769002D01*
X57224160Y51934314D02*
X57224160Y51137500D01*
X49527476Y41769002D02*
X49099160Y41769002D01*
X43061419Y37902945D02*
X42047686Y37902945D01*
X51099160Y44729215D02*
X50584160Y44214215D01*
X73624160Y35417137D02*
X73682023Y35475000D01*
X38061660Y38850000D02*
X38061660Y42337500D01*
X42047686Y37902945D02*
X41100631Y38850000D01*
X44596216Y38650000D02*
X44824163Y38650000D01*
X44596216Y38650000D02*
X43808474Y38650000D01*
X73724160Y35517137D02*
X73724160Y37087500D01*
X51099160Y46207160D02*
X51099160Y44729215D01*
X57724160Y52250000D02*
X57624160Y52150000D01*
X50584160Y44214215D02*
X50584160Y43385785D01*
X50799160Y43170786D02*
X50799160Y43040686D01*
X57624160Y52150000D02*
X57439846Y52150000D01*
X57439846Y52150000D02*
X57224160Y51934314D01*
X44824163Y38650000D02*
X44924163Y38750000D01*
X57374160Y54250000D02*
X57474160Y54150000D01*
X41100631Y38850000D02*
X38061660Y38850000D01*
X73624160Y35417137D02*
X73724160Y35517137D01*
X57724160Y52622270D02*
X57674160Y52672270D01*
X57724160Y52250000D02*
X57724160Y52622270D01*
X50584160Y43385785D02*
X50799160Y43170786D01*
X43808474Y38650000D02*
X43061419Y37902945D01*
X50428475Y46877845D02*
X51099160Y46207160D01*
X73682023Y35475000D02*
X73724160Y35475000D01*
%TO.N,/CS0*%
X24074160Y40950000D02*
X24074160Y44510596D01*
X25111660Y45982410D02*
X25379250Y46250000D01*
X33111228Y27750000D02*
X33474160Y27750000D01*
X64023425Y40050000D02*
X63423425Y40650000D01*
X30474160Y25112932D02*
X33111228Y27750000D01*
X27261660Y39287500D02*
X26836660Y39712500D01*
X32124160Y30425000D02*
X31924160Y30625000D01*
X24308475Y40715686D02*
X24074160Y40950000D01*
X27261660Y38148285D02*
X27261660Y39287500D01*
X31924160Y30625000D02*
X31924160Y33736134D01*
X62581570Y41000000D02*
X61811660Y41000000D01*
X25719259Y40715686D02*
X24308475Y40715686D01*
X26722445Y39712500D02*
X25719259Y40715686D01*
X26836660Y39712500D02*
X26722445Y39712500D01*
X62931570Y40650000D02*
X62581570Y41000000D01*
X30330294Y35330000D02*
X30079945Y35330000D01*
X24074160Y44510596D02*
X25111660Y45548096D01*
X25111660Y45548096D02*
X25111660Y45982410D01*
X30474160Y25075000D02*
X30474160Y25112932D01*
X31924160Y33736134D02*
X30330294Y35330000D01*
X30079945Y35330000D02*
X27261660Y38148285D01*
X63423425Y40650000D02*
X62931570Y40650000D01*
X25379250Y46250000D02*
X26149160Y46250000D01*
%TO.N,/INT10*%
X28061660Y42337500D02*
X28061660Y38962500D01*
X63198978Y36562318D02*
X63724160Y37087500D01*
X64179632Y28169528D02*
X68749160Y23600000D01*
X30374160Y36450000D02*
X30574160Y36450000D01*
X28811660Y23412500D02*
X28448728Y23412500D01*
X30374160Y36650000D02*
X30374160Y36450000D01*
X68749160Y23600000D02*
X69299160Y24150000D01*
X62957415Y28169528D02*
X64179632Y28169528D01*
X63198978Y35375000D02*
X63198978Y36562318D01*
X26974160Y24887068D02*
X26974160Y27850000D01*
X28448728Y23412500D02*
X26974160Y24887068D01*
X69374160Y24175000D02*
X69299160Y24500000D01*
X30574160Y36450000D02*
X30574160Y36450000D01*
X69299160Y24150000D02*
X69374160Y24175000D01*
X28061660Y38962500D02*
X30374160Y36650000D01*
%TO.N,/INT11*%
X64456570Y38125000D02*
X63474160Y38125000D01*
X33103073Y17750000D02*
X33103073Y18255383D01*
X65292073Y34607087D02*
X65799160Y34100000D01*
X66802102Y33000000D02*
X67252102Y33450000D01*
X62549160Y32640686D02*
X64515561Y34607087D01*
X64724160Y37087500D02*
X64724160Y37857410D01*
X66474160Y33000000D02*
X66802102Y33000000D01*
X29974160Y39923529D02*
X29974160Y38050000D01*
X29061660Y42337500D02*
X29061660Y40836029D01*
X67252102Y33450000D02*
X67289357Y33412745D01*
X69280532Y33415685D02*
X69692562Y33003655D01*
X63474160Y38125000D02*
X62549160Y37200000D01*
X68949160Y33415685D02*
X69280532Y33415685D01*
X64515561Y34607087D02*
X65292073Y34607087D01*
X65799160Y33675000D02*
X66474160Y33000000D01*
X31136660Y23912500D02*
X31636660Y23912500D01*
X29061660Y40836029D02*
X29974160Y39923529D01*
X67289357Y33412745D02*
X68946220Y33412745D01*
X73220505Y33003655D02*
X75249160Y30975000D01*
X32126345Y23422815D02*
X32126345Y23253655D01*
X31636660Y23912500D02*
X32126345Y23422815D01*
X64724160Y37857410D02*
X64456570Y38125000D01*
X62549160Y37200000D02*
X62549160Y32640686D01*
X65799160Y34100000D02*
X65799160Y33675000D01*
X69692562Y33003655D02*
X73220505Y33003655D01*
X68946220Y33412745D02*
X68949160Y33415685D01*
X33103073Y18255383D02*
X35151345Y20303655D01*
X75249160Y30975000D02*
X75174160Y31150000D01*
%TO.N,/INT1*%
X54351345Y55100000D02*
X54411345Y55160000D01*
X54351345Y55100000D02*
X54449161Y55100000D01*
X54474160Y56250000D02*
X54724160Y56500000D01*
X26149160Y60750000D02*
X24474160Y60750000D01*
X54411345Y55160000D02*
X54464160Y55160000D01*
X54464160Y55160000D02*
X54474160Y55170000D01*
X61811660Y55500000D02*
X62581570Y55500000D01*
X54454160Y55150000D02*
X54454160Y55150000D01*
X54724160Y56500000D02*
X54724160Y56987500D01*
X54449161Y55100000D02*
X54474160Y55075001D01*
X54474160Y55170000D02*
X54474160Y56250000D01*
X62581570Y55500000D02*
X62999160Y55917590D01*
X62999160Y55917590D02*
X62999160Y57775000D01*
X24474160Y60750000D02*
X23974160Y60250000D01*
%TO.N,/INT2*%
X27374160Y58250000D02*
X28274160Y59150000D01*
X60791750Y55250000D02*
X60774160Y55232410D01*
X61041750Y53000000D02*
X61811660Y53000000D01*
X59791750Y56250000D02*
X60791750Y55250000D01*
X26149160Y58250000D02*
X27374160Y58250000D01*
X53645458Y55743131D02*
X53645458Y55986984D01*
X57424160Y57800000D02*
X58974160Y56250000D01*
X54224160Y56565686D02*
X54224160Y56987500D01*
X53645458Y55986984D02*
X54224160Y56565686D01*
X60774160Y53267590D02*
X61041750Y53000000D01*
X60774160Y55232410D02*
X60774160Y53267590D01*
X58974160Y56250000D02*
X59791750Y56250000D01*
%TO.N,/SPI1*%
X56224160Y51770000D02*
X56224160Y51187500D01*
X64183474Y31625000D02*
X66558474Y31625000D01*
X66558474Y31625000D02*
X67546219Y32612745D01*
X52914846Y57726471D02*
X52914846Y57850000D01*
X52538375Y57350000D02*
X52806268Y57617892D01*
X73474160Y64815686D02*
X74474160Y63815686D01*
X53188376Y58000000D02*
X53711660Y58000000D01*
X52806268Y57617892D02*
X53188376Y58000000D01*
X63123745Y30369528D02*
X63188375Y30369528D01*
X63188375Y30369528D02*
X63188375Y30629901D01*
X74474160Y63815686D02*
X74474160Y63250000D01*
X61266560Y32200000D02*
X61500875Y31965684D01*
X56132689Y52240000D02*
X56124160Y52240000D01*
X52914846Y57850000D02*
X53064846Y58000000D01*
X59117758Y31800000D02*
X59517758Y32200000D01*
X54975615Y42822750D02*
X55010334Y42822750D01*
X70164846Y32125000D02*
X80474160Y21815686D01*
X61500875Y31965684D02*
X62086659Y31379901D01*
X58489846Y31800000D02*
X59117758Y31800000D01*
X53226345Y53686123D02*
X53226345Y54313501D01*
X55010334Y42822750D02*
X55554160Y42278924D01*
X56484160Y52591471D02*
X56132689Y52240000D01*
X55599160Y37800000D02*
X55599160Y36900000D01*
X73474160Y67750000D02*
X73474160Y64815686D01*
X51651345Y55888501D02*
X51651345Y56477185D01*
X54049160Y40475000D02*
X54049160Y39350000D01*
X62694746Y30798527D02*
X63123745Y30369528D01*
X68952101Y32612745D02*
X69439846Y32125000D01*
X79538546Y11325000D02*
X79111660Y11325000D01*
X54049160Y39350000D02*
X55599160Y37800000D01*
X56124160Y52240000D02*
X56124160Y51870000D01*
X59517758Y32200000D02*
X61266560Y32200000D01*
X80474160Y12260614D02*
X79538546Y11325000D01*
X55554160Y41980000D02*
X54049160Y40475000D01*
X56066891Y53319201D02*
X56484160Y52901932D01*
X52806268Y57617892D02*
X52914846Y57726471D01*
X62086659Y31379901D02*
X62086660Y31379899D01*
X56066891Y53319201D02*
X56066892Y53319201D01*
X53226345Y54313501D02*
X51651345Y55888501D01*
X55554160Y42278924D02*
X55554160Y41980000D01*
X63188375Y30629901D02*
X64183474Y31625000D01*
X80474160Y21815686D02*
X80474160Y12260614D01*
X54494503Y35795343D02*
X58489846Y31800000D01*
X62086660Y30798527D02*
X62694746Y30798527D01*
X56066892Y53319201D02*
X56191779Y53194314D01*
X56124160Y51870000D02*
X56224160Y51770000D01*
X69439846Y32125000D02*
X70164846Y32125000D01*
X56484160Y52901932D02*
X56484160Y52591471D01*
X62086660Y31379899D02*
X62086660Y30798527D01*
X67546219Y32612745D02*
X68952101Y32612745D01*
X51651345Y56477185D02*
X52524160Y57350000D01*
X55599160Y36900000D02*
X54494503Y35795343D01*
X53426345Y53486123D02*
X53226345Y53686123D01*
%TO.N,/INT0*%
X52870483Y56267892D02*
X52913375Y56225000D01*
X61041750Y56500000D02*
X60541750Y57000000D01*
X23749160Y61750000D02*
X26149160Y61750000D01*
X61811660Y56500000D02*
X61041750Y56500000D01*
X52913375Y56225000D02*
X53269160Y56225000D01*
X60541750Y57000000D02*
X59874160Y56850000D01*
X53711660Y56625000D02*
X53711660Y57000000D01*
X52870483Y56267892D02*
X53354552Y56267892D01*
X53354552Y56267892D02*
X53711660Y56625000D01*
X59874160Y56850000D02*
X59749160Y57000000D01*
X23199160Y62300000D02*
X23749160Y61750000D01*
%TO.N,/CS1*%
X59824160Y37873529D02*
X59824160Y37376471D01*
X24474160Y42526471D02*
X24474160Y44344910D01*
X29774160Y36201471D02*
X29774160Y36684314D01*
X31413479Y34812501D02*
X30495980Y35730000D01*
X41724160Y35525000D02*
X41724160Y35850000D01*
X59824160Y37376471D02*
X60687396Y36513236D01*
X29774160Y36684314D02*
X27661660Y38796814D01*
X61349160Y34049612D02*
X61149548Y33850000D01*
X24474160Y44344910D02*
X25379250Y45250000D01*
X61041750Y40000000D02*
X60895455Y39853705D01*
X41724160Y35850000D02*
X41624160Y35950000D01*
X60687396Y36513236D02*
X60799160Y36401471D01*
X60774160Y38475000D02*
X60774160Y39732410D01*
X42211660Y35500000D02*
X41749160Y35500000D01*
X30245631Y35730000D02*
X29774160Y36201471D01*
X60300631Y38350000D02*
X59824160Y37873529D01*
X61349160Y34510785D02*
X61349160Y34049612D01*
X60899160Y38350000D02*
X60774160Y38475000D01*
X60799160Y36401472D02*
X60799160Y35060785D01*
X40024160Y35200000D02*
X39974160Y35250000D01*
X32474160Y34812501D02*
X31413479Y34812501D01*
X60899160Y38350000D02*
X60300631Y38350000D01*
X40024160Y35150000D02*
X40024160Y35200000D01*
X40824160Y35950000D02*
X40024160Y35150000D01*
X61811660Y40000000D02*
X61041750Y40000000D01*
X41749160Y35500000D02*
X41724160Y35525000D01*
X27661660Y40112500D02*
X26888131Y40112500D01*
X25379250Y45250000D02*
X26149160Y45250000D01*
X30495980Y35730000D02*
X30245631Y35730000D01*
X26888131Y40112500D02*
X24474160Y42526471D01*
X60799160Y35060785D02*
X61349160Y34510785D01*
X41624160Y35950000D02*
X40824160Y35950000D01*
X60774160Y39732410D02*
X60895455Y39853705D01*
X60687396Y36513236D02*
X60799160Y36401472D01*
X27661660Y38796814D02*
X27661660Y40112500D01*
%TO.N,/INT6*%
X43249160Y36475000D02*
X43224160Y36450000D01*
X60649160Y51425000D02*
X60724160Y51500000D01*
X26149160Y56750000D02*
X25379250Y56750000D01*
X22774160Y54650000D02*
X22974160Y54650000D01*
X42399160Y30125000D02*
X39299160Y33225000D01*
X47321953Y26675000D02*
X46426367Y26675000D01*
X24774160Y56144910D02*
X24774160Y55850000D01*
X43949160Y36900000D02*
X43524160Y36475000D01*
X24774160Y55850000D02*
X23574160Y54650000D01*
X45874160Y26122793D02*
X45874160Y25377207D01*
X48222895Y24651265D02*
X47874160Y25000000D01*
X45874160Y25377207D02*
X44996953Y24500000D01*
X60724160Y51500000D02*
X61811660Y51500000D01*
X43524160Y36475000D02*
X43249160Y36475000D01*
X47874160Y26122793D02*
X47321953Y26675000D01*
X42399160Y24500000D02*
X42399160Y30125000D01*
X47874160Y25000000D02*
X47874160Y26122793D01*
X39299160Y33225000D02*
X39124160Y33400000D01*
X23574160Y54650000D02*
X22774160Y54650000D01*
X46426367Y26675000D02*
X45874160Y26122793D01*
X43224160Y36450000D02*
X43224160Y36012500D01*
X60649160Y51375000D02*
X60599160Y51375000D01*
X60599160Y51375000D02*
X60574160Y51350000D01*
X48921425Y24651265D02*
X48222895Y24651265D01*
X60649160Y51375000D02*
X60649160Y51425000D01*
X25379250Y56750000D02*
X24774160Y56144910D01*
X44996953Y24500000D02*
X42399160Y24500000D01*
%TO.N,/INT9*%
X43499160Y29771975D02*
X43499160Y27800000D01*
X56524160Y16050000D02*
X56549160Y16025000D01*
X43399160Y27775000D02*
X43399160Y27900000D01*
X43446557Y44772397D02*
X43524160Y45050000D01*
X40449160Y32821975D02*
X43499160Y29771975D01*
X39874160Y44375000D02*
X40271557Y44772397D01*
X43524160Y27775000D02*
X43399160Y27775000D01*
X56524160Y16125000D02*
X56524160Y16050000D01*
X43399160Y27900000D02*
X43574160Y27725000D01*
X55074160Y17500000D02*
X56449160Y16125000D01*
X40449160Y34000000D02*
X40449160Y32821975D01*
X37449160Y33825000D02*
X40274160Y33825000D01*
X41949160Y33275000D02*
X42724160Y34050000D01*
X37374160Y33900000D02*
X37449160Y33825000D01*
X42724160Y34050000D02*
X42724160Y34487500D01*
X43499160Y27800000D02*
X43524160Y27775000D01*
X53674160Y17500000D02*
X55074160Y17500000D01*
X85525631Y41500000D02*
X83136660Y41500000D01*
X85856382Y40360453D02*
X85856382Y41169249D01*
X85856382Y41169249D02*
X85525631Y41500000D01*
X56449160Y16125000D02*
X56524160Y16125000D01*
X47474160Y46750000D02*
X46249160Y46750000D01*
X37374160Y33900000D02*
X37299160Y33825000D01*
X40449160Y33275000D02*
X41949160Y33275000D01*
X40449160Y34000000D02*
X40449160Y33275000D01*
X46249160Y46750000D02*
X46099160Y46900000D01*
X40271557Y44772397D02*
X43446557Y44772397D01*
X40274160Y33825000D02*
X40449160Y34000000D01*
X48899160Y22275000D02*
X53674160Y17500000D01*
X43524160Y45050000D02*
X43574160Y44900000D01*
%TO.N,/CS2*%
X63806013Y34853931D02*
X64224160Y35272078D01*
X64224160Y35272078D02*
X64224160Y37087500D01*
X40804169Y34969348D02*
X41193508Y34969348D01*
X41193508Y34969348D02*
X41224160Y35000000D01*
X40804169Y34969348D02*
X40974160Y35139339D01*
X28799160Y40250000D02*
X28561660Y40487500D01*
X28561660Y40487500D02*
X28561660Y42337500D01*
X41224160Y35000000D02*
X42211660Y35000000D01*
%TO.N,/INT7*%
X81744303Y39092537D02*
X81744303Y39229467D01*
X46949160Y43725000D02*
X47474160Y44250000D01*
X43774160Y34500000D02*
X43736660Y34500000D01*
X46997690Y43201470D02*
X46949160Y43250000D01*
X51099160Y30425000D02*
X50497687Y30425000D01*
X46949160Y43250000D02*
X46949160Y43725000D01*
X62390436Y27550000D02*
X60709697Y27550000D01*
X81836840Y39000000D02*
X83136660Y39000000D01*
X44149160Y34125000D02*
X43774160Y34500000D01*
X46997690Y42975000D02*
X46997690Y43201470D01*
X46874160Y35175000D02*
X45824160Y34125000D01*
X51274160Y30250000D02*
X51099160Y30425000D01*
X81744303Y39229467D02*
X81774160Y39259324D01*
X62465436Y27475000D02*
X62390436Y27550000D01*
X58499160Y29760537D02*
X58499160Y30125000D01*
X60709697Y27550000D02*
X58499160Y29760537D01*
X58499160Y30125000D02*
X58374160Y30250000D01*
X58374160Y30250000D02*
X51274160Y30250000D01*
X45824160Y34125000D02*
X44149160Y34125000D01*
X81744303Y39092537D02*
X81836840Y39000000D01*
%TO.N,/INT8*%
X42724160Y36012500D02*
X42724160Y36650000D01*
X46704250Y44750000D02*
X47474160Y44750000D01*
X46079250Y45375000D02*
X46704250Y44750000D01*
X42449160Y36800000D02*
X42586660Y36787500D01*
X81399160Y40750000D02*
X81616750Y40750000D01*
X45374160Y45375000D02*
X46079250Y45375000D01*
X81616750Y40750000D02*
X82116750Y40250000D01*
X82116750Y40250000D02*
X82099160Y40232410D01*
X42724160Y36650000D02*
X42449160Y36800000D01*
X82366750Y39500000D02*
X83136660Y39500000D01*
X82099160Y39767590D02*
X82366750Y39500000D01*
X82099160Y40232410D02*
X82099160Y39767590D01*
%TO.N,/SPIFI2*%
X42379250Y67250000D02*
X42474160Y67250000D01*
X57873060Y66885000D02*
X66839160Y66885000D01*
X56023860Y68750000D02*
X56026760Y68747100D01*
X75224160Y61000000D02*
X75224160Y58412500D01*
X56508060Y68250000D02*
X57873060Y66885000D01*
X56026760Y68250000D02*
X56508060Y68250000D01*
X56026760Y68747100D02*
X56026760Y68250000D01*
X66839160Y66885000D02*
X68474160Y65250000D01*
X39561660Y63662500D02*
X39561660Y64432410D01*
X74474160Y61750000D02*
X75224160Y61000000D01*
X42830090Y68750000D02*
X56023860Y68750000D01*
X42652125Y68927965D02*
X42830090Y68750000D01*
X39561660Y64432410D02*
X42379250Y67250000D01*
%TO.N,/SPIFI4*%
X75374160Y65622793D02*
X75374160Y62877207D01*
X47474160Y66250000D02*
X47974160Y66250000D01*
X75901367Y62350000D02*
X76222689Y62350000D01*
X76222689Y62350000D02*
X76724160Y61848529D01*
X42064160Y64970090D02*
X42064160Y65010000D01*
X74846953Y66377207D02*
X74846953Y66150000D01*
X69574160Y64150000D02*
X70474160Y63250000D01*
X43871216Y66250000D02*
X44506216Y66885000D01*
X74474160Y66750000D02*
X74846953Y66377207D01*
X41061660Y63662500D02*
X41061660Y64432410D01*
X47974160Y66250000D02*
X48474160Y66750000D01*
X76724160Y61848529D02*
X76724160Y58412500D01*
X48974160Y66250000D02*
X49609160Y66885000D01*
X41794070Y64700000D02*
X42064160Y64970090D01*
X46974160Y66750000D02*
X47474160Y66250000D01*
X75374160Y62877207D02*
X75901367Y62350000D01*
X41329250Y64700000D02*
X41794070Y64700000D01*
X44506216Y66885000D02*
X45839160Y66885000D01*
X41061660Y64432410D02*
X41329250Y64700000D01*
X69574160Y66200000D02*
X69574160Y64150000D01*
X74846953Y66150000D02*
X75374160Y65622793D01*
X46474160Y66250000D02*
X46974160Y66750000D01*
X45839160Y66885000D02*
X46474160Y66250000D01*
X69924160Y66550000D02*
X69574160Y66200000D01*
X49609160Y66885000D02*
X50075260Y66885000D01*
X48474160Y66750000D02*
X48974160Y66250000D01*
%TO.N,/CS5*%
X48224160Y32175000D02*
X44699160Y28650000D01*
X56277060Y63352900D02*
X54074160Y61150000D01*
X48974160Y57700000D02*
X48974160Y56500000D01*
X44074160Y28334744D02*
X44074160Y26650000D01*
X56880960Y63352900D02*
X56277060Y63352900D01*
X57873060Y64345000D02*
X56880960Y63352900D01*
X44074160Y26650000D02*
X44974160Y25750000D01*
X52424160Y61150000D02*
X48974160Y57700000D01*
X54074160Y61150000D02*
X52424160Y61150000D01*
X38061660Y65412500D02*
X37474160Y66000000D01*
X73724160Y57375000D02*
X73849160Y57250000D01*
X47637395Y63738235D02*
X48022730Y63352900D01*
X48022730Y63352900D02*
X56880960Y63352900D01*
X44699160Y28650000D02*
X44389416Y28650000D01*
X44389416Y28650000D02*
X44074160Y28334744D01*
X38061660Y63662500D02*
X38061660Y65412500D01*
X73724160Y58412500D02*
X73724160Y57375000D01*
X48224160Y33250000D02*
X48224160Y32175000D01*
D66*
%TO.N,+BATT*%
X10374160Y33430000D02*
X10374160Y23745000D01*
X8474160Y35330000D02*
X9674160Y34130000D01*
D68*
X13336660Y21562500D02*
X13024160Y21250000D01*
D66*
X12336660Y34737930D02*
X12336660Y37400000D01*
D68*
X8474160Y23470000D02*
X11556660Y23470000D01*
D66*
X9254160Y34550000D02*
X12148730Y34550000D01*
D68*
X11556660Y23470000D02*
X13336660Y25250000D01*
D66*
X9674160Y34130000D02*
X11904160Y34130000D01*
X11904160Y34130000D02*
X12524160Y34750000D01*
D68*
X12474160Y22725000D02*
X12474160Y21800000D01*
X10804160Y23470000D02*
X13024160Y21250000D01*
X13024160Y23725000D02*
X13024160Y21250000D01*
D66*
X12148730Y34550000D02*
X12336660Y34737930D01*
D68*
X8474160Y23470000D02*
X11729160Y23470000D01*
X8474160Y23470000D02*
X10804160Y23470000D01*
D64*
X12336660Y37400000D02*
X12336660Y34937500D01*
D68*
X12441660Y23470000D02*
X12474160Y23437500D01*
X12892910Y23856250D02*
X13336660Y24300000D01*
X11729160Y23470000D02*
X12474160Y22725000D01*
X12474160Y23437500D02*
X12474160Y22725000D01*
X10649160Y23470000D02*
X11556660Y23470000D01*
X12506660Y23470000D02*
X12892910Y23856250D01*
D66*
X8474160Y35330000D02*
X9254160Y34550000D01*
D68*
X13336660Y24300000D02*
X12474160Y23437500D01*
X8474160Y23470000D02*
X10649160Y23470000D01*
X8474160Y23470000D02*
X12506660Y23470000D01*
D64*
X12336660Y34937500D02*
X12524160Y34750000D01*
D68*
X11556660Y23470000D02*
X12441660Y23470000D01*
X13336660Y25250000D02*
X13336660Y21562500D01*
D66*
X10374160Y23745000D02*
X10649160Y23470000D01*
D68*
X12474160Y21800000D02*
X13024160Y21250000D01*
X13336660Y25250000D02*
X13336660Y24300000D01*
D66*
X8474160Y35330000D02*
X10374160Y33430000D01*
D64*
X12336660Y37750000D02*
X12336660Y37400000D01*
D68*
X12892910Y23856250D02*
X13024160Y23725000D01*
D63*
%TO.N,Net-(U8-BST)*%
X14611660Y38700000D02*
X18944160Y38700000D01*
X18944160Y38700000D02*
X18974160Y38730000D01*
%TO.N,/PYROCTRL0*%
X60724160Y26969851D02*
X60724160Y22875000D01*
X45905000Y64850000D02*
X45974160Y64850000D01*
X59574160Y21675000D02*
X60749160Y22850000D01*
X80724160Y58412500D02*
X80724160Y59182410D01*
X29502760Y16207100D02*
X30006205Y15703655D01*
X26654361Y15151700D02*
X27709761Y16207100D01*
X57844011Y29850000D02*
X60724160Y26969851D01*
X50917273Y14292900D02*
X54260173Y10950000D01*
X60749160Y22850000D02*
X71424160Y22850000D01*
X40445560Y16707100D02*
X49398959Y16707100D01*
X50095559Y16010500D02*
X50095559Y14292900D01*
X52074160Y28122793D02*
X53801367Y29850000D01*
X45061660Y64432410D02*
X45479250Y64850000D01*
X56974160Y25750000D02*
X56074160Y24850000D01*
X50095559Y14292900D02*
X50917273Y14292900D01*
X39442115Y15703655D02*
X40445560Y16707100D01*
X49398959Y16707100D02*
X50095559Y16010500D01*
X45061660Y63662500D02*
X45061660Y64432410D01*
X73524160Y24950000D02*
X74949160Y24950000D01*
X52074160Y25377207D02*
X52074160Y28122793D01*
X60724160Y22875000D02*
X60749160Y22850000D01*
X30006205Y15703655D02*
X39442115Y15703655D01*
X45479250Y64850000D02*
X45897690Y64850000D01*
X80724160Y59182410D02*
X81891750Y60350000D01*
X81891750Y60350000D02*
X81999160Y60350000D01*
X45897690Y64850000D02*
X45901345Y64853655D01*
X54260173Y10950000D02*
X57609697Y10950000D01*
X71424160Y22850000D02*
X73524160Y24950000D01*
X53801367Y29850000D02*
X57844011Y29850000D01*
X56074160Y24850000D02*
X52601367Y24850000D01*
X59574160Y12914463D02*
X59574160Y21675000D01*
X57609697Y10950000D02*
X59574160Y12914463D01*
X21624159Y15151700D02*
X26654361Y15151700D01*
X52601367Y24850000D02*
X52074160Y25377207D01*
X45901345Y64853655D02*
X45905000Y64850000D01*
X27709761Y16207100D02*
X29502760Y16207100D01*
D65*
%TO.N,Earth*%
X89642924Y11250000D02*
X90329860Y11250000D01*
X88972690Y11250000D02*
X89504718Y11782028D01*
D63*
X43736660Y35000000D02*
X43249160Y35000000D01*
D65*
X88881960Y11250000D02*
X88972690Y11250000D01*
D67*
X93499160Y20381676D02*
X93499160Y18875000D01*
D64*
X6899160Y55950000D02*
X7174160Y56225000D01*
D66*
X3474160Y63830295D02*
X5099160Y65455295D01*
D63*
X58211660Y49650000D02*
X56924160Y49650000D01*
D67*
X90933830Y13290330D02*
X91074160Y13430660D01*
X90249160Y13350000D02*
X90874160Y13350000D01*
D68*
X88352689Y12629999D02*
X89005631Y12629999D01*
D63*
X76495704Y3250000D02*
X76154160Y3591544D01*
X3544160Y53370000D02*
X3474160Y53300000D01*
X29294070Y43375000D02*
X27449160Y43375000D01*
D66*
X25574160Y28850000D02*
X27274160Y28850000D01*
D65*
X93673660Y10228655D02*
X93673660Y11050500D01*
D63*
X54536660Y49450000D02*
X56724160Y49450000D01*
D65*
X90297690Y11250000D02*
X90051345Y11250000D01*
D63*
X61811660Y47500000D02*
X60941317Y47500000D01*
X69524160Y5925000D02*
X69524160Y4180000D01*
X54724160Y58512500D02*
X54724160Y58975000D01*
X83974160Y9076470D02*
X83974160Y9840000D01*
D66*
X5652080Y66008215D02*
X5118865Y65475000D01*
D63*
X63199160Y55100000D02*
X63224160Y55100000D01*
X83974160Y9840000D02*
X83974160Y9775000D01*
D64*
X7274160Y56225000D02*
X7324160Y56275000D01*
D63*
X23874160Y50150000D02*
X24974160Y51250000D01*
D65*
X92376345Y11250000D02*
X91066360Y11250000D01*
D68*
X49324161Y15151700D02*
X49324161Y14975001D01*
D67*
X90449160Y21275000D02*
X89434160Y22290000D01*
D63*
X32561660Y64432410D02*
X32549160Y64444910D01*
D64*
X6723235Y65860000D02*
X9546765Y65860000D01*
D67*
X92605836Y21275000D02*
X93499160Y21275000D01*
D63*
X22474160Y49250000D02*
X22974160Y49250000D01*
X60907955Y45366205D02*
X61041750Y45500000D01*
X57224160Y49200000D02*
X57811660Y49787500D01*
X83974160Y9425000D02*
X83799160Y9600000D01*
X23874160Y50150000D02*
X24474160Y50750000D01*
D65*
X93673660Y10003655D02*
X93673660Y10228655D01*
D63*
X58449160Y46091544D02*
X58449160Y46250000D01*
X69524160Y4180000D02*
X69954160Y3750000D01*
X24822689Y60250000D02*
X22776344Y58203655D01*
D68*
X88540967Y11910400D02*
X88126345Y12325022D01*
D64*
X6283235Y66300000D02*
X6723235Y65860000D01*
X6149160Y56600000D02*
X6799160Y56600000D01*
D63*
X56967910Y49693750D02*
X58155410Y49693750D01*
X57899161Y48050000D02*
X57624160Y48050000D01*
X58411660Y49450000D02*
X58211660Y49650000D01*
D65*
X93673660Y11050500D02*
X93351815Y10728655D01*
D63*
X71974160Y47750000D02*
X70224160Y46000000D01*
D65*
X92701345Y11250000D02*
X92376345Y11250000D01*
X88881960Y12437800D02*
X88881960Y11250000D01*
D63*
X48924160Y45802174D02*
X48871986Y45750000D01*
X58155410Y49693750D02*
X58049160Y49587500D01*
X55236660Y57537500D02*
X54774160Y58000000D01*
X45711660Y63512500D02*
X46461660Y63512500D01*
D67*
X88881960Y11910400D02*
X88881960Y12437800D01*
D66*
X40324161Y17651700D02*
X39995460Y17651700D01*
D63*
X57524160Y49200000D02*
X57661660Y49200000D01*
X60389482Y44306931D02*
X60791750Y44709199D01*
X22459160Y49235000D02*
X22474160Y49250000D01*
D64*
X92824160Y12760400D02*
X92824160Y18250000D01*
D63*
X84524160Y39882410D02*
X84524160Y39700000D01*
X58802080Y43327920D02*
X59586660Y44112500D01*
X83799160Y9600000D02*
X83714160Y9600000D01*
X58789482Y45610191D02*
X59586660Y44813013D01*
X60774160Y45232410D02*
X60907955Y45366205D01*
D65*
X90247260Y11332600D02*
X90247260Y12828372D01*
D67*
X89374160Y12998528D02*
X89551345Y13175713D01*
D65*
X92021770Y11239600D02*
X91401345Y11239600D01*
D63*
X57911660Y49587500D02*
X56861660Y49587500D01*
D67*
X89554287Y13178655D02*
X89565316Y13189684D01*
D63*
X83474160Y9180840D02*
X83551345Y9103655D01*
D64*
X94974110Y12240000D02*
X94603710Y12610400D01*
D63*
X85624160Y13380001D02*
X85624160Y13350000D01*
X57774160Y49450000D02*
X57524160Y49200000D01*
X57624160Y48050000D02*
X57524160Y48150000D01*
X29974160Y23250000D02*
X29974160Y22887068D01*
X58411660Y49950000D02*
X58211660Y49750000D01*
D65*
X89608024Y11284900D02*
X89642924Y11250000D01*
X88659560Y11910400D02*
X88881960Y11910400D01*
D68*
X15611660Y21912500D02*
X15249160Y21550000D01*
D65*
X89507460Y11284900D02*
X88881960Y11910400D01*
D64*
X95023660Y10528655D02*
X95023660Y9928655D01*
D65*
X89876275Y11703585D02*
X89876275Y12878725D01*
D63*
X30584160Y32880000D02*
X28454160Y30750000D01*
X59234160Y43760000D02*
X59586660Y44112500D01*
X88881960Y11250000D02*
X88881960Y11910400D01*
X59586660Y44813013D02*
X59586660Y44112500D01*
D65*
X92376345Y11250000D02*
X92427315Y11250000D01*
D64*
X95474160Y12240000D02*
X95474160Y11675000D01*
D63*
X26149160Y50750000D02*
X26849160Y50750000D01*
X57911660Y49587500D02*
X57836660Y49587500D01*
X22474160Y49250000D02*
X22484160Y49240000D01*
D64*
X28679161Y30255001D02*
X28849160Y30425000D01*
D63*
X83136660Y40500000D02*
X83906570Y40500000D01*
X56924160Y49650000D02*
X56474160Y49200000D01*
X83474160Y9275000D02*
X83799160Y9600000D01*
X86294160Y14050001D02*
X85624160Y13380001D01*
X58411660Y49450000D02*
X58411660Y49950000D01*
D65*
X89669460Y12446770D02*
X89751345Y12528655D01*
D64*
X18739160Y34750000D02*
X18464160Y35025000D01*
D65*
X93673660Y11050500D02*
X93474160Y11250000D01*
D63*
X68524160Y56175000D02*
X68649160Y56050000D01*
X57649160Y42576470D02*
X58172690Y43100000D01*
X27449160Y43375000D02*
X26724160Y42650000D01*
X60941317Y47500000D02*
X60370238Y46928921D01*
X56474160Y49200000D02*
X57224160Y49200000D01*
D66*
X28324161Y17151700D02*
X28324161Y17274999D01*
D63*
X59234160Y41940000D02*
X59234160Y43760000D01*
X83974160Y9076470D02*
X83974160Y9425000D01*
D65*
X93673660Y10228655D02*
X93673660Y10256340D01*
D63*
X83551345Y9103655D02*
X83676345Y8978655D01*
D65*
X74279160Y6125000D02*
X73974160Y6430000D01*
D67*
X83974160Y9840000D02*
X83599160Y9840000D01*
D64*
X95474160Y10979155D02*
X95023660Y10528655D01*
D63*
X55236660Y57500000D02*
X54874160Y57500000D01*
D65*
X90329860Y11250000D02*
X90247260Y11332600D01*
D63*
X57936218Y44766398D02*
X57936218Y45750000D01*
D66*
X5652080Y66202920D02*
X5652080Y66008215D01*
D63*
X57774160Y49650000D02*
X57774160Y49450000D01*
X83776345Y8878655D02*
X83776345Y9577185D01*
X54724160Y57500000D02*
X54499160Y57725000D01*
D65*
X89876275Y12878725D02*
X89565316Y13189684D01*
D63*
X58324160Y49450000D02*
X58024160Y49750000D01*
D65*
X90247260Y13232740D02*
X90226345Y13253655D01*
D64*
X5599160Y44050000D02*
X6149160Y44600000D01*
D68*
X88126345Y12325022D02*
X88126345Y12403655D01*
D63*
X57776345Y40824396D02*
X57776345Y41129359D01*
X29561660Y43107410D02*
X29294070Y43375000D01*
X54724160Y57950000D02*
X54499160Y57725000D01*
X51624160Y36875000D02*
X51454160Y37045000D01*
D65*
X73294160Y14250000D02*
X73934160Y14890000D01*
D63*
X82486660Y58412500D02*
X82499160Y58400000D01*
X45561660Y63662500D02*
X45711660Y63512500D01*
X54536660Y49450000D02*
X56224160Y49450000D01*
X77092616Y3250000D02*
X76495704Y3250000D01*
X54674160Y59065685D02*
X54239845Y59500000D01*
D65*
X89751345Y12528655D02*
X89669460Y12610540D01*
D63*
X58411660Y49450000D02*
X57974160Y49450000D01*
X56174160Y40940000D02*
X56289764Y40824396D01*
X43736660Y35000000D02*
X43736660Y34975000D01*
D65*
X89669460Y12610540D02*
X89669460Y13085540D01*
D63*
X55236660Y57500000D02*
X54724160Y58012500D01*
D67*
X90449160Y20381676D02*
X91342484Y21275000D01*
D63*
X58211660Y49650000D02*
X58211660Y49750000D01*
X43736660Y34975000D02*
X43649160Y34975000D01*
X52222690Y33750000D02*
X52376345Y34203655D01*
X60773277Y45366205D02*
X60907955Y45366205D01*
X53949160Y59500000D02*
X53374160Y60075000D01*
D65*
X89608024Y11284900D02*
X89507460Y11284900D01*
D63*
X68224160Y57642590D02*
X68524160Y57342590D01*
X54724160Y58512500D02*
X54724160Y57950000D01*
D67*
X90449160Y18875000D02*
X90449160Y20381676D01*
D63*
X48871986Y45750000D02*
X47474160Y45750000D01*
X83676345Y8978655D02*
X83776345Y8878655D01*
X43249160Y35000000D02*
X42974160Y35275000D01*
D67*
X90474160Y18250000D02*
X89434160Y17210000D01*
D63*
X60774160Y44767590D02*
X60774160Y45232410D01*
X32549160Y64444910D02*
X32549160Y65075000D01*
X28824160Y22100000D02*
X29324160Y22100000D01*
X60328081Y46928921D02*
X59649160Y46250000D01*
D67*
X89551345Y13178655D02*
X89554287Y13178655D01*
D65*
X89573124Y11250000D02*
X88881960Y11250000D01*
X90226345Y13253655D02*
X90247260Y13274570D01*
X90247260Y11332600D02*
X90247260Y13232740D01*
X89669460Y11910400D02*
X89669460Y12446770D01*
X89376345Y11910400D02*
X89376345Y12927815D01*
X93673660Y10256340D02*
X93201345Y10728655D01*
D67*
X91074160Y18250000D02*
X90449160Y18875000D01*
D63*
X54724160Y58975000D02*
X54674160Y59025000D01*
D65*
X92701345Y11228655D02*
X93201345Y10728655D01*
D63*
X68524160Y57342590D02*
X68524160Y56825000D01*
D64*
X7499160Y43875000D02*
X7449160Y43925000D01*
D68*
X88881960Y11910400D02*
X88540967Y11910400D01*
D64*
X94603710Y12610400D02*
X95023660Y12190450D01*
X28269159Y30255001D02*
X28679161Y30255001D01*
D63*
X81224160Y58412500D02*
X82486660Y58412500D01*
X24474160Y50750000D02*
X26149160Y50750000D01*
D64*
X38749160Y31250000D02*
X38749160Y26230000D01*
D63*
X63099160Y55000000D02*
X63199160Y55100000D01*
X60791750Y44709199D02*
X60791750Y44750000D01*
X27749160Y60350000D02*
X27649160Y60250000D01*
X59889482Y46250000D02*
X60773277Y45366205D01*
X58411660Y47950000D02*
X57999161Y47950000D01*
X26919070Y52750000D02*
X27186660Y52482410D01*
X65224160Y35625000D02*
X65224160Y37087500D01*
D66*
X5118865Y65475000D02*
X5099160Y65475000D01*
D63*
X56289764Y40824396D02*
X57776345Y40824396D01*
D66*
X39995460Y17651700D02*
X39436660Y17092900D01*
D63*
X51454160Y33750000D02*
X52222690Y33750000D01*
X68649160Y56050000D02*
X68674160Y56050000D01*
D66*
X20100860Y15151700D02*
X19899160Y14950000D01*
D63*
X54239845Y59500000D02*
X53949160Y59500000D01*
D66*
X9355610Y66202920D02*
X9956345Y66803655D01*
D63*
X57911660Y49587500D02*
X57811660Y49687500D01*
X57974160Y49950000D02*
X58411660Y49950000D01*
X76154160Y3750000D02*
X76154160Y3795000D01*
D66*
X24974160Y28250000D02*
X24974160Y23800000D01*
D63*
X74809160Y5140000D02*
X74809160Y5750000D01*
D64*
X23074160Y20750000D02*
X23599160Y20225000D01*
D66*
X10100860Y14651700D02*
X10099160Y14650000D01*
D67*
X91342484Y21275000D02*
X92605836Y21275000D01*
D63*
X57911660Y49587500D02*
X57136660Y49587500D01*
X54674160Y59025000D02*
X54674160Y59065685D01*
D65*
X88881960Y11339600D02*
X88881960Y11910400D01*
D63*
X83474160Y9840000D02*
X83474160Y9180840D01*
X58674160Y45610191D02*
X58789482Y45610191D01*
D65*
X93251345Y10778655D02*
X93201345Y10728655D01*
X89876275Y11703585D02*
X89669460Y11910400D01*
D63*
X3474160Y41300000D02*
X3474160Y61200000D01*
D67*
X89374160Y12930000D02*
X89374160Y12998528D01*
D63*
X51454160Y36705000D02*
X51454160Y33750000D01*
X76154160Y3795000D02*
X74809160Y5140000D01*
X68699160Y56000000D02*
X68674160Y56025000D01*
X26849160Y50750000D02*
X27124160Y51025000D01*
X58294160Y44408456D02*
X57936218Y44766398D01*
D66*
X27274160Y28850000D02*
X28849160Y30425000D01*
D63*
X55236660Y58000000D02*
X55236660Y57862500D01*
X58449160Y46250000D02*
X58449160Y47912500D01*
D64*
X95023660Y9928655D02*
X95023660Y9250000D01*
X28454160Y30440001D02*
X28119159Y30105001D01*
D63*
X58049160Y49587500D02*
X57911660Y49587500D01*
X57936218Y45750000D02*
X58107616Y45750000D01*
X73797616Y33840000D02*
X74139160Y34181544D01*
D66*
X10324161Y14651700D02*
X10100860Y14651700D01*
D68*
X88126345Y12403655D02*
X88012290Y12289600D01*
D63*
X54774160Y58000000D02*
X54499160Y57725000D01*
D65*
X90036745Y11250000D02*
X89504718Y11782028D01*
D63*
X27649160Y60250000D02*
X26149160Y60250000D01*
X76469160Y15425000D02*
X76724160Y15425000D01*
D67*
X91074160Y18250000D02*
X90474160Y18250000D01*
D64*
X6824160Y43925000D02*
X7349160Y43925000D01*
D63*
X57911660Y49587500D02*
X57524160Y49200000D01*
D64*
X21749160Y20750000D02*
X23074160Y20750000D01*
D63*
X58619160Y41166544D02*
X58619160Y40174314D01*
D66*
X24974160Y28250000D02*
X25574160Y28850000D01*
D63*
X83776345Y9577185D02*
X83799160Y9600000D01*
X57811660Y49787500D02*
X57974160Y49950000D01*
X56861660Y49587500D02*
X56474160Y49200000D01*
X54874160Y57500000D02*
X54724160Y57500000D01*
D68*
X14611660Y36800000D02*
X14611660Y34937500D01*
D67*
X89434160Y22290000D02*
X89434160Y17210000D01*
D63*
X83974160Y9775000D02*
X83799160Y9600000D01*
D67*
X88976345Y12532185D02*
X88881960Y12437800D01*
D63*
X56724160Y49450000D02*
X57524160Y50250000D01*
D65*
X90301345Y11253655D02*
X90297690Y11250000D01*
D63*
X61811660Y46000000D02*
X61811660Y45500000D01*
D64*
X6149160Y44025000D02*
X5574160Y44600000D01*
X92974160Y12610400D02*
X92824160Y12760400D01*
D65*
X89608024Y11284900D02*
X89573124Y11250000D01*
X89376345Y12927815D02*
X89374160Y12930000D01*
D64*
X95474160Y11675000D02*
X95624160Y11525000D01*
D65*
X90247260Y13274570D02*
X90247260Y13348100D01*
X90247260Y13348100D02*
X90249160Y13350000D01*
D63*
X57649160Y41256544D02*
X57649160Y42576470D01*
X57811660Y49687500D02*
X57811660Y49787500D01*
X76154160Y3591544D02*
X76154160Y3750000D01*
X57811660Y49687500D02*
X57774160Y49650000D01*
X68524160Y56825000D02*
X68524160Y56175000D01*
X77794160Y3951544D02*
X77092616Y3250000D01*
D65*
X92754530Y10506840D02*
X92021770Y11239600D01*
D63*
X58819160Y41366544D02*
X58619160Y41166544D01*
X43224160Y35025000D02*
X42974160Y35275000D01*
X72474160Y47750000D02*
X71974160Y47750000D01*
X77174160Y16130000D02*
X77174160Y18050000D01*
D64*
X95474160Y12240000D02*
X95474160Y10979155D01*
D63*
X55036660Y57662500D02*
X54974160Y57725000D01*
X72420843Y34619861D02*
X73200704Y33840000D01*
D66*
X28324161Y17274999D02*
X28199160Y17400000D01*
D67*
X89725632Y13350000D02*
X90249160Y13350000D01*
D63*
X83474160Y9180840D02*
X83474160Y9275000D01*
D64*
X95474160Y12240000D02*
X94974110Y12240000D01*
D65*
X74809160Y5750000D02*
X74799160Y5750000D01*
D64*
X28119159Y30105001D02*
X28269159Y30255001D01*
D63*
X56474160Y49200000D02*
X56967910Y49693750D01*
X26149160Y60250000D02*
X24822689Y60250000D01*
D65*
X90051345Y11250000D02*
X88971560Y11250000D01*
D64*
X28454160Y30750000D02*
X28454160Y30440001D01*
D63*
X61811660Y55000000D02*
X63099160Y55000000D01*
X55236660Y58000000D02*
X54499160Y57725000D01*
X63224160Y55100000D02*
X63224160Y55125000D01*
D67*
X91074160Y13430660D02*
X91074160Y18250000D01*
D63*
X9984160Y52750000D02*
X9364160Y53370000D01*
D65*
X92427315Y11250000D02*
X93673660Y10003655D01*
D64*
X9512690Y66360000D02*
X9956345Y66803655D01*
D63*
X26149160Y51250000D02*
X26919070Y51250000D01*
X68674160Y56050000D02*
X68674160Y56025000D01*
X58294160Y44250000D02*
X58294160Y44408456D01*
D64*
X28119159Y30105001D02*
X26264159Y28250000D01*
X93474160Y18250000D02*
X94514160Y17210000D01*
X6149160Y56600000D02*
X6149160Y55950000D01*
D63*
X63224160Y55125000D02*
X63124160Y55025000D01*
X58211660Y49750000D02*
X58024160Y49750000D01*
X26919070Y51250000D02*
X27186660Y51517590D01*
X76724160Y15425000D02*
X76724160Y15680000D01*
D65*
X93251345Y11250000D02*
X92701345Y11250000D01*
D63*
X60370238Y46928921D02*
X60328081Y46928921D01*
D64*
X7349160Y43925000D02*
X7499160Y43875000D01*
D66*
X3474160Y41300000D02*
X3474160Y63830295D01*
D65*
X74799160Y5750000D02*
X74424160Y6125000D01*
D66*
X20324161Y15151700D02*
X20100860Y15151700D01*
D63*
X57661660Y49200000D02*
X58411660Y49950000D01*
D65*
X88881960Y11910400D02*
X89376345Y11910400D01*
D64*
X94603710Y12610400D02*
X92974160Y12610400D01*
D63*
X58024160Y49750000D02*
X57524160Y50250000D01*
X85624160Y13350000D02*
X85594159Y13350000D01*
D65*
X90329860Y11250000D02*
X90305000Y11250000D01*
D63*
X83714160Y9600000D02*
X83474160Y9840000D01*
X54974160Y57725000D02*
X54499160Y57725000D01*
X59586660Y44112500D02*
X59781091Y44306931D01*
X29561660Y42337500D02*
X29561660Y43107410D01*
X58574160Y43100000D02*
X58802080Y43327920D01*
X56224160Y49450000D02*
X56474160Y49200000D01*
X58819160Y41525000D02*
X58819160Y41366544D01*
X74139160Y34181544D02*
X74139160Y34340000D01*
D64*
X9546765Y65860000D02*
X9986765Y66300000D01*
D63*
X84994159Y12750000D02*
X82794160Y12750000D01*
D65*
X92701345Y11250000D02*
X92701345Y11228655D01*
D63*
X22776344Y58203655D02*
X21526345Y58203655D01*
D66*
X5099160Y65455295D02*
X5099160Y65475000D01*
D63*
X76724160Y15680000D02*
X77174160Y16130000D01*
D64*
X4024160Y44600000D02*
X3474160Y44050000D01*
D63*
X54724160Y58050000D02*
X54724160Y58512500D01*
D65*
X74424160Y6125000D02*
X74279160Y6125000D01*
D63*
X57776345Y41129359D02*
X57649160Y41256544D01*
X51624160Y36875000D02*
X51454160Y36705000D01*
D65*
X93673660Y9587711D02*
X93673660Y10003655D01*
D63*
X72420843Y35665743D02*
X72420843Y34619861D01*
X58411660Y49450000D02*
X57774160Y49450000D01*
D68*
X89005631Y12629999D02*
X89565316Y13189684D01*
D63*
X77794160Y5250000D02*
X77794160Y3951544D01*
X51454160Y37045000D02*
X51454160Y38750000D01*
D65*
X93474160Y11250000D02*
X93251345Y11250000D01*
D63*
X59649160Y46250000D02*
X59889482Y46250000D01*
X58107616Y45750000D02*
X58449160Y46091544D01*
X57974160Y49450000D02*
X57774160Y49650000D01*
X54774160Y58000000D02*
X54724160Y58050000D01*
D65*
X90329860Y11250000D02*
X89876275Y11703585D01*
D64*
X6799160Y56600000D02*
X7174160Y56225000D01*
D63*
X27186660Y51517590D02*
X27186660Y52482410D01*
D64*
X7174160Y56225000D02*
X7274160Y56225000D01*
D65*
X91066360Y11250000D02*
X90329860Y11250000D01*
D63*
X58449160Y46250000D02*
X58449160Y45835191D01*
D65*
X90305000Y11250000D02*
X90301345Y11253655D01*
D68*
X15611660Y24300000D02*
X15611660Y21912500D01*
D63*
X22459160Y47950000D02*
X22459160Y49235000D01*
X58294160Y38750000D02*
X58294160Y35250000D01*
D65*
X93351815Y10728655D02*
X93201345Y10728655D01*
D64*
X92824160Y18250000D02*
X93474160Y18250000D01*
D67*
X92605836Y21275000D02*
X93499160Y20381676D01*
D68*
X49324161Y14975001D02*
X49099160Y14750000D01*
D63*
X68224160Y58412500D02*
X68224160Y57642590D01*
X83676345Y8978655D02*
X83676345Y9477185D01*
X83551345Y9103655D02*
X83799160Y9351470D01*
X55236660Y57500000D02*
X55236660Y57537500D01*
D66*
X24974160Y23800000D02*
X24924160Y23750000D01*
D63*
X55036660Y57662500D02*
X54874160Y57500000D01*
X27186660Y51087500D02*
X27124160Y51025000D01*
X58819160Y41525000D02*
X59234160Y41940000D01*
D65*
X89669460Y11910400D02*
X89376345Y11910400D01*
D63*
X29974160Y22887068D02*
X29187092Y22100000D01*
X29187092Y22100000D02*
X28824160Y22100000D01*
X43224160Y34487500D02*
X43224160Y35025000D01*
D67*
X93499160Y18875000D02*
X92874160Y18250000D01*
D63*
X61041750Y45500000D02*
X61811660Y45500000D01*
X57836660Y49587500D02*
X57774160Y49650000D01*
X59781091Y44306931D02*
X60389482Y44306931D01*
X24974160Y51250000D02*
X26149160Y51250000D01*
X73200704Y33840000D02*
X73797616Y33840000D01*
D64*
X3474160Y44050000D02*
X5599160Y44050000D01*
D63*
X58449160Y47912500D02*
X58411660Y47950000D01*
D65*
X93251345Y11250000D02*
X93251345Y10778655D01*
D63*
X46461660Y63512500D02*
X46549160Y63425000D01*
X57999161Y47950000D02*
X57899161Y48050000D01*
D65*
X90051345Y11250000D02*
X90036745Y11250000D01*
D63*
X58619160Y40174314D02*
X58294160Y39849314D01*
X26149160Y50750000D02*
X26149160Y51250000D01*
X60791750Y44750000D02*
X60774160Y44767590D01*
D68*
X14611660Y34937500D02*
X14424160Y34750000D01*
D64*
X6149160Y55950000D02*
X6899160Y55950000D01*
D67*
X93499160Y21275000D02*
X94514160Y22290000D01*
D63*
X27186660Y52482410D02*
X27186660Y51087500D01*
D64*
X6149160Y44600000D02*
X6824160Y43925000D01*
X5574160Y44600000D02*
X4024160Y44600000D01*
D63*
X26149160Y52750000D02*
X26919070Y52750000D01*
X49839160Y52968820D02*
X49839160Y53250000D01*
X83776345Y8878655D02*
X83974160Y9076470D01*
X54724160Y58012500D02*
X54724160Y58512500D01*
X76294160Y15250000D02*
X76469160Y15425000D01*
D68*
X88012290Y12289600D02*
X88012290Y11503655D01*
D64*
X95023660Y12190450D02*
X95023660Y9928655D01*
D63*
X55236660Y57500000D02*
X55236660Y58000000D01*
X30584160Y34140000D02*
X30584160Y32880000D01*
X57136660Y49587500D02*
X56474160Y50250000D01*
X49886185Y52921795D02*
X49839160Y52968820D01*
D64*
X29974160Y34750000D02*
X18739160Y34750000D01*
D65*
X90247260Y12828372D02*
X89725632Y13350000D01*
D63*
X58172690Y43100000D02*
X58574160Y43100000D01*
X83906570Y40500000D02*
X84524160Y39882410D01*
D68*
X88012290Y11503655D02*
X88076345Y11439600D01*
D65*
X93673660Y9587711D02*
X92754530Y10506840D01*
D64*
X5652080Y66202920D02*
X5809160Y66360000D01*
D65*
X89504718Y11782028D02*
X89376345Y11910400D01*
D63*
X83799160Y9351470D02*
X83799160Y9600000D01*
X68674160Y56025000D02*
X68699160Y56000000D01*
X32561660Y63662500D02*
X32561660Y64432410D01*
X85594159Y13350000D02*
X84994159Y12750000D01*
X86294160Y14250000D02*
X86294160Y14050001D01*
D65*
X73934160Y14890000D02*
X73934160Y19750000D01*
D68*
X88126345Y12403655D02*
X88352689Y12629999D01*
D63*
X58294160Y39849314D02*
X58294160Y38750000D01*
D67*
X88976345Y12532185D02*
X89374160Y12930000D01*
D63*
X29324160Y22100000D02*
X30474160Y23250000D01*
D65*
X88971560Y11250000D02*
X88881960Y11339600D01*
D63*
X29974160Y34750000D02*
X30584160Y34140000D01*
D64*
X21749160Y20750000D02*
X21749160Y18240000D01*
D63*
X83676345Y9477185D02*
X83799160Y9600000D01*
D65*
X88881960Y11250000D02*
X88524160Y11250000D01*
D68*
X88076345Y11439600D02*
X88881960Y11439600D01*
D64*
X6149160Y43950000D02*
X6149160Y44025000D01*
D63*
X22974160Y49250000D02*
X23874160Y50150000D01*
X58449160Y45835191D02*
X58674160Y45610191D01*
D64*
X26264159Y28250000D02*
X24974160Y28250000D01*
D67*
X89551345Y13175713D02*
X89551345Y13178655D01*
D63*
X58411660Y49450000D02*
X58324160Y49450000D01*
X55236660Y58000000D02*
X54774160Y58000000D01*
D67*
X89565316Y13189684D02*
X89725632Y13350000D01*
X90874160Y13350000D02*
X90933830Y13290330D01*
D65*
X89669460Y13085540D02*
X89565316Y13189684D01*
D63*
X9364160Y53370000D02*
X3544160Y53370000D01*
X58411660Y49950000D02*
X58155410Y49693750D01*
X55236660Y57862500D02*
X55036660Y57662500D01*
D66*
X5652080Y66202920D02*
X9355610Y66202920D01*
D64*
X7449160Y43925000D02*
X7399160Y43925000D01*
D67*
X91342484Y21275000D02*
X90449160Y21275000D01*
D63*
X26149160Y51250000D02*
X26899160Y51250000D01*
X26899160Y51250000D02*
X27124160Y51025000D01*
D68*
%TO.N,Net-(U9-S)*%
X19172460Y13348300D02*
X14909160Y9085000D01*
X20974160Y13348300D02*
X19172460Y13348300D01*
%TO.N,Net-(U11-S)*%
X10974160Y12848300D02*
X6532460Y12848300D01*
X6532460Y12848300D02*
X2934160Y9250000D01*
D63*
%TO.N,/PYROCTRL1*%
X57974160Y26750000D02*
X56974160Y27750000D01*
X13097459Y16125000D02*
X24649160Y16125000D01*
X24649160Y16125000D02*
X26724160Y18200000D01*
X36012189Y18910500D02*
X49840867Y18910500D01*
X49840867Y18910500D02*
X56201367Y12550000D01*
X43561660Y63662500D02*
X43561660Y64837500D01*
X79224160Y57642590D02*
X79249160Y57617590D01*
X57974160Y13577207D02*
X57974160Y26750000D01*
X79249160Y57617590D02*
X79249160Y57050000D01*
X26724160Y18200000D02*
X30511854Y18200000D01*
X56201367Y12550000D02*
X56946953Y12550000D01*
X11624159Y14651700D02*
X13097459Y16125000D01*
X32208199Y16503655D02*
X33605344Y16503655D01*
X30511854Y18200000D02*
X32208199Y16503655D01*
X43561660Y64837500D02*
X43574160Y64850000D01*
X33605344Y16503655D02*
X36012189Y18910500D01*
X56946953Y12550000D02*
X57974160Y13577207D01*
X79224160Y58412500D02*
X79224160Y57642590D01*
D68*
%TO.N,Net-(U12-S)*%
X28974160Y15348300D02*
X28974160Y11290000D01*
X28974160Y11290000D02*
X26769160Y9085000D01*
D63*
%TO.N,/PYROCTRL2*%
X70224160Y60650000D02*
X70074160Y60600000D01*
X42561660Y63662500D02*
X42561660Y64658971D01*
X58874160Y24900000D02*
X58924160Y24975000D01*
X78224160Y58412500D02*
X78224160Y59948529D01*
X30672204Y16103655D02*
X37316045Y16103655D01*
X78224160Y59948529D02*
X79425631Y61150000D01*
X61972689Y58250000D02*
X63599160Y59876471D01*
X79425631Y61150000D02*
X80074160Y61150000D01*
X57346953Y28650000D02*
X56601367Y28650000D01*
X37316045Y16103655D02*
X39722890Y18510500D01*
X49675181Y18510500D02*
X56035681Y12150000D01*
X42952689Y65050000D02*
X42952689Y65471471D01*
X58374160Y27622793D02*
X57346953Y28650000D01*
X56074160Y26850000D02*
X54974160Y25750000D01*
X58374160Y13411521D02*
X58374160Y24975000D01*
X29624159Y17151700D02*
X30672204Y16103655D01*
X69624160Y60150000D02*
X70224160Y60650000D01*
X57112639Y12150000D02*
X58374160Y13411521D01*
X58924160Y24975000D02*
X58999160Y25050000D01*
X61275631Y58450000D02*
X61475631Y58250000D01*
X42952689Y65471471D02*
X42774160Y65650000D01*
X42561660Y64658971D02*
X42952689Y65050000D01*
X58374160Y24975000D02*
X58874160Y24900000D01*
X61475631Y58250000D02*
X61972689Y58250000D01*
X63599160Y59876471D02*
X63599160Y60150000D01*
X56035681Y12150000D02*
X57112639Y12150000D01*
X58374160Y24975000D02*
X58374160Y27622793D01*
X67649160Y60150000D02*
X69624160Y60150000D01*
X63599160Y60150000D02*
X67649160Y60150000D01*
X56249160Y57800000D02*
X56899160Y58450000D01*
X56074160Y28122793D02*
X56074160Y26850000D01*
X39722890Y18510500D02*
X49675181Y18510500D01*
X56601367Y28650000D02*
X56074160Y28122793D01*
X56899160Y58450000D02*
X61275631Y58450000D01*
%TO.N,/PYROCTRL3*%
X49968295Y17651700D02*
X41624159Y17651700D01*
X81224160Y34500000D02*
X81224160Y37087500D01*
X59494512Y25405139D02*
X59569021Y25405139D01*
X58774160Y23465685D02*
X58774160Y13245835D01*
X59924160Y25834787D02*
X59924160Y26638479D01*
X76124160Y29400000D02*
X81224160Y34500000D01*
X56274160Y29050000D02*
X54974160Y27750000D01*
X59008475Y23700000D02*
X58774160Y23465685D01*
X43474160Y39250001D02*
X43474161Y39250000D01*
X55869995Y11750000D02*
X49968295Y17651700D01*
X59267017Y23700000D02*
X59008475Y23700000D01*
X74400631Y29400000D02*
X76124160Y29400000D01*
X59924160Y26638479D02*
X57512639Y29050000D01*
X59494512Y25405139D02*
X59924160Y24975491D01*
X45561660Y40037500D02*
X45561660Y42337500D01*
X58774160Y13245835D02*
X57278325Y11750000D01*
X59569021Y25405139D02*
X59574160Y25400000D01*
X43474161Y39250000D02*
X44774160Y39250000D01*
X73774160Y31150000D02*
X73774160Y30026471D01*
X59494512Y25405139D02*
X59924160Y25834787D01*
X59924160Y24357143D02*
X59267017Y23700000D01*
X57512639Y29050000D02*
X56274160Y29050000D01*
X73774160Y30026471D02*
X74400631Y29400000D01*
X59924160Y24975491D02*
X59924160Y24357143D01*
X57278325Y11750000D02*
X55869995Y11750000D01*
X44774160Y39250000D02*
X45561660Y40037500D01*
D68*
%TO.N,Net-(U13-S)*%
X40974160Y11430000D02*
X38629160Y9085000D01*
X40974160Y15848300D02*
X40974160Y11430000D01*
D63*
%TO.N,/PYROCTRL4*%
X53874160Y26650000D02*
X52974160Y25750000D01*
X54425859Y11350000D02*
X57444011Y11350000D01*
X57444011Y11350000D02*
X59174160Y13080149D01*
X60324160Y23300000D02*
X60324160Y26804165D01*
X59968499Y23050694D02*
X59598466Y23050694D01*
X79724160Y37087500D02*
X79724160Y33565685D01*
X60324160Y26804165D02*
X57678325Y29450000D01*
X57678325Y29450000D02*
X55401367Y29450000D01*
X76158474Y30000000D02*
X74649160Y30000000D01*
X42524160Y38502945D02*
X42524160Y39148529D01*
X59598466Y23050694D02*
X59349160Y23300000D01*
X42524160Y39148529D02*
X43488131Y40112500D01*
X79724160Y33565685D02*
X78315582Y32157107D01*
X78315582Y32157107D02*
X76158474Y30000000D01*
X59349160Y23300000D02*
X60324160Y23300000D01*
X59174160Y23300000D02*
X59349160Y23300000D01*
X50624159Y15151700D02*
X54425859Y11350000D01*
X59174160Y13080149D02*
X59174160Y23300000D01*
X44061660Y40112500D02*
X44061660Y42337500D01*
X53874160Y27922793D02*
X53874160Y26650000D01*
X55401367Y29450000D02*
X53874160Y27922793D01*
X43488131Y40112500D02*
X44061660Y40112500D01*
D66*
%TO.N,Net-(U14-S)*%
X49974160Y13348300D02*
X49974160Y9600000D01*
X49974160Y9600000D02*
X50489160Y9085000D01*
D63*
%TO.N,/PYROCTRL5*%
X80091750Y62050000D02*
X79164110Y62050000D01*
X78899160Y61950000D02*
X77224160Y60275000D01*
X79164110Y62050000D02*
X79064110Y61950000D01*
X84840759Y62650000D02*
X80691750Y62650000D01*
X86505760Y60984999D02*
X84840759Y62650000D01*
X40958483Y62625000D02*
X41294070Y62625000D01*
X80691750Y62650000D02*
X80091750Y62050000D01*
X77224160Y60275000D02*
X77224160Y58412500D01*
X40774842Y62441359D02*
X40958483Y62625000D01*
X41294070Y62625000D02*
X41561660Y62892590D01*
X80091750Y62050000D02*
X80091750Y62905203D01*
X41561660Y62892590D02*
X41561660Y63662500D01*
X79064110Y61950000D02*
X78899160Y61950000D01*
X80091750Y62905203D02*
X74146953Y68850000D01*
X74146953Y68850000D02*
X70174160Y68850000D01*
D68*
%TO.N,Net-(U15-S)*%
X89099160Y60335000D02*
X92474160Y63710000D01*
X88309160Y60335000D02*
X89099160Y60335000D01*
D63*
%TO.N,/INT18*%
X49374160Y47250000D02*
X47474160Y47250000D01*
X86924160Y42000000D02*
X83136660Y42000000D01*
X53574160Y46425000D02*
X53314846Y46425000D01*
X49974160Y44575000D02*
X49974160Y43949486D01*
X49974160Y44575000D02*
X50074160Y44675000D01*
X49828475Y46795685D02*
X49374160Y47250000D01*
X50074160Y44675000D02*
X50074160Y45702751D01*
X52739846Y45850000D02*
X52839846Y45950000D01*
X53314846Y46425000D02*
X52939846Y46050000D01*
X50414600Y46043191D02*
X49828475Y46629316D01*
X52939846Y46050000D02*
X52949160Y46059314D01*
X49974160Y43949486D02*
X49660953Y43636279D01*
X53574160Y47520000D02*
X53574160Y46425000D01*
X52949160Y46059314D02*
X52949160Y45850000D01*
X49509245Y43636279D02*
X47024160Y41151194D01*
X47024160Y41151194D02*
X47024160Y39725000D01*
X86924160Y41152332D02*
X86924160Y42000000D01*
X54536660Y48450000D02*
X54109774Y48450000D01*
X45599160Y38450000D02*
X45599160Y38300000D01*
X52949160Y45850000D02*
X52739846Y45850000D01*
X47024160Y39725000D02*
X45749160Y38450000D01*
X49660953Y43636279D02*
X49509245Y43636279D01*
X45749160Y38450000D02*
X45599160Y38450000D01*
X53844160Y48184386D02*
X53574160Y47914386D01*
X86542941Y40771113D02*
X86924160Y41152332D01*
X53574160Y47914386D02*
X53574160Y47520000D01*
X54109774Y48450000D02*
X53844160Y48184386D01*
X50074160Y45702751D02*
X50414600Y46043191D01*
X49828475Y46629316D02*
X49828475Y46795685D01*
%TO.N,/INT12*%
X32924160Y41205090D02*
X32561660Y41567590D01*
X59174160Y50450000D02*
X59224160Y50500000D01*
X56974160Y43500000D02*
X58342616Y43500000D01*
X67504018Y38825000D02*
X67629018Y38950000D01*
X68224160Y37857410D02*
X68224160Y37087500D01*
X67956570Y38125000D02*
X68224160Y37857410D01*
X58824160Y43981544D02*
X58824160Y44518456D01*
X58342616Y43500000D02*
X58824160Y43981544D01*
X32561660Y41567590D02*
X32561660Y42337500D01*
X58799160Y44543456D02*
X58799160Y44751984D01*
X67530000Y38125000D02*
X67956570Y38125000D01*
X58824160Y44518456D02*
X58799160Y44543456D01*
X67504018Y38150982D02*
X67530000Y38125000D01*
X32924160Y40450000D02*
X32924160Y41205090D01*
X58799160Y44751984D02*
X58540953Y45010191D01*
X67504018Y38825000D02*
X67504018Y38150982D01*
X58411660Y50450000D02*
X59174160Y50450000D01*
%TO.N,/INT20*%
X42674160Y50051471D02*
X42674160Y50475000D01*
X45499160Y48750000D02*
X45461660Y48712500D01*
X82141750Y43275000D02*
X81899160Y43325000D01*
X51999160Y42625000D02*
X52874160Y41750000D01*
X55224160Y46500000D02*
X54974160Y46250000D01*
X51599160Y42625000D02*
X49556267Y40582107D01*
X81899160Y43325000D02*
X81899160Y43275000D01*
X54974160Y46250000D02*
X54774160Y46250000D01*
X44013131Y48712500D02*
X42674160Y50051471D01*
X54574160Y46450000D02*
X54374160Y46450000D01*
X49556267Y40582107D02*
X49556267Y40569363D01*
X51599160Y42625000D02*
X51999160Y42625000D01*
X82366750Y43500000D02*
X82141750Y43275000D01*
X45461660Y48712500D02*
X44013131Y48712500D01*
X55224160Y47262500D02*
X55224160Y46500000D01*
X51599160Y43785000D02*
X51599160Y42625000D01*
X47474160Y48750000D02*
X45499160Y48750000D01*
X83136660Y43500000D02*
X82366750Y43500000D01*
X54774160Y46250000D02*
X54574160Y46450000D01*
X51584160Y43800000D02*
X51599160Y43785000D01*
%TO.N,/INT13*%
X69858248Y33403655D02*
X70651345Y33403655D01*
X45135346Y32875000D02*
X45160146Y32850201D01*
X54873197Y44350000D02*
X54521726Y44701471D01*
X70936661Y33688971D02*
X70799160Y33826471D01*
X59374160Y34007087D02*
X58631247Y34750000D01*
X58405434Y51706486D02*
X58293146Y51706486D01*
X55399160Y35775000D02*
X55424160Y35750000D01*
X49314160Y34566473D02*
X48807687Y34566473D01*
X47849160Y34715686D02*
X47849160Y35525000D01*
X53099160Y41000000D02*
X52775631Y41000000D01*
X37200633Y39475000D02*
X36561660Y40113973D01*
X51124160Y41248529D02*
X51124160Y40525000D01*
X52974160Y43728914D02*
X52974160Y42350000D01*
X70799160Y34323529D02*
X71150631Y34675000D01*
X71150631Y34675000D02*
X71647689Y34675000D01*
X72224160Y36317590D02*
X72224160Y37087500D01*
X69247252Y34014651D02*
X69858248Y33403655D01*
X51475631Y41600000D02*
X51124160Y41248529D01*
X53122689Y42350000D02*
X53474160Y41998529D01*
X46177780Y37196380D02*
X47849160Y35525000D01*
X53545246Y44300000D02*
X52974160Y43728914D01*
X52974160Y42350000D02*
X53122689Y42350000D01*
X45160146Y32850201D02*
X45884945Y33575000D01*
X53474160Y41375000D02*
X53099160Y41000000D01*
X70799160Y33826471D02*
X70799160Y34323529D01*
X55424160Y35750000D02*
X55399160Y35750000D01*
X56424160Y34750000D02*
X55424160Y35750000D01*
X58293146Y51706486D02*
X57724160Y51137500D01*
X69247252Y34075001D02*
X69247252Y34014651D01*
X55370255Y44350000D02*
X54873197Y44350000D01*
X50299160Y39700000D02*
X49274160Y39700000D01*
X55937033Y44916778D02*
X55370255Y44350000D01*
X58631247Y34750000D02*
X56424160Y34750000D01*
X52175631Y41600000D02*
X51475631Y41600000D01*
X45995536Y37196380D02*
X46177780Y37196380D01*
X56774160Y44916778D02*
X55937033Y44916778D01*
X71956570Y36050000D02*
X72224160Y36317590D01*
X53988375Y44300000D02*
X53545246Y44300000D01*
X51124160Y40525000D02*
X50299160Y39700000D01*
X71649160Y36050000D02*
X71956570Y36050000D01*
X55399160Y35750000D02*
X55399160Y35775000D01*
X36561660Y40113973D02*
X36561660Y42337500D01*
X49274160Y39700000D02*
X49349160Y39700000D01*
X71647689Y34675000D02*
X71649160Y34673529D01*
X48807687Y34566473D02*
X47849160Y35525000D01*
X42308425Y32650000D02*
X42533425Y32875000D01*
X58405434Y51706486D02*
X58648948Y51950000D01*
X54521726Y44701471D02*
X54521726Y44833351D01*
X42533425Y32875000D02*
X45135346Y32875000D01*
X52775631Y41000000D02*
X52175631Y41600000D01*
X45884945Y33575000D02*
X46708474Y33575000D01*
X53474160Y41998529D02*
X53474160Y41375000D01*
X70651345Y33403655D02*
X70936661Y33688971D01*
X54521726Y44833351D02*
X53988375Y44300000D01*
X46708474Y33575000D02*
X47849160Y34715686D01*
X71649160Y34673529D02*
X71649160Y36050000D01*
%TO.N,/USB11*%
X56604232Y46150000D02*
X57224160Y46769928D01*
X48999160Y52750000D02*
X47474160Y52750000D01*
X55649160Y20800000D02*
X55599160Y18100000D01*
X52374160Y49915686D02*
X51954160Y50335686D01*
X55621726Y45450000D02*
X55664846Y45450000D01*
X51954160Y50335686D02*
X51954160Y50784610D01*
X52574160Y47720000D02*
X52129160Y48165000D01*
X56364846Y46150000D02*
X56604232Y46150000D01*
X52129160Y48670686D02*
X51794846Y49005000D01*
X51948749Y24037582D02*
X52411578Y24037582D01*
X51719845Y51018924D02*
X51468770Y51270000D01*
X57224160Y46769928D02*
X57224160Y47312500D01*
X50479160Y51270000D02*
X48999160Y52750000D01*
X55599160Y18100000D02*
X55649160Y18250000D01*
X86924160Y47500000D02*
X86999160Y47425000D01*
X55121726Y44950000D02*
X55621726Y45450000D01*
X51794846Y49005000D02*
X52374160Y49584314D01*
X51954160Y50784610D02*
X51719845Y51018924D01*
X55664846Y45450000D02*
X56364846Y46150000D01*
X52374160Y49584314D02*
X52374160Y49915686D01*
X52129160Y48165000D02*
X52129160Y48670686D01*
X51468770Y51270000D02*
X50479160Y51270000D01*
X83136660Y47500000D02*
X86924160Y47500000D01*
X52574160Y47424999D02*
X52574160Y47720000D01*
X52411578Y24037582D02*
X55649160Y20800000D01*
%TO.N,/SPIFI3*%
X50609160Y65615000D02*
X50974160Y65250000D01*
X76224160Y58412500D02*
X76224160Y61500000D01*
X76224160Y61500000D02*
X75974160Y61750000D01*
X43657689Y65615000D02*
X50075260Y65615000D01*
X50075260Y65615000D02*
X50609160Y65615000D01*
X40561660Y63662500D02*
X40561660Y64837500D01*
X42822689Y66450000D02*
X43657689Y65615000D01*
X42174160Y66450000D02*
X42822689Y66450000D01*
X40561660Y64837500D02*
X42174160Y66450000D01*
%TO.N,/INT19*%
X54924160Y43775000D02*
X54874160Y43725000D01*
X54824160Y43775000D02*
X54799160Y43775000D01*
X55360941Y43775000D02*
X54924160Y43775000D01*
X45748542Y44627245D02*
X45699160Y44577863D01*
X56099160Y44025000D02*
X55610941Y44025000D01*
X45824160Y47750000D02*
X45499160Y48075000D01*
X54874160Y43725000D02*
X54824160Y43775000D01*
X56922507Y41457493D02*
X56922507Y41707275D01*
X70165659Y41250000D02*
X71787948Y41250000D01*
X53974160Y45928614D02*
X53974160Y47387500D01*
X54088467Y45814307D02*
X53974160Y45928614D01*
X46011660Y44364127D02*
X45748542Y44627245D01*
X82366750Y42500000D02*
X83136660Y42500000D01*
X57070061Y42605680D02*
X56718590Y42957151D01*
X56374160Y43750000D02*
X56099160Y44025000D01*
X76001978Y42150000D02*
X82016750Y42150000D01*
X55610941Y44025000D02*
X55360941Y43775000D01*
X49247889Y44223452D02*
X47399437Y42375000D01*
X53974160Y47387500D02*
X54536660Y47950000D01*
X56374160Y43251471D02*
X56374160Y43750000D01*
X46749160Y42375000D02*
X46011660Y43112500D01*
X56922507Y41707275D02*
X57070061Y41854829D01*
X56668480Y42957151D02*
X56374160Y43251471D01*
X46011660Y43112500D02*
X46011660Y44364127D01*
X47474160Y47750000D02*
X45824160Y47750000D01*
X54088467Y45814307D02*
X53976542Y45814307D01*
X72712948Y42175000D02*
X75976978Y42175000D01*
X69490659Y40575000D02*
X70165659Y41250000D01*
X57070061Y41854829D02*
X57070061Y42605680D01*
X71787948Y41250000D02*
X72712948Y42175000D01*
X56718590Y42957151D02*
X56668480Y42957151D01*
X75976978Y42175000D02*
X76001978Y42150000D01*
X82016750Y42150000D02*
X82366750Y42500000D01*
X47399437Y42375000D02*
X46749160Y42375000D01*
%TO.N,/USB10*%
X51974160Y47750000D02*
X51974160Y46250000D01*
X51384160Y48850000D02*
X51729160Y48505000D01*
X87624895Y38474265D02*
X88224160Y39073530D01*
X56724160Y46835614D02*
X56724160Y47312500D01*
X88224160Y39073530D02*
X88224160Y46775000D01*
X51974160Y46250000D02*
X51974160Y45700000D01*
X51974160Y44390329D02*
X51974160Y46250000D01*
X60086660Y30611519D02*
X60086660Y30551471D01*
X51384160Y49160000D02*
X51384160Y48850000D01*
X51554160Y50618924D02*
X51554160Y50170000D01*
X59909178Y30611519D02*
X60086660Y30611519D01*
X53822689Y44700000D02*
X54972689Y45850000D01*
X52356708Y44007781D02*
X51974160Y44390329D01*
X51729160Y48505000D02*
X51474160Y48250000D01*
X61370118Y29268013D02*
X61700631Y29598527D01*
X62197689Y29598527D02*
X62626688Y29169528D01*
X56199160Y46550000D02*
X56438546Y46550000D01*
X86800631Y46775000D02*
X86575631Y47000000D01*
X61700631Y29598527D02*
X62197689Y29598527D01*
X54972689Y45850000D02*
X55499160Y45850000D01*
X51974160Y45700000D02*
X52974160Y44700000D01*
X51974160Y49750000D02*
X51384160Y49160000D01*
X88224160Y46775000D02*
X86800631Y46775000D01*
X50254160Y50870000D02*
X51303084Y50870000D01*
X60086660Y30551471D02*
X61370118Y29268013D01*
X59909178Y30611519D02*
X59824160Y30526501D01*
X51474160Y48250000D02*
X51974160Y47750000D01*
X51554160Y50170000D02*
X51974160Y49750000D01*
X62626688Y29169528D02*
X67854632Y29169528D01*
X52974160Y44700000D02*
X53822689Y44700000D01*
X48874160Y52250000D02*
X50254160Y50870000D01*
X56438546Y46550000D02*
X56724160Y46835614D01*
X67854632Y29169528D02*
X68449160Y28575000D01*
X86575631Y47000000D02*
X83136660Y47000000D01*
X51303084Y50870000D02*
X51554160Y50618924D01*
X47474160Y52250000D02*
X48874160Y52250000D01*
X55499160Y45850000D02*
X56199160Y46550000D01*
%TO.N,/INT17*%
X53174160Y47685686D02*
X52963776Y47896070D01*
X76924160Y32800000D02*
X76899160Y32775000D01*
X42061660Y41212500D02*
X42149160Y41125000D01*
X77724160Y34509314D02*
X76924160Y33709314D01*
X42061660Y42337500D02*
X42061660Y41212500D01*
X53174160Y47176471D02*
X53174160Y47685686D01*
X52624160Y46600000D02*
X52774160Y46450000D01*
X52599160Y46601471D02*
X53174160Y47176471D01*
X53174160Y48913512D02*
X53174160Y48950000D01*
X53329160Y48261454D02*
X53329160Y48758512D01*
X52963776Y47896070D02*
X53329160Y48261454D01*
X53174160Y48950000D02*
X54536660Y48950000D01*
X53329160Y48758512D02*
X53174160Y48913512D01*
X76924160Y33709314D02*
X76924160Y32800000D01*
X52599160Y46600000D02*
X52599160Y46601471D01*
X77724160Y37087500D02*
X77724160Y34509314D01*
X52599160Y46600000D02*
X52624160Y46600000D01*
%TO.N,/INT16*%
X52549160Y50875000D02*
X52549160Y50950000D01*
X76324160Y33675000D02*
X77124160Y34475000D01*
X53549160Y49950000D02*
X52624160Y50875000D01*
X77124160Y35917590D02*
X76724160Y36317590D01*
X76724160Y36317590D02*
X76724160Y37087500D01*
X54536660Y49950000D02*
X53549160Y49950000D01*
X52624160Y50875000D02*
X52549160Y50875000D01*
X41061660Y41187500D02*
X41074160Y41175000D01*
X52549160Y50950000D02*
X52574160Y50925000D01*
X77124160Y34475000D02*
X77124160Y35917590D01*
X41061660Y42337500D02*
X41061660Y41187500D01*
%TO.N,/CS6*%
X67224160Y35320363D02*
X67224160Y37087500D01*
X30924160Y38514215D02*
X30924160Y39785785D01*
X12324161Y61946600D02*
X13620761Y60650000D01*
X30924160Y39785785D02*
X31561660Y40423285D01*
X68447253Y34097270D02*
X67224160Y35320363D01*
X14174160Y60650000D02*
X15374160Y61850000D01*
X31724160Y36250000D02*
X31724160Y37714215D01*
X31561660Y40423285D02*
X31561660Y42337500D01*
X13620761Y60650000D02*
X14174160Y60650000D01*
X68447253Y34072621D02*
X68447253Y34097270D01*
X31724160Y37714215D02*
X30924160Y38514215D01*
D67*
%TO.N,Net-(U18-BST)*%
X15611660Y26200000D02*
X17524160Y26200000D01*
X17524160Y26200000D02*
X17994160Y25730000D01*
D63*
%TO.N,Net-(U6-XIN)*%
X67424160Y5925000D02*
X68574160Y4775000D01*
X68574160Y4650000D02*
X68699160Y4650000D01*
X74374160Y9450000D02*
X74374160Y8050000D01*
X68699160Y4650000D02*
X68994160Y4355000D01*
X68574160Y4775000D02*
X68574160Y4650000D01*
X74749160Y9825000D02*
X74374160Y9450000D01*
X75186660Y9825000D02*
X74749160Y9825000D01*
X68994160Y4355000D02*
X68994160Y3750000D01*
%TO.N,Net-(U6-XOUT)*%
X74589160Y10325000D02*
X72514160Y8250000D01*
X75186660Y10325000D02*
X74589160Y10325000D01*
%TO.N,/INT4*%
X61949160Y33875000D02*
X61949160Y34575000D01*
X63405944Y28569528D02*
X64603161Y28569528D01*
X76899160Y13240686D02*
X77941317Y14282843D01*
X64603161Y28569528D02*
X65947689Y27225000D01*
X77941317Y14282843D02*
X77974160Y14315686D01*
X24274160Y57750000D02*
X24098616Y57574456D01*
X24098616Y57574456D02*
X24098616Y57364518D01*
X77974160Y14315686D02*
X77974160Y14750000D01*
X60349160Y53050000D02*
X60099160Y53800000D01*
X24098616Y57364518D02*
X23888678Y57364518D01*
X61811660Y52500000D02*
X60899160Y52500000D01*
X62708886Y28769528D02*
X63205944Y28769528D01*
X69149160Y27225000D02*
X70298425Y26075735D01*
X60124160Y53800000D02*
X60124160Y53825000D01*
X61349160Y35076471D02*
X61349160Y36700000D01*
X60099160Y53800000D02*
X60099160Y53800000D01*
X61949160Y34575000D02*
X61799160Y34725000D01*
X62443523Y28504164D02*
X62708886Y28769528D01*
X63205944Y28769528D02*
X63405944Y28569528D01*
X61700631Y34725000D02*
X61349160Y35076471D01*
X23888678Y57364518D02*
X23974160Y57450000D01*
X65947689Y27225000D02*
X69149160Y27225000D01*
X60099160Y53800000D02*
X60124160Y53800000D01*
X76899160Y12537500D02*
X76899160Y13240686D01*
X26149160Y57750000D02*
X24274160Y57750000D01*
X61349160Y36700000D02*
X60424160Y37625000D01*
X61949160Y28998527D02*
X62443523Y28504164D01*
X60899160Y52500000D02*
X60349160Y53050000D01*
X61799160Y34725000D02*
X61700631Y34725000D01*
%TO.N,/INT5*%
X78974160Y14039386D02*
X78974160Y14250000D01*
X62606570Y51975000D02*
X63024160Y51975000D01*
X78974160Y14250000D02*
X79174160Y14450000D01*
X77899160Y12537500D02*
X77899160Y12964386D01*
X79174160Y14450000D02*
X79174160Y15650000D01*
X62581570Y52000000D02*
X62606570Y51975000D01*
X25174160Y57250000D02*
X24174160Y56250000D01*
X79174160Y16850000D02*
X78574160Y17450000D01*
X26149160Y57250000D02*
X25174160Y57250000D01*
X77899160Y12964386D02*
X78974160Y14039386D01*
X79174160Y15650000D02*
X79174160Y16850000D01*
X61811660Y52000000D02*
X62581570Y52000000D01*
%TO.N,/INT3*%
X24074160Y58750000D02*
X23374160Y58050000D01*
X23474160Y57950000D02*
X23474160Y55750000D01*
X23374160Y58050000D02*
X23474160Y57950000D01*
X78574160Y14350000D02*
X78574160Y15150000D01*
X77399160Y13175000D02*
X78474160Y14250000D01*
X78474160Y14250000D02*
X78574160Y14350000D01*
X77399160Y12537500D02*
X77399160Y13175000D01*
X62824158Y53500000D02*
X63224158Y53900000D01*
X61811660Y53500000D02*
X62824158Y53500000D01*
X26149160Y58750000D02*
X24074160Y58750000D01*
X78574160Y15150000D02*
X78574160Y15450000D01*
X78574160Y15450000D02*
X78474160Y15250000D01*
%TO.N,Net-(U1-P2_5)*%
X54864160Y33140000D02*
X54899160Y33175000D01*
X54899160Y33175000D02*
X54899160Y33237703D01*
X51104160Y33140000D02*
X54864160Y33140000D01*
X58838546Y48950000D02*
X58863546Y48925000D01*
X58411660Y48950000D02*
X58838546Y48950000D01*
X45924160Y53225000D02*
X45949160Y53225000D01*
X58219160Y42146470D02*
X58219160Y40701526D01*
X57654160Y39775000D02*
X57654160Y35250000D01*
X58863546Y48925000D02*
X59174160Y48900000D01*
X45874160Y53200000D02*
X45924160Y53225000D01*
X88124160Y48025000D02*
X83161660Y48025000D01*
X55774160Y38625000D02*
X57654160Y38625000D01*
X58219160Y40701526D02*
X57942030Y40424396D01*
X59174160Y48900000D02*
X59149160Y48925000D01*
X83161660Y48025000D02*
X83136660Y48000000D01*
X88824160Y47325000D02*
X88124160Y48025000D01*
X50494160Y33750000D02*
X51104160Y33140000D01*
X57654160Y40424396D02*
X57654160Y39775000D01*
X55268544Y33544384D02*
X54899160Y33175000D01*
X57654160Y38625000D02*
X57654160Y39775000D01*
X46274160Y53225000D02*
X45974160Y53225000D01*
X56599160Y36834103D02*
X57654160Y37889103D01*
X58451345Y42378655D02*
X58219160Y42146470D01*
X46704250Y53250000D02*
X46679250Y53225000D01*
X47474160Y53250000D02*
X49199160Y53250000D01*
X47474160Y53250000D02*
X46704250Y53250000D01*
X45974160Y53225000D02*
X45874160Y53200000D01*
X57942030Y40424396D02*
X57654160Y40424396D01*
X55268544Y33607087D02*
X55268544Y33544384D01*
X50494160Y33750000D02*
X50494160Y38750000D01*
X57654160Y37889103D02*
X57654160Y38750000D01*
X46679250Y53225000D02*
X46274160Y53225000D01*
X54649160Y39750000D02*
X55774160Y38625000D01*
X54899160Y33237703D02*
X55268544Y33607087D01*
%TO.N,Net-(J12-VCC)*%
X6249160Y58650000D02*
X6149160Y58550000D01*
X5464160Y63750000D02*
X6249160Y62965000D01*
X6249160Y62965000D02*
X6249160Y58650000D01*
%TO.N,Net-(J12-D-)*%
X62581570Y47000000D02*
X61811660Y47000000D01*
X8574160Y58498529D02*
X8222689Y58850000D01*
X16399160Y63223529D02*
X16904160Y62718529D01*
X65224160Y46550000D02*
X63031570Y46550000D01*
X7374160Y58000000D02*
X7274160Y57900000D01*
X8374160Y57801471D02*
X8574160Y58001471D01*
X16399160Y68625000D02*
X16399160Y63223529D01*
X8574160Y58001471D02*
X8574160Y58498529D01*
X8725631Y55150000D02*
X8374160Y55501471D01*
X9874160Y55150000D02*
X8725631Y55150000D01*
X40473425Y68900735D02*
X38124160Y71250000D01*
X8222689Y58850000D02*
X7725631Y58850000D01*
X16904160Y62180000D02*
X9874160Y55150000D01*
X65299160Y46475000D02*
X65224160Y46550000D01*
X7374160Y58498529D02*
X7374160Y58000000D01*
X16904160Y62718529D02*
X16904160Y62180000D01*
X8374160Y55501471D02*
X8374160Y57801471D01*
X38124160Y71250000D02*
X16653500Y71250000D01*
X7274160Y57900000D02*
X6149160Y57900000D01*
X16653500Y71250000D02*
X15213830Y69810330D01*
X63031570Y46550000D02*
X62581570Y47000000D01*
X7725631Y58850000D02*
X7374160Y58498529D01*
X15213830Y69810330D02*
X16399160Y68625000D01*
%TO.N,Net-(J12-D+)*%
X7391316Y57250000D02*
X7974160Y57832844D01*
X64791071Y47183090D02*
X63924896Y48049265D01*
X63924896Y48049265D02*
X63875631Y48000000D01*
X6149160Y57250000D02*
X7391316Y57250000D01*
X64926856Y47183090D02*
X64791071Y47183090D01*
X63875631Y48000000D02*
X61811660Y48000000D01*
X7974160Y57832844D02*
X7974160Y58250000D01*
%TO.N,Net-(U1-USB0_VBUS)*%
X23954160Y51750000D02*
X22474160Y50270000D01*
X20824160Y50200000D02*
X22404160Y50200000D01*
X8994160Y51750000D02*
X9984160Y50760000D01*
X20824160Y50200000D02*
X21464160Y49560000D01*
X8974160Y51750000D02*
X8994160Y51750000D01*
X60763282Y46500000D02*
X61811660Y46500000D01*
X56470061Y42255901D02*
X56174160Y41960000D01*
X17725630Y50350000D02*
X10394160Y50350000D01*
X56470061Y42357151D02*
X56470061Y42255901D01*
X19299895Y51924265D02*
X17725630Y50350000D01*
X60675894Y46412612D02*
X60623282Y46360000D01*
X8964160Y51780000D02*
X8974160Y51770000D01*
X8974160Y51770000D02*
X8974160Y51750000D01*
X8964160Y52750000D02*
X8964160Y51780000D01*
X60675894Y46412612D02*
X60763282Y46500000D01*
X8974160Y61260000D02*
X8974160Y55750000D01*
X10394160Y50350000D02*
X9984160Y50760000D01*
X26149160Y51750000D02*
X23954160Y51750000D01*
X21439160Y47950000D02*
X21439160Y49535000D01*
X21439160Y49535000D02*
X21464160Y49560000D01*
X22404160Y50200000D02*
X22474160Y50270000D01*
X6484160Y63750000D02*
X8974160Y61260000D01*
%TO.N,Net-(J2-VCC)*%
X6149160Y46550000D02*
X8964160Y49365000D01*
X8964160Y49365000D02*
X8964160Y50760000D01*
%TO.N,/USB0-D-*%
X23084854Y52250000D02*
X23466135Y52250000D01*
X23084854Y52639306D02*
X23084854Y52250000D01*
X22874160Y52850000D02*
X23084854Y52639306D01*
X10124160Y45900000D02*
X10851367Y45900000D01*
X8974160Y46750000D02*
X9974160Y45750000D01*
X10851367Y45900000D02*
X13201367Y48250000D01*
X7624160Y45900000D02*
X8474160Y46750000D01*
X9974160Y45750000D02*
X10124160Y45900000D01*
X8474160Y46750000D02*
X8974160Y46750000D01*
X21974160Y52850000D02*
X22874160Y52850000D01*
X6149160Y45900000D02*
X7624160Y45900000D01*
X21974160Y52750000D02*
X21974160Y52850000D01*
X13201367Y48250000D02*
X17474160Y48250000D01*
X23466135Y52250000D02*
X26149160Y52250000D01*
X17474160Y48250000D02*
X21974160Y52750000D01*
%TO.N,/USB0-D+*%
X7974160Y45250000D02*
X6149160Y45250000D01*
X21474160Y53250000D02*
X26149160Y53250000D01*
X18461660Y50237500D02*
X21474160Y53250000D01*
%TO.N,Net-(J18-Pin_9)*%
X86174160Y51925000D02*
X86199160Y51700000D01*
X45588905Y57865345D02*
X46704250Y56750000D01*
X46704250Y56750000D02*
X47474160Y56750000D01*
X45588905Y58535786D02*
X45484946Y58535786D01*
X45484946Y58535786D02*
X45449160Y58500000D01*
X85999160Y51500000D02*
X86174160Y51925000D01*
X45588905Y58535786D02*
X45588905Y57865345D01*
X83136660Y51500000D02*
X85999160Y51500000D01*
%TO.N,/CS4*%
X66724160Y34698529D02*
X66724160Y37087500D01*
X61370118Y29833699D02*
X61534946Y29998527D01*
X79634160Y13772500D02*
X78399160Y12537500D01*
X31074160Y40998529D02*
X31061660Y41011029D01*
X50749160Y31525000D02*
X53247689Y31525000D01*
X79634160Y21340000D02*
X79634160Y13772500D01*
X46974160Y27750000D02*
X50749160Y31525000D01*
X67768688Y29569528D02*
X68449160Y30250000D01*
X68375631Y31612745D02*
X68449160Y31539216D01*
X32849160Y35650000D02*
X31475631Y35650000D01*
X53247689Y31525000D02*
X54097689Y30675000D01*
X31074160Y40501471D02*
X31074160Y40998529D01*
X31475631Y35650000D02*
X30974160Y36151471D01*
X67247519Y34448475D02*
X66974214Y34448475D01*
X66974214Y34448475D02*
X66724160Y34698529D01*
X30474160Y39901471D02*
X31074160Y40501471D01*
X30474160Y38398529D02*
X30474160Y39901471D01*
X33074160Y35425000D02*
X32849160Y35650000D01*
X68449160Y30250000D02*
X70724160Y30250000D01*
X70724160Y30250000D02*
X79634160Y21340000D01*
X33074160Y34001471D02*
X33074160Y35425000D01*
X62363375Y29998527D02*
X62792374Y29569528D01*
X61286660Y30551471D02*
X60969503Y30234314D01*
X59309178Y30860048D02*
X59849130Y31400000D01*
X62792374Y29569528D02*
X67768688Y29569528D01*
X60935189Y31400000D02*
X61286660Y31048529D01*
X61286660Y31048529D02*
X61286660Y30551471D01*
X54097689Y30675000D02*
X59309178Y30675000D01*
X33126567Y33949064D02*
X33074160Y34001471D01*
X61534946Y29998527D02*
X62363375Y29998527D01*
X31061660Y41011029D02*
X31061660Y42337500D01*
X60969503Y30234314D02*
X61370118Y29833699D01*
X59849130Y31400000D02*
X60935189Y31400000D01*
X68449160Y31539216D02*
X68449160Y30250000D01*
X30974160Y36151471D02*
X30974160Y37898529D01*
X59309178Y30675000D02*
X59309178Y30860048D01*
X33126567Y33840203D02*
X33126567Y33949064D01*
X30974160Y37898529D02*
X30474160Y38398529D01*
%TO.N,Net-(J18-Pin_12)*%
X46475631Y51750000D02*
X47474160Y51750000D01*
X86509945Y46500000D02*
X86884945Y46125000D01*
X44924160Y51275000D02*
X46000631Y51275000D01*
X46000631Y51275000D02*
X46475631Y51750000D01*
X83136660Y46500000D02*
X86509945Y46500000D01*
X86884945Y46125000D02*
X87024160Y46125000D01*
%TO.N,Net-(J18-Pin_10)*%
X86424160Y50500000D02*
X86574160Y50350000D01*
X83136660Y50500000D02*
X86424160Y50500000D01*
X86624160Y50350000D02*
X86624160Y50300000D01*
X45199160Y56325000D02*
X45174160Y56300000D01*
X47474160Y55750000D02*
X45947689Y55750000D01*
X86574160Y50350000D02*
X86624160Y50350000D01*
X86624160Y50300000D02*
X86549160Y50375000D01*
X45947689Y55750000D02*
X45247686Y56450003D01*
X45199160Y56450003D02*
X45199160Y56250000D01*
X45199160Y56450003D02*
X45199160Y56325000D01*
X45247686Y56450003D02*
X45199160Y56450003D01*
%TO.N,Net-(J18-Pin_8)*%
X45874160Y59450000D02*
X45874160Y59400000D01*
X46054250Y59400000D02*
X45874160Y59450000D01*
X47474160Y58750000D02*
X46704250Y58750000D01*
X86374160Y54401471D02*
X85472689Y53500000D01*
X46704250Y58750000D02*
X46054250Y59400000D01*
X84974160Y59215686D02*
X86374160Y57815686D01*
X86374160Y57815686D02*
X86374160Y54401471D01*
X84974160Y61450000D02*
X84974160Y59215686D01*
X85472689Y53500000D02*
X83136660Y53500000D01*
%TO.N,Net-(J18-Pin_14)*%
X85949160Y44500000D02*
X86099160Y44650000D01*
X83136660Y44500000D02*
X85949160Y44500000D01*
X47474160Y49750000D02*
X45274160Y49750000D01*
X44924160Y50075000D02*
X44924160Y50100000D01*
X44924160Y50100000D02*
X44899160Y50125000D01*
X45274160Y49750000D02*
X44949160Y50075000D01*
X44949160Y50075000D02*
X44924160Y50075000D01*
X86099160Y44650000D02*
X86049160Y44600000D01*
%TO.N,Net-(J18-Pin_11)*%
X88199160Y50050000D02*
X88024160Y49950000D01*
X45699160Y55250000D02*
X47474160Y55250000D01*
X83136660Y50000000D02*
X86125631Y50000000D01*
X87824160Y49750000D02*
X88199160Y50050000D01*
X86125631Y50000000D02*
X86375631Y49750000D01*
X86375631Y49750000D02*
X87824160Y49750000D01*
X45299160Y55650000D02*
X45699160Y55250000D01*
X45199160Y55650000D02*
X45299160Y55650000D01*
%TO.N,Net-(J18-Pin_13)*%
X46129250Y50675000D02*
X46704250Y51250000D01*
X43874160Y50976471D02*
X44175631Y50675000D01*
X86249160Y45900000D02*
X86249160Y45850000D01*
X46704250Y51250000D02*
X47474160Y51250000D01*
X86249160Y45850000D02*
X86299160Y45850000D01*
X86149160Y46000000D02*
X86249160Y45900000D01*
X44175631Y50675000D02*
X46129250Y50675000D01*
X43874160Y51275000D02*
X43874160Y50976471D01*
X83136660Y46000000D02*
X86149160Y46000000D01*
X86299160Y45850000D02*
X86224160Y45925000D01*
%TO.N,/INT21*%
X44261660Y49312500D02*
X44324160Y49250000D01*
X87749160Y39164216D02*
X87659209Y39074265D01*
X75186660Y9325000D02*
X75186660Y8762500D01*
X37906638Y37345130D02*
X37776768Y37475000D01*
X37776768Y37475000D02*
X34924160Y37475000D01*
X75174160Y8750000D02*
X75149160Y8750000D01*
X32149160Y40250000D02*
X32149160Y40325000D01*
X83136660Y44000000D02*
X86340884Y44000000D01*
X86340884Y44000000D02*
X87749160Y42591724D01*
X86899160Y36925000D02*
X77499160Y27525000D01*
X34924160Y37475000D02*
X32149160Y40250000D01*
X44324160Y49250000D02*
X47474160Y49250000D01*
X87376366Y39074265D02*
X86899160Y38597059D01*
X76299160Y27525000D02*
X76249160Y27475000D01*
X41074157Y37850000D02*
X40569287Y37345130D01*
X87749160Y42591724D02*
X87749160Y39164216D01*
X86899160Y38597059D02*
X86899160Y36925000D01*
X75149160Y8725000D02*
X75124160Y8700000D01*
X40569287Y37345130D02*
X37906638Y37345130D01*
X75186660Y8762500D02*
X75174160Y8750000D01*
X75149160Y8750000D02*
X75149160Y8725000D01*
X77499160Y27525000D02*
X76299160Y27525000D01*
X87659209Y39074265D02*
X87376366Y39074265D01*
%TO.N,Net-(U6-VREFVCO)*%
X76899160Y5505000D02*
X77154160Y5250000D01*
X76899160Y8612500D02*
X76899160Y5505000D01*
D64*
%TO.N,/RF-PA-OUT-1*%
X92151345Y12128655D02*
X91974160Y12305840D01*
X91066360Y11910400D02*
X91255905Y11910400D01*
X92151345Y11910400D02*
X92151345Y12128655D01*
X91255905Y11910400D02*
X91974160Y12628655D01*
X91974160Y12305840D02*
X91974160Y12628655D01*
X91066360Y11910400D02*
X92151345Y11910400D01*
X91066360Y12362200D02*
X91974160Y13270000D01*
X91974160Y12628655D02*
X91974160Y13270000D01*
X94323660Y11599500D02*
X94023160Y11900000D01*
X91266305Y11900000D02*
X91255905Y11910400D01*
X91066360Y11910400D02*
X91066360Y12362200D01*
X94323660Y5750000D02*
X94323660Y11599500D01*
X94023160Y11900000D02*
X91266305Y11900000D01*
D68*
%TO.N,/RF-PA-OUT-2*%
X91974160Y14230000D02*
X91974160Y19750000D01*
D64*
%TO.N,/RF-PA-IN*%
X85994160Y11250000D02*
X85874160Y11250000D01*
X85874160Y11250000D02*
X85284160Y10660000D01*
D63*
X84884160Y10660000D02*
X85474160Y11250000D01*
D64*
X85284160Y10660000D02*
X84049160Y10660000D01*
D63*
X85474160Y11250000D02*
X85994160Y11250000D01*
X83974160Y10660000D02*
X84884160Y10660000D01*
D65*
%TO.N,/TRANSCEIVER-TX-0*%
X82974160Y6750000D02*
X81954160Y6750000D01*
D63*
X83474160Y10899386D02*
X84324774Y11750000D01*
X83474160Y10660000D02*
X83474160Y10899386D01*
X84324774Y11750000D02*
X84474160Y11750000D01*
%TO.N,/TRANSCEIVER-TX*%
X78474160Y6750000D02*
X79449160Y6750000D01*
X79449160Y6750000D02*
X80994160Y6750000D01*
X77974160Y7750000D02*
X77899160Y7825000D01*
X79449160Y6625000D02*
X79324160Y6500000D01*
X75952519Y2587500D02*
X71974160Y2587500D01*
X77226345Y2250000D02*
X77026345Y2450000D01*
X79449160Y6750000D02*
X79449160Y6625000D01*
D65*
X80994160Y6750000D02*
X80894160Y6850000D01*
D63*
X77026345Y2450000D02*
X76090019Y2450000D01*
X77974160Y7250000D02*
X78474160Y6750000D01*
X77974160Y7250000D02*
X77974160Y7750000D01*
X77899160Y7825000D02*
X77899160Y8612500D01*
X76090019Y2450000D02*
X75952519Y2587500D01*
%TO.N,/TXRX+*%
X82974160Y9840000D02*
X82974160Y9250000D01*
D65*
X82474160Y8750000D02*
X82949160Y9225000D01*
X82949160Y9225000D02*
X82949160Y9578655D01*
D63*
X79111660Y9825000D02*
X81049160Y9825000D01*
X81049160Y9825000D02*
X81474160Y10250000D01*
X82974160Y9250000D02*
X82474160Y8750000D01*
%TO.N,/TXRX-*%
X81639160Y9325000D02*
X82974160Y10660000D01*
X79111660Y9325000D02*
X81639160Y9325000D01*
%TO.N,Net-(J13-Pin_4)*%
X63624162Y41750000D02*
X63331570Y41750000D01*
X63331570Y41750000D02*
X62581570Y42500000D01*
X62581570Y42500000D02*
X61811660Y42500000D01*
%TO.N,Net-(J13-Pin_2)*%
X59424160Y38039215D02*
X59424160Y36950000D01*
X61357983Y33239951D02*
X62415091Y32182843D01*
X59349160Y41398529D02*
X59974160Y40773529D01*
X62415091Y32182843D02*
X62657003Y32182843D01*
X59974160Y38589215D02*
X59424160Y38039215D01*
X60399160Y34750000D02*
X60424160Y34775000D01*
X59974160Y40773529D02*
X59974160Y38589215D01*
X59349160Y41489313D02*
X59349160Y41398529D01*
X60549548Y33974612D02*
X60549548Y33601471D01*
X62657003Y32182843D02*
X64481247Y34007087D01*
X60424160Y34775000D02*
X60449160Y34775000D01*
X60911068Y33239951D02*
X61357983Y33239951D01*
X60549548Y33601471D02*
X60911068Y33239951D01*
X59634160Y41774314D02*
X59349160Y41489313D01*
X60449160Y34775000D02*
X60449160Y34075000D01*
X59634160Y41884703D02*
X59634160Y41774314D01*
X61811660Y43000000D02*
X60749456Y43000000D01*
X60449160Y34075000D02*
X60549548Y33974612D01*
X64481247Y34007087D02*
X65024160Y34007087D01*
X59424160Y36950000D02*
X60399160Y35975000D01*
X60399160Y35975000D02*
X60399160Y34750000D01*
X60749456Y43000000D02*
X59634160Y41884703D01*
%TO.N,Net-(J13-Pin_7)*%
X64603471Y43992871D02*
X64096342Y44500000D01*
X64603471Y43503655D02*
X64603471Y43992871D01*
X63289846Y44500000D02*
X62789846Y44000000D01*
X64603471Y43503655D02*
X64603471Y43395689D01*
X62789846Y44000000D02*
X61811660Y44000000D01*
X64096342Y44500000D02*
X63289846Y44500000D01*
%TO.N,Net-(J13-Pin_10)*%
X27549160Y47700000D02*
X27369070Y47700000D01*
X27369070Y47700000D02*
X26919070Y47250000D01*
X26919070Y47250000D02*
X26149160Y47250000D01*
X27549160Y47700000D02*
X27474160Y47775000D01*
%TO.N,Net-(J13-Pin_12)*%
X22943770Y46930000D02*
X19744160Y46930000D01*
X18624160Y48050000D02*
X18649160Y48025000D01*
X24763770Y48750000D02*
X22943770Y46930000D01*
X26149160Y48750000D02*
X24763770Y48750000D01*
X19744160Y46930000D02*
X18699160Y47975000D01*
X18699160Y47975000D02*
X18624160Y47975000D01*
X18624160Y47975000D02*
X18624160Y48050000D01*
%TO.N,Net-(J13-Pin_9)*%
X27549160Y46119910D02*
X26919070Y46750000D01*
X26919070Y46750000D02*
X26149160Y46750000D01*
X27549160Y45053655D02*
X27549160Y46119910D01*
%TO.N,Net-(J13-Pin_8)*%
X22778084Y47330000D02*
X21119160Y47330000D01*
X23029160Y47830000D02*
X23029160Y47581076D01*
X21119160Y47330000D02*
X20074160Y48375000D01*
X23029160Y47581076D02*
X22778084Y47330000D01*
X20149160Y48850000D02*
X20074160Y48825000D01*
X24449160Y49250000D02*
X23029160Y47830000D01*
X20074160Y48375000D02*
X20149160Y48850000D01*
X26149160Y49250000D02*
X24449160Y49250000D01*
%TO.N,Net-(J13-Pin_6)*%
X63762111Y39450000D02*
X64521342Y39450000D01*
X62647256Y41500000D02*
X61811660Y41500000D01*
X64929395Y39858053D02*
X64929395Y40785451D01*
X64521342Y39450000D02*
X64929395Y39858053D01*
X64929395Y40785451D02*
X64664846Y41050000D01*
X63097256Y41050000D02*
X62647256Y41500000D01*
X63162111Y40050000D02*
X63762111Y39450000D01*
X64664846Y41050000D02*
X63097256Y41050000D01*
%TO.N,Net-(J13-Pin_3)*%
X20049160Y59825000D02*
X20049160Y70850000D01*
X42704553Y70394607D02*
X43334946Y71025000D01*
X15474160Y55250000D02*
X20049160Y59825000D01*
X62936212Y43418127D02*
X62854339Y43500000D01*
X39524160Y68200000D02*
X40824160Y68200000D01*
X40824160Y68200000D02*
X41263018Y68638858D01*
X43334946Y71025000D02*
X76199160Y71025000D01*
X20049160Y70850000D02*
X36874160Y70850000D01*
X36874160Y70850000D02*
X39524160Y68200000D01*
X62854339Y43500000D02*
X61811660Y43500000D01*
X76199160Y71025000D02*
X83949160Y63275000D01*
X41263018Y68638858D02*
X41263018Y68953073D01*
X41263018Y68953073D02*
X42704553Y70394607D01*
%TO.N,Net-(J13-Pin_1)*%
X11376367Y54625000D02*
X13101367Y56350000D01*
X4894160Y60625000D02*
X4894160Y55096117D01*
X11346345Y65140000D02*
X11346345Y67280001D01*
X10576345Y64370000D02*
X11346345Y65140000D01*
X87364560Y51000000D02*
X87364560Y61513599D01*
X5145236Y64370000D02*
X4894160Y64118924D01*
X4894160Y64118924D02*
X4894160Y60625000D01*
X5365277Y54625000D02*
X11376367Y54625000D01*
X77228159Y71650000D02*
X16487814Y71650000D01*
X14574160Y56350000D02*
X15474160Y57250000D01*
X11346345Y67280001D02*
X15716344Y71650000D01*
X10576345Y64370000D02*
X5145236Y64370000D01*
X4894160Y55096117D02*
X5365277Y54625000D01*
X13101367Y56350000D02*
X14574160Y56350000D01*
X87364560Y61513599D02*
X77228159Y71650000D01*
X83136660Y51000000D02*
X87364560Y51000000D01*
X15716344Y71650000D02*
X16576345Y71650000D01*
%TO.N,Net-(J13-Pin_13)*%
X15474160Y45250000D02*
X16074160Y44650000D01*
X16074160Y44650000D02*
X22374160Y44650000D01*
X24829456Y48250000D02*
X26149160Y48250000D01*
X23109456Y46530000D02*
X24829456Y48250000D01*
X23074160Y46530000D02*
X23109456Y46530000D01*
X23074160Y45350000D02*
X23074160Y46530000D01*
X22374160Y44650000D02*
X23074160Y45350000D01*
%TO.N,Net-(J13-Pin_5)*%
X60322979Y41724995D02*
X60597984Y42000000D01*
X60597984Y42000000D02*
X61811660Y42000000D01*
%TO.N,Net-(J13-Pin_11)*%
X22474160Y45425000D02*
X22374160Y45525000D01*
X22099160Y45050000D02*
X22474160Y45425000D01*
X22349160Y45550000D02*
X22349160Y45650000D01*
X25037137Y47407887D02*
X25379250Y47750000D01*
X22349160Y45525000D02*
X22349160Y45550000D01*
X22374160Y45525000D02*
X22349160Y45525000D01*
X24835873Y47407887D02*
X25037137Y47407887D01*
X25379250Y47750000D02*
X26149160Y47750000D01*
X22349160Y45550000D02*
X22349160Y45550000D01*
X15474160Y47250000D02*
X17674160Y45050000D01*
X20649160Y45050000D02*
X22099160Y45050000D01*
X17674160Y45050000D02*
X20649160Y45050000D01*
%TO.N,Net-(J13-Pin_14)*%
X49275631Y55350000D02*
X50274160Y55350000D01*
X51379206Y52594954D02*
X52274160Y51700000D01*
X48375631Y56250000D02*
X49275631Y55350000D01*
X47474160Y56250000D02*
X48375631Y56250000D01*
X51379206Y53455046D02*
X51379206Y52594954D01*
X50274160Y55350000D02*
X51774160Y53850000D01*
X51774160Y53850000D02*
X51379206Y53455046D01*
%TO.N,Net-(U1-P1_8)*%
X35611660Y42287500D02*
X35611660Y42225000D01*
X35561660Y42337500D02*
X35611660Y42287500D01*
X70942787Y35032842D02*
X70942787Y36098963D01*
X70942787Y36098963D02*
X70724160Y36317590D01*
X34549160Y41100000D02*
X34574160Y41050000D01*
X70149160Y34003655D02*
X70399160Y34253655D01*
X70399160Y34253655D02*
X70399160Y34489215D01*
X35561660Y42337500D02*
X35561660Y41567590D01*
X35561660Y41567590D02*
X35044070Y41050000D01*
X70399160Y34489215D02*
X70942787Y35032842D01*
X34574160Y41100000D02*
X34549160Y41100000D01*
X35044070Y41050000D02*
X34574160Y41100000D01*
X70724160Y36317590D02*
X70724160Y37087500D01*
%TO.N,Net-(U1-P2_10)*%
X48991316Y60100000D02*
X50774160Y60100000D01*
X85624160Y54500000D02*
X85774160Y54650000D01*
X54066317Y62157843D02*
X54166317Y62257843D01*
X54066317Y62157843D02*
X54174160Y62265686D01*
X50774160Y60100000D02*
X52832003Y62157843D01*
X54174160Y62265686D02*
X54174160Y62450000D01*
X47474160Y60250000D02*
X48841316Y60250000D01*
X52832003Y62157843D02*
X54066317Y62157843D01*
X83136660Y54500000D02*
X85624160Y54500000D01*
X48841316Y60250000D02*
X48991316Y60100000D01*
X54174160Y62450000D02*
X54358474Y62450000D01*
%TO.N,Net-(U1-P1_7)*%
X35061660Y43336310D02*
X35061660Y42337500D01*
X74546325Y39595692D02*
X72819852Y39595692D01*
X35868108Y44142758D02*
X35061660Y43336310D01*
X72819852Y39595692D02*
X71749160Y38525000D01*
X70224160Y37857410D02*
X70224160Y37087500D01*
X75525633Y40575000D02*
X74546325Y39595692D01*
X70891750Y38525000D02*
X70224160Y37857410D01*
X71749160Y38525000D02*
X70891750Y38525000D01*
%TO.N,Net-(U1-P1_9)*%
X71491750Y38125000D02*
X71224160Y37857410D01*
X71974160Y38125000D02*
X71491750Y38125000D01*
X36061660Y43107410D02*
X36061660Y42337500D01*
X36656952Y43574834D02*
X36529084Y43574834D01*
X72621668Y38772508D02*
X71974160Y38125000D01*
X71224160Y37857410D02*
X71224160Y37087500D01*
X73412924Y38772508D02*
X72621668Y38772508D01*
X36529084Y43574834D02*
X36061660Y43107410D01*
%TO.N,Net-(U1-P1_4)*%
X70560378Y39325000D02*
X69760378Y38525000D01*
X32749160Y43700000D02*
X32969070Y43700000D01*
X71134946Y39325000D02*
X70560378Y39325000D01*
X33561660Y43107410D02*
X33561660Y42337500D01*
X68724160Y38225000D02*
X68724160Y37087500D01*
X69024160Y38525000D02*
X68724160Y38225000D01*
X69760378Y38525000D02*
X69024160Y38525000D01*
X32969070Y43700000D02*
X33561660Y43107410D01*
X71349160Y39539214D02*
X71134946Y39325000D01*
%TO.N,Net-(U1-P1_6)*%
X69724160Y36317590D02*
X69724160Y37087500D01*
X34210602Y44150000D02*
X34210602Y43965029D01*
X34210602Y43965029D02*
X34561660Y43613971D01*
X70143220Y36050000D02*
X69991750Y36050000D01*
X70342787Y35850433D02*
X70143220Y36050000D01*
X34561660Y43613971D02*
X34561660Y42337500D01*
X69991750Y36050000D02*
X69724160Y36317590D01*
%TO.N,Net-(U1-P1_5)*%
X69926064Y38125000D02*
X69491750Y38125000D01*
X69491750Y38125000D02*
X69224160Y37857410D01*
X33410599Y44150000D02*
X33410599Y43824157D01*
X69224160Y37857410D02*
X69224160Y37087500D01*
X70726064Y38925000D02*
X70491750Y38690685D01*
X33410599Y43824157D02*
X34061660Y43173096D01*
X34061660Y43173096D02*
X34061660Y42337500D01*
X72325631Y39950000D02*
X72326427Y39950000D01*
X72121901Y39746270D02*
X72121901Y39463427D01*
X72121901Y39746270D02*
X72325631Y39950000D01*
X71583474Y38925000D02*
X70726064Y38925000D01*
X72121901Y39463427D02*
X71583474Y38925000D01*
X70491750Y38690685D02*
X69926064Y38125000D01*
%TO.N,/SPIFI1*%
X74724160Y60375499D02*
X74724160Y58412500D01*
X61974160Y61250000D02*
X66474160Y61250000D01*
X72774160Y61250000D02*
X66474160Y61250000D01*
X61974160Y61513900D02*
X61974160Y61250000D01*
X48471260Y63752900D02*
X47474160Y64750000D01*
X66474160Y61250000D02*
X68474160Y63250000D01*
X39061660Y65837500D02*
X39974160Y66750000D01*
X57873060Y65615000D02*
X56010960Y63752900D01*
X39061660Y63662500D02*
X39061660Y65837500D01*
X57873060Y65615000D02*
X61974160Y61513900D01*
X73974160Y61125499D02*
X74724160Y60375499D01*
X56010960Y63752900D02*
X48471260Y63752900D01*
%TO.N,/SPI2*%
X51689846Y58198529D02*
X51774160Y58282843D01*
X55376345Y52878655D02*
X55724160Y52530840D01*
X52749160Y58975000D02*
X54199160Y58975000D01*
X52489926Y52470355D02*
X52826345Y52806774D01*
X63588375Y30464215D02*
X64349160Y31225000D01*
X53949160Y40940686D02*
X53474160Y40465686D01*
X54224160Y58950000D02*
X54224160Y58512500D01*
X69274160Y31725000D02*
X69999160Y31725000D01*
X61335189Y31565685D02*
X61686660Y31214215D01*
X51251345Y55722815D02*
X51251345Y57262970D01*
X53574160Y43480385D02*
X53949160Y43105385D01*
X69999160Y31725000D02*
X80034160Y21690000D01*
X59283444Y31400000D02*
X59683444Y31800000D01*
X61686660Y30398527D02*
X62529060Y30398527D01*
X62958059Y29969528D02*
X63588375Y29969528D01*
X58324160Y31400000D02*
X59283444Y31400000D01*
X51774160Y58550000D02*
X52474160Y59250000D01*
X51251345Y57262970D02*
X51689846Y57701471D01*
X64349160Y31225000D02*
X66724160Y31225000D01*
X61100875Y31800000D02*
X61335189Y31565685D01*
X51774160Y58282843D02*
X51774160Y58550000D01*
X80034160Y21690000D02*
X80034160Y12747500D01*
X53474160Y36250000D02*
X58324160Y31400000D01*
X52474160Y59250000D02*
X52474160Y60425000D01*
X53474160Y40465686D02*
X53474160Y36250000D01*
X53949160Y43105385D02*
X53949160Y40940686D01*
X62529060Y30398527D02*
X62958059Y29969528D01*
X63588375Y29969528D02*
X63588375Y30464215D01*
X55724160Y52530840D02*
X55724160Y51187500D01*
X51689846Y57701471D02*
X51689846Y58198529D01*
X67711905Y32212745D02*
X68786415Y32212745D01*
X68786415Y32212745D02*
X69274160Y31725000D01*
X66724160Y31225000D02*
X67711905Y32212745D01*
X52474160Y60425000D02*
X52799160Y60750000D01*
X52799160Y60750000D02*
X58474160Y60750000D01*
X52826345Y52806774D02*
X52826345Y54147815D01*
X59683444Y31800000D02*
X61100875Y31800000D01*
X54199160Y58975000D02*
X54224160Y58950000D01*
X61686660Y31214215D02*
X61686660Y30398527D01*
X80034160Y12747500D02*
X79111660Y11825000D01*
X52826345Y54147815D02*
X51251345Y55722815D01*
X52474160Y59250000D02*
X52749160Y58975000D01*
%TO.N,/SPI0*%
X69605532Y32525000D02*
X70330532Y32525000D01*
X63191315Y31198527D02*
X64017788Y32025000D01*
X59472689Y51100000D02*
X59824160Y50748529D01*
X57074160Y53350000D02*
X57849160Y53350000D01*
X58979160Y47005000D02*
X58979160Y46170000D01*
X56724160Y51585785D02*
X56724160Y52000000D01*
X52289846Y57950000D02*
X52189846Y57950000D01*
X60149160Y49898529D02*
X60149160Y48175000D01*
X59373424Y39030808D02*
X58694160Y38351544D01*
X59974160Y35795279D02*
X59974160Y32600000D01*
X79604232Y10825000D02*
X79111660Y10825000D01*
X59124160Y52251471D02*
X59124160Y51100000D01*
X69111906Y33012745D02*
X69114846Y33015685D01*
X59222689Y52350000D02*
X59124160Y52251471D01*
X67380533Y33012745D02*
X69111906Y33012745D01*
X57849160Y53350000D02*
X58849160Y52350000D01*
X52289846Y57850000D02*
X52289846Y57850000D01*
X69114846Y33015685D02*
X69605532Y32525000D01*
X59412128Y36357311D02*
X59974160Y35795279D01*
X52514846Y58475000D02*
X53699160Y58475000D01*
X60149160Y48175000D02*
X58979160Y47005000D01*
X56724160Y52000000D02*
X57074160Y52350000D01*
X57074160Y52350000D02*
X57074160Y53350000D01*
X59373424Y40525735D02*
X59373424Y39030808D01*
X58941849Y36357311D02*
X59412128Y36357311D01*
X66392788Y32025000D02*
X67380533Y33012745D01*
X59124160Y51100000D02*
X59472689Y51100000D01*
X52189846Y57950000D02*
X52189846Y57950000D01*
X59824160Y50251471D02*
X59810189Y50237500D01*
X57074160Y53650000D02*
X56074160Y54650000D01*
X61432247Y32600000D02*
X62833720Y31198527D01*
X58979160Y46170000D02*
X60199160Y44950000D01*
X58694160Y36605000D02*
X58941849Y36357311D01*
X53699160Y58475000D02*
X53711660Y58487500D01*
X58849160Y52350000D02*
X59222689Y52350000D01*
X80974160Y21881372D02*
X80974160Y12194928D01*
X58694160Y38351544D02*
X58694160Y36605000D01*
X59824160Y50748529D02*
X59824160Y50251471D01*
X52289846Y57950000D02*
X52289846Y57850000D01*
X59810189Y50237500D02*
X60149160Y49898529D01*
X53711660Y58487500D02*
X53711660Y58500000D01*
X70330532Y32525000D02*
X80974160Y21881372D01*
X57074160Y53350000D02*
X57074160Y53650000D01*
X59974160Y32600000D02*
X61432247Y32600000D01*
X56074160Y55981372D02*
X55932738Y56122794D01*
X80974160Y12194928D02*
X79604232Y10825000D01*
X56074160Y54650000D02*
X56074160Y54850000D01*
X64017788Y32025000D02*
X66392788Y32025000D01*
X52189846Y58150000D02*
X52514846Y58475000D01*
X55932738Y56122794D02*
X55932738Y55816422D01*
X56074160Y54850000D02*
X56074160Y55981372D01*
X62833720Y31198527D02*
X63191315Y31198527D01*
X52189846Y57950000D02*
X52189846Y58150000D01*
%TO.N,Net-(C51-Pad2)*%
X71791660Y5095000D02*
X71974160Y4912500D01*
X69544160Y13250000D02*
X70724160Y13250000D01*
X71974160Y6500000D02*
X71724160Y6750000D01*
X71974160Y4912500D02*
X71974160Y6500000D01*
%TO.N,/CS3*%
X48472689Y33850000D02*
X48824160Y33498529D01*
X47149160Y32526471D02*
X47149160Y33023529D01*
X30561660Y40837500D02*
X30474160Y40750000D01*
X48470238Y37644607D02*
X47204553Y37644607D01*
X46135190Y31512501D02*
X47149160Y32526471D01*
X30561660Y42337500D02*
X30561660Y40837500D01*
X49914160Y36100686D02*
X48589846Y37425000D01*
X47149160Y33023529D02*
X47225631Y33100000D01*
X48824160Y33498529D02*
X48824160Y33001471D01*
X50049160Y32825000D02*
X49914160Y32960000D01*
X48589846Y37524999D02*
X48470238Y37644607D01*
X49000631Y32825000D02*
X50049160Y32825000D01*
X47975631Y33850000D02*
X48472689Y33850000D01*
X49914160Y32960000D02*
X49914160Y36100686D01*
X55236660Y59487500D02*
X55236660Y58500000D01*
X54974160Y59750000D02*
X55236660Y59487500D01*
X46135190Y30962500D02*
X46135190Y31512501D01*
X66224160Y34350104D02*
X66224160Y37087500D01*
X47225631Y33100000D02*
X47624160Y33100000D01*
X47624160Y33498529D02*
X47975631Y33850000D01*
X47624160Y33100000D02*
X47624160Y33498529D01*
X48824160Y33001471D02*
X49000631Y32825000D01*
X66612948Y33961316D02*
X66224160Y34350104D01*
X48589846Y37425000D02*
X48589846Y37524999D01*
%TO.N,/SPIFI0*%
X72474160Y65250000D02*
X73374160Y64350000D01*
X44443474Y67285000D02*
X49205260Y67285000D01*
X74224160Y60000000D02*
X74224160Y58412500D01*
X73374160Y64350000D02*
X73374160Y60850000D01*
X38561660Y66186029D02*
X38561660Y63662500D01*
X39725631Y67350000D02*
X38561660Y66186029D01*
X73374160Y60850000D02*
X74224160Y60000000D01*
X67624160Y70100000D02*
X72474160Y65250000D01*
X41663018Y67938858D02*
X43789616Y67938858D01*
X42975631Y70100000D02*
X67624160Y70100000D01*
X40574160Y66998529D02*
X40574160Y66850000D01*
X41663018Y67938858D02*
X41663018Y68787387D01*
X41663018Y68787387D02*
X42975631Y70100000D01*
X43789616Y67938858D02*
X44443474Y67285000D01*
X40222689Y67350000D02*
X40574160Y66998529D01*
X40574160Y66850000D02*
X41663018Y67938858D01*
X40222689Y67350000D02*
X39725631Y67350000D01*
X49205260Y67285000D02*
X50075260Y68155000D01*
%TD*%
M02*
