%TF.GenerationSoftware,KiCad,Pcbnew,8.0.4*%
%TF.CreationDate,2025-02-19T16:48:10+05:30*%
%TF.ProjectId,test1,74657374-312e-46b6-9963-61645f706362,rev?*%
%TF.SameCoordinates,Original*%
%TF.FileFunction,Soldermask,Bot*%
%TF.FilePolarity,Negative*%
%FSLAX46Y46*%
G04 Gerber Fmt 4.6, Leading zero omitted, Abs format (unit mm)*
G04 Created by KiCad (PCBNEW 8.0.4) date 2025-02-19 16:48:10*
%MOMM*%
%LPD*%
G01*
G04 APERTURE LIST*
G04 Aperture macros list*
%AMRoundRect*
0 Rectangle with rounded corners*
0 $1 Rounding radius*
0 $2 $3 $4 $5 $6 $7 $8 $9 X,Y pos of 4 corners*
0 Add a 4 corners polygon primitive as box body*
4,1,4,$2,$3,$4,$5,$6,$7,$8,$9,$2,$3,0*
0 Add four circle primitives for the rounded corners*
1,1,$1+$1,$2,$3*
1,1,$1+$1,$4,$5*
1,1,$1+$1,$6,$7*
1,1,$1+$1,$8,$9*
0 Add four rect primitives between the rounded corners*
20,1,$1+$1,$2,$3,$4,$5,0*
20,1,$1+$1,$4,$5,$6,$7,0*
20,1,$1+$1,$6,$7,$8,$9,0*
20,1,$1+$1,$8,$9,$2,$3,0*%
G04 Aperture macros list end*
%ADD10RoundRect,0.250000X-0.350000X-0.350000X0.350000X-0.350000X0.350000X0.350000X-0.350000X0.350000X0*%
%ADD11C,1.200000*%
%ADD12C,2.604000*%
%ADD13C,2.050000*%
%ADD14C,2.250000*%
%ADD15R,1.700000X1.700000*%
%ADD16O,1.700000X1.700000*%
%ADD17C,0.550000*%
%ADD18RoundRect,0.250000X-0.350000X0.350000X-0.350000X-0.350000X0.350000X-0.350000X0.350000X0.350000X0*%
G04 APERTURE END LIST*
D10*
%TO.C,J18*%
X22024160Y69675000D03*
D11*
X22024160Y67675000D03*
X24024160Y69675000D03*
X24024160Y67675000D03*
X26024160Y69675000D03*
X26024160Y67675000D03*
X28024160Y69675000D03*
X28024160Y67675000D03*
X30024160Y69675000D03*
X30024160Y67675000D03*
X32024160Y69675000D03*
X32024160Y67675000D03*
X34024160Y69675000D03*
X34024160Y67675000D03*
%TD*%
D12*
%TO.C,J17*%
X92474160Y52210000D03*
X92474160Y57290000D03*
%TD*%
D13*
%TO.C,J1*%
X91974160Y19750000D03*
D14*
X89434160Y22290000D03*
X89434160Y17210000D03*
X94514160Y22290000D03*
X94514160Y17210000D03*
%TD*%
D12*
%TO.C,J10*%
X8474160Y35330000D03*
X8474160Y30250000D03*
%TD*%
%TO.C,J3*%
X14909160Y9085000D03*
X19989160Y9085000D03*
%TD*%
%TO.C,J7*%
X50489160Y9085000D03*
X55569160Y9085000D03*
%TD*%
%TO.C,J6*%
X38629160Y9085000D03*
X43709160Y9085000D03*
%TD*%
%TO.C,J11*%
X8474160Y23470000D03*
X8474160Y18390000D03*
%TD*%
%TO.C,J4*%
X2934160Y9250000D03*
X8014160Y9250000D03*
%TD*%
D15*
%TO.C,J9*%
X9956345Y66803655D03*
D16*
X12496345Y66803655D03*
X15036345Y66803655D03*
X17576345Y66803655D03*
%TD*%
D12*
%TO.C,J8*%
X92474160Y63710000D03*
X92474160Y68790000D03*
%TD*%
D17*
%TO.C,J12*%
X5624160Y59250000D03*
X5624160Y55250000D03*
%TD*%
D10*
%TO.C,J14*%
X64474160Y65250000D03*
D11*
X64474160Y63250000D03*
X66474160Y65250000D03*
X66474160Y63250000D03*
X68474160Y65250000D03*
X68474160Y63250000D03*
X70474160Y65250000D03*
X70474160Y63250000D03*
X72474160Y65250000D03*
X72474160Y63250000D03*
X74474160Y65250000D03*
X74474160Y63250000D03*
X76474160Y65250000D03*
X76474160Y63250000D03*
%TD*%
D12*
%TO.C,J5*%
X26769160Y9085000D03*
X31849160Y9085000D03*
%TD*%
D10*
%TO.C,J15*%
X44974160Y27750000D03*
D11*
X44974160Y25750000D03*
X46974160Y27750000D03*
X46974160Y25750000D03*
X48974160Y27750000D03*
X48974160Y25750000D03*
X50974160Y27750000D03*
X50974160Y25750000D03*
X52974160Y27750000D03*
X52974160Y25750000D03*
X54974160Y27750000D03*
X54974160Y25750000D03*
X56974160Y27750000D03*
X56974160Y25750000D03*
%TD*%
D12*
%TO.C,J16*%
X92474160Y40350000D03*
X92474160Y45430000D03*
%TD*%
D17*
%TO.C,J2*%
X5624160Y47250000D03*
X5624160Y43250000D03*
%TD*%
D18*
%TO.C,J13*%
X15474160Y57250000D03*
D11*
X13474160Y57250000D03*
X15474160Y55250000D03*
X13474160Y55250000D03*
X15474160Y53250000D03*
X13474160Y53250000D03*
X15474160Y51250000D03*
X13474160Y51250000D03*
X15474160Y49250000D03*
X13474160Y49250000D03*
X15474160Y47250000D03*
X13474160Y47250000D03*
X15474160Y45250000D03*
X13474160Y45250000D03*
%TD*%
M02*
