M48
; DRILL file {KiCad 8.0.4} date 2025-02-19T16:48:21+0530
; FORMAT={-:-/ absolute / inch / decimal}
; #@! TF.CreationDate,2025-02-19T16:48:21+05:30
; #@! TF.GenerationSoftware,Kicad,Pcbnew,8.0.4
; #@! TF.FileFunction,Plated,1,4,PTH
FMAT,2
INCH
; #@! TA.AperFunction,Plated,PTH,ViaDrill
T1C0.0079
; #@! TA.AperFunction,Plated,PTH,ComponentDrill
T2C0.0079
; #@! TA.AperFunction,Plated,PTH,ViaDrill
T3C0.0118
; #@! TA.AperFunction,Plated,PTH,ComponentDrill
T4C0.0295
; #@! TA.AperFunction,Plated,PTH,ComponentDrill
T5C0.0394
; #@! TA.AperFunction,Plated,PTH,ComponentDrill
T6C0.0591
; #@! TA.AperFunction,Plated,PTH,ComponentDrill
T7C0.0630
; #@! TA.AperFunction,Plated,PTH,ComponentDrill
T8C0.0669
%
G90
G05
T1
X0.4321Y1.4075
T2
X1.3312Y2.2047
X1.3312Y2.126
X1.3312Y2.0472
X1.3312Y1.9685
X1.4099Y2.2047
X1.4099Y2.126
X1.4099Y2.0472
X1.4099Y1.9685
X1.4886Y2.2047
X1.4886Y2.126
X1.4886Y2.0472
X1.4886Y1.9685
X1.5674Y2.2047
X1.5674Y2.126
X1.5674Y2.0472
X1.5674Y1.9685
X2.1821Y1.9783
X2.1821Y1.937
X2.1821Y1.8957
X2.2234Y1.9783
X2.2234Y1.937
X2.2234Y1.8957
X2.2647Y1.9783
X2.2647Y1.937
X2.2647Y1.8957
X2.7352Y1.998
X2.7352Y1.9193
X2.7352Y1.8406
X2.7352Y1.7618
X2.8139Y1.998
X2.8139Y1.9193
X2.8139Y1.8406
X2.8139Y1.7618
X2.8927Y1.998
X2.8927Y1.9193
X2.8927Y1.8406
X2.8927Y1.7618
X2.9714Y1.998
X2.9714Y1.9193
X2.9714Y1.8406
X2.9714Y1.7618
X2.9941Y0.4596
X2.9941Y0.4163
X2.9941Y0.373
X3.0374Y0.4596
X3.0374Y0.4163
X3.0374Y0.373
X3.0807Y0.4596
X3.0807Y0.4163
X3.0807Y0.373
T3
X0.1319Y1.6053
X0.2008Y2.5778
X0.2225Y2.6064
X0.2824Y2.2136
X0.2952Y1.7274
X0.3139Y2.2933
X0.3139Y1.7815
X0.3533Y2.1949
X0.3533Y2.0374
X0.3976Y0.5768
X0.4084Y2.5059
X0.4921Y1.1122
X0.5079Y2.572
X0.5689Y1.3514
X0.5778Y1.8181
X0.5895Y2.5659
X0.6004Y0.8484
X0.6053Y2.435
X0.6269Y2.4744
X0.6447Y1.5915
X0.7038Y1.8181
X0.7057Y2.5325
X0.7076Y0.935
X0.7077Y0.7757
X0.7268Y1.9779
X0.7332Y1.8888
X0.7598Y2.0443
X0.7834Y0.5886
X0.7933Y1.9232
X0.8198Y1.9764
X0.8475Y2.2915
X0.8573Y2.2579
X0.8582Y1.499
X0.8592Y1.4665
X0.8769Y2.3189
X0.8799Y1.7923
X0.8799Y1.7018
X0.8966Y2.1516
X0.9134Y2.4528
X0.9232Y0.7904
X0.9242Y2.1949
X0.9439Y2.372
X0.9488Y2.2584
X0.9517Y2.2146
X0.9778Y1.8665
X0.9892Y0.9362
X0.9901Y1.6811
X1.0374Y1.5138
X1.0532Y1.6782
X1.058Y1.4823
X1.062Y1.0965
X1.0679Y2.0089
X1.0846Y1.878
X1.0846Y1.7738
X1.0925Y2.376
X1.1102Y0.685
X1.1132Y2.3287
X1.1161Y1.3632
X1.1338Y1.5846
X1.1348Y0.8701
X1.1358Y1.1978
X1.1437Y2.2579
X1.1574Y2.4474
X1.1663Y2.6112
X1.1733Y1.0897
X1.1801Y1.7224
X1.1801Y1.498
X1.192Y1.8318
X1.1958Y1.435
X1.1998Y1.6043
X1.2165Y1.8602
X1.2185Y2.3691
X1.2204Y0.7785
X1.2293Y2.2648
X1.2421Y2.1161
X1.2431Y2.6102
X1.249Y1.4272
X1.2647Y1.1978
X1.2648Y0.9155
X1.2648Y0.6901
X1.2657Y1.5846
X1.2716Y2.8494
X1.2765Y2.1299
X1.2785Y1.3706
X1.2795Y1.8652
X1.2815Y2.562
X1.2874Y1.2539
X1.2893Y1.7205
X1.2962Y1.5925
X1.3033Y0.6988
X1.3042Y1.3323
X1.3154Y1.7382
X1.3179Y1.0925
X1.3189Y0.813
X1.3336Y1.3435
X1.3469Y1.7382
X1.3474Y1.4213
X1.3524Y0.9204
X1.3612Y1.6181
X1.3632Y2.3563
X1.3721Y1.8889
X1.376Y1.5344
X1.3839Y0.7994
X1.3937Y2.5856
X1.3976Y1.0472
X1.4121Y1.7379
X1.4202Y1.4203
X1.4311Y0.7963
X1.4389Y2.686
X1.4432Y1.7155
X1.4488Y1.438
X1.4635Y0.9705
X1.4646Y1.5541
X1.4655Y1.6171
X1.4714Y1.3346
X1.4724Y1.7648
X1.4754Y2.5984
X1.5022Y1.4939
X1.5206Y0.8848
X1.5295Y1.2293
X1.5344Y1.501
X1.5383Y1.9055
X1.5472Y1.3081
X1.5502Y1.5531
X1.5526Y0.6729
X1.5549Y1.4075
X1.5698Y1.747
X1.5738Y2.628
X1.5758Y1.3839
X1.5866Y1.5541
X1.5934Y2.7126
X1.6053Y2.4583
X1.6065Y1.3767
X1.6171Y1.4902
X1.6171Y1.6211
X1.6342Y1.2839
X1.6371Y1.5967
X1.6456Y0.9794
X1.6466Y0.939
X1.6561Y2.5594
X1.6594Y1.6191
X1.6657Y1.2854
X1.6682Y1.7273
X1.6712Y1.4488
X1.6742Y1.5159
X1.6752Y2.4537
X1.6752Y2.1181
X1.6792Y2.7137
X1.6792Y2.6511
X1.6801Y1.9872
X1.684Y2.5846
X1.6919Y1.3888
X1.7086Y1.0935
X1.7116Y1.5453
X1.7135Y1.7736
X1.7155Y2.5531
X1.7244Y0.9882
X1.7272Y2.6083
X1.7273Y2.0187
X1.7303Y1.4528
X1.7426Y1.9414
X1.7558Y1.5217
X1.7687Y2.0187
X1.7687Y1.9715
X1.7706Y2.6083
X1.7775Y1.2244
X1.7795Y2.2224
X1.7795Y2.1909
X1.7854Y1.4459
X1.7864Y1.7864
X1.7903Y1.3691
X1.7913Y1.8927
X1.7948Y2.3046
X1.7952Y1.5138
X1.8011Y1.757
X1.8022Y2.4431
X1.8061Y2.3406
X1.8061Y2.0945
X1.8071Y2.5533
X1.8108Y1.4644
X1.8149Y1.8465
X1.8163Y1.219
X1.8195Y1.2784
X1.8218Y1.5974
X1.8366Y2.4961
X1.8454Y1.3848
X1.8503Y1.6919
X1.8584Y1.4821
X1.8691Y2.5492
X1.8755Y2.5094
X1.8986Y1.3091
X1.9143Y1.4085
X1.9202Y2.5453
X1.9213Y1.9647
X1.9223Y1.886
X1.9252Y0.877
X1.926Y0.9705
X1.9261Y1.8032
X1.9281Y2.2244
X1.933Y1.6444
X1.933Y0.5807
X1.9349Y1.7723
X1.9389Y1.7411
X1.9399Y1.563
X1.9415Y1.3609
X1.9458Y2.3898
X1.951Y1.5972
X1.9581Y1.6861
X1.9635Y2.3425
X1.964Y2.0835
X1.9665Y1.871
X1.9675Y2.1555
X1.9675Y1.7549
X1.9734Y1.9582
X1.9734Y1.9017
X1.9843Y0.9489
X1.9854Y1.8456
X1.9881Y1.1978
X2.0012Y0.8494
X2.005Y2.1201
X2.0069Y2.5689
X2.0309Y1.7244
X2.0324Y1.4518
X2.0364Y1.6142
X2.0452Y0.9464
X2.0464Y2.09
X2.0531Y1.3967
X2.058Y2.0354
X2.0587Y2.2815
X2.0613Y1.7326
X2.0621Y1.3466
X2.0665Y2.0658
X2.0689Y2.003
X2.0698Y1.8671
X2.0708Y1.8346
X2.076Y1.9099
X2.0815Y2.2153
X2.0817Y1.6437
X2.0826Y1.2726
X2.0846Y1.8051
X2.0866Y1.2175
X2.0901Y1.409
X2.0942Y2.0464
X2.1013Y2.3652
X2.1034Y2.1058
X2.1092Y1.7118
X2.112Y2.1946
X2.1202Y1.9991
X2.1289Y1.4488
X2.1295Y1.8037
X2.1328Y2.4587
X2.1398Y2.1693
X2.1456Y2.2726
X2.1486Y1.8287
X2.1515Y1.565
X2.1565Y1.6555
X2.1604Y1.7215
X2.1624Y1.4665
X2.1643Y2.3524
X2.1644Y1.6859
X2.1663Y2.6693
X2.1701Y1.7697
X2.1759Y1.3231
X2.1802Y2.0818
X2.1811Y1.4075
X2.1889Y0.7126
X2.2008Y1.2717
X2.2021Y2.2096
X2.2074Y2.0992
X2.2145Y2.2756
X2.2165Y1.5728
X2.2232Y1.6676
X2.2254Y0.6348
X2.2273Y0.5295
X2.2283Y1.4502
X2.2352Y1.7684
X2.2397Y1.5492
X2.241Y1.6322
X2.2411Y0.8061
X2.2431Y1.7126
X2.2569Y0.9198
X2.2588Y2.1358
X2.2608Y2.2756
X2.2706Y2.0737
X2.2795Y2.6841
X2.2834Y2.5276
X2.2982Y2.1988
X2.2994Y2.0357
X2.3012Y1.6685
X2.3021Y2.3917
X2.3048Y1.7721
X2.3179Y0.9803
X2.3293Y1.4078
X2.3297Y1.9252
X2.3317Y1.9882
X2.3375Y1.5955
X2.3376Y1.3763
X2.3376Y1.3389
X2.3423Y1.0002
X2.3445Y1.9547
X2.3573Y2.2382
X2.3586Y1.2052
X2.361Y0.9075
X2.3661Y2.1181
X2.3671Y2.0541
X2.3678Y1.7776
X2.3681Y1.7207
X2.3749Y1.6427
X2.3789Y1.4813
X2.3848Y1.5955
X2.3868Y2.5827
X2.3868Y1.123
X2.3878Y2.0226
X2.3888Y1.8273
X2.3892Y1.2126
X2.4075Y1.3327
X2.4153Y1.0418
X2.4202Y0.6703
X2.4301Y2.3169
X2.4321Y2.4744
X2.4389Y1.3907
X2.4389Y1.3337
X2.4389Y1.1417
X2.4389Y1.1083
X2.4498Y2.3622
X2.4593Y1.0817
X2.4778Y1.7094
X2.4786Y1.109
X2.4803Y2.2746
X2.4813Y2.0463
X2.4867Y1.5768
X2.4881Y1.3927
X2.4891Y2.122
X2.4891Y2.1693
X2.4921Y2.0778
X2.5049Y1.6437
X2.512Y1.3722
X2.5206Y1.5768
X2.5271Y1.1878
X2.5283Y2.876
X2.5334Y2.7244
X2.5384Y2.4409
X2.5434Y1.7127
X2.556Y1.2057
X2.5561Y2.2057
X2.5562Y1.8576
X2.56Y1.3389
X2.5679Y1.4026
X2.5679Y1.6594
X2.5708Y1.8297
X2.5738Y0.3169
X2.5986Y1.7146
X2.6226Y1.3371
X2.623Y1.5473
X2.6402Y1.0482
X2.6475Y1.3562
X2.6496Y1.8169
X2.6515Y1.2136
X2.6545Y1.9094
X2.6576Y1.5285
X2.6653Y1.0207
X2.6659Y1.9512
X2.6693Y2.6467
X2.6797Y1.551
X2.6801Y1.8376
X2.684Y2.435
X2.692Y1.2446
X2.6948Y1.3414
X2.6948Y1.125
X2.6998Y0.1831
X2.7047Y2.2047
X2.7225Y1.4086
X2.7263Y1.3415
X2.7313Y0.9518
X2.7359Y1.5974
X2.7391Y0.3091
X2.7431Y0.2264
X2.746Y0.4154
X2.7529Y2.6201
X2.7618Y1.3387
X2.7628Y2.7106
X2.7637Y0.1486
X2.7647Y2.3878
X2.7677Y1.0266
X2.7694Y1.4114
X2.7699Y1.0658
X2.7844Y1.0965
X2.7844Y0.5217
X2.7893Y1.685
X2.809Y1.5567
X2.811Y1.3415
X2.8208Y1.685
X2.8238Y0.2657
X2.8356Y0.4232
X2.8394Y1.5648
X2.8512Y1.4042
X2.8602Y0.8957
X2.8651Y2.4114
X2.8651Y1.2195
X2.8651Y0.6004
X2.8903Y1.5265
X2.8917Y0.3228
X2.8927Y2.6673
X2.8938Y1.7068
X2.8986Y1.3944
X2.9011Y0.373
X2.9045Y1.2264
X2.9074Y2.2539
X2.9124Y2.4065
X2.9124Y0.6959
X2.9272Y0.3232
X2.9301Y0.2411
X2.9321Y2.628
X2.9321Y2.4311
X2.9389Y1.1811
X2.9508Y0.9823
X2.9537Y1.6919
X2.9557Y1.2736
X2.9586Y0.3445
X2.9626Y1.2195
X2.9735Y1.5974
X2.9783Y1.251
X2.9911Y2.4311
X3.0019Y1.4045
X3.0039Y1.0837
X3.0049Y1.3258
X3.0206Y0.6073
X3.0256Y1.2417
X3.0275Y1.2904
X3.0334Y1.7215
X3.0404Y0.0886
X3.0452Y2.4232
X3.0669Y1.7687
X3.069Y1.2895
X3.0698Y0.5807
X3.0708Y1.7244
X3.0777Y1.6043
X3.0792Y2.0501
X3.0905Y1.3632
X3.0935Y2.0817
X3.0935Y0.687
X3.0935Y0.6083
X3.0935Y0.1988
X3.0975Y1.5474
X3.1013Y2.4665
X3.1151Y1.3986
X3.1181Y2.1053
X3.12Y2.2461
X3.123Y0.2559
X3.126Y0.1644
X3.1269Y0.0896
X3.1338Y1.9665
X3.1525Y2.4075
X3.1683Y0.3051
X3.1801Y2.2067
X3.1801Y1.5295
X3.185Y1.6909
X3.2047Y1.6043
X3.2076Y0.4035
X3.2183Y1.5391
X3.2244Y1.7057
X3.2273Y0.128
X3.2283Y2.376
X3.245Y0.1663
X3.247Y0.3445
X3.248Y2.2992
X3.2667Y0.2657
X3.2992Y0.378
X3.3058Y2.4919
X3.3071Y0.0876
X3.3258Y0.4626
X3.3277Y1.563
X3.3436Y1.6055
X3.3454Y2.4193
X3.371Y0.5256
X3.3769Y2.1516
X3.3802Y1.589
X3.3897Y1.7579
X3.3927Y2.0443
X3.3956Y2.3652
X3.3956Y1.8051
X3.4072Y1.6052
X3.4104Y1.9823
X3.4252Y1.8671
X3.4261Y1.8159
X3.4439Y0.3839
X3.4498Y1.5147
X3.4508Y0.5217
X3.4635Y0.6004
X3.4724Y1.9705
X3.4763Y0.4667
X3.4774Y0.4942
X3.497Y1.8632
X3.4993Y0.4689
X3.4993Y0.4464
X3.503Y0.4934
X3.5226Y0.07
X3.5256Y0.5188
X3.5279Y0.4443
X3.5303Y0.4689
X3.5335Y0.4933
X3.5522Y0.5218
X3.5552Y0.4431
X3.5718Y2.1742
X3.6053Y1.9183
X3.6339Y0.387
X3.6408Y0.4381
X3.6693Y0.4224
X3.7647Y0.4537
X3.7982Y0.5413
T4
X0.5305Y2.2539
X0.5305Y2.1752
X0.5305Y2.0965
X0.5305Y2.0177
X0.5305Y1.939
X0.5305Y1.8602
X0.5305Y1.7815
X0.6092Y2.2539
X0.6092Y2.1752
X0.6092Y2.0965
X0.6092Y2.0177
X0.6092Y1.939
X0.6092Y1.8602
X0.6092Y1.7815
X0.8671Y2.7431
X0.8671Y2.6644
X0.9458Y2.7431
X0.9458Y2.6644
X1.0246Y2.7431
X1.0246Y2.6644
X1.1033Y2.7431
X1.1033Y2.6644
X1.1821Y2.7431
X1.1821Y2.6644
X1.2608Y2.7431
X1.2608Y2.6644
X1.3395Y2.7431
X1.3395Y2.6644
X1.7706Y1.0925
X1.7706Y1.0138
X1.8494Y1.0925
X1.8494Y1.0138
X1.9281Y1.0925
X1.9281Y1.0138
X2.0069Y1.0925
X2.0069Y1.0138
X2.0856Y1.0925
X2.0856Y1.0138
X2.1643Y1.0925
X2.1643Y1.0138
X2.2431Y1.0925
X2.2431Y1.0138
X2.5384Y2.5689
X2.5384Y2.4902
X2.6171Y2.5689
X2.6171Y2.4902
X2.6958Y2.5689
X2.6958Y2.4902
X2.7746Y2.5689
X2.7746Y2.4902
X2.8533Y2.5689
X2.8533Y2.4902
X2.9321Y2.5689
X2.9321Y2.4902
X3.0108Y2.5689
X3.0108Y2.4902
T5
X0.392Y2.6301
X0.492Y2.6301
X0.592Y2.6301
X0.692Y2.6301
T6
X3.621Y0.7776
T7
X0.1155Y0.3642
X0.3155Y0.3642
X0.3336Y1.3909
X0.3336Y1.1909
X0.3336Y0.924
X0.3336Y0.724
X0.587Y0.3577
X0.787Y0.3577
X1.0539Y0.3577
X1.2539Y0.3577
X1.5208Y0.3577
X1.7208Y0.3577
X1.9878Y0.3577
X2.1878Y0.3577
X3.6407Y2.7083
X3.6407Y2.5083
X3.6407Y2.2555
X3.6407Y2.0555
X3.6407Y1.7886
X3.6407Y1.5886
T8
X3.521Y0.8776
X3.521Y0.6776
X3.721Y0.8776
X3.721Y0.6776
M30
